<svg id="Calque_1" data-name="Calque 1" xmlns="http://www.w3.org/2000/svg" viewBox="0 0 50 62"><defs><style>.cls-1{fill:#09c964;}</style></defs><title>Picto-Publique-Agences</title><path class="cls-1" d="M25,26.49a5.31,5.31,0,1,0-5.31-5.31A5.31,5.31,0,0,0,25,26.49Zm0-8.63a3.31,3.31,0,1,1-3.31,3.31A3.32,3.32,0,0,1,25,17.86Z"/><path class="cls-1" d="M33.84,41.45l-1.56,2.11A46.26,46.26,0,0,1,40.14,45c3.85,1.1,5.58,2.46,5.58,3.32S44,50.54,40.14,51.64A57.56,57.56,0,0,1,25,53.43,57.56,57.56,0,0,1,9.86,51.64C6,50.54,4.28,49.18,4.28,48.32S6,46.09,9.86,45a51,51,0,0,1,10.68-1.66C23,46.64,25,48.81,25,48.81S39.88,32.35,39.88,21.17A14.86,14.86,0,0,0,25.12,6.3h0a15,15,0,0,0-15,14.85v0c0,6.27,4.7,14.23,8.82,20C9.82,41.9,2,44.33,2,48.32c0,4.85,11.57,7.39,23,7.39s23-2.54,23-7.39C48,44.74,41.72,42.42,33.84,41.45ZM12.12,21.15a13,13,0,0,1,13-12.85A12.86,12.86,0,0,1,37.88,21.17c0,8.27-9.21,20.16-12.88,24.56-.76-.91-1.76-2.14-2.85-3.59L20.57,40C15,32.27,12.12,25.76,12.12,21.15Z"/></svg>