<svg id="Calque_1" data-name="Calque 1" xmlns="http://www.w3.org/2000/svg" viewBox="0 0 50 62"><defs><style>.cls-1{fill:#a72776;}</style></defs><title>Picto-Entreprise-Agences</title><path class="cls-1" d="M24.88,27.2a5.31,5.31,0,1,0-5.31-5.31A5.31,5.31,0,0,0,24.88,27.2Zm0-8.63a3.31,3.31,0,1,1-3.31,3.31A3.32,3.32,0,0,1,24.88,18.57Z"/><path class="cls-1" d="M33.72,42.16l-1.56,2.11A46.26,46.26,0,0,1,40,45.7c3.85,1.1,5.58,2.46,5.58,3.32S43.88,51.25,40,52.35a57.56,57.56,0,0,1-15.14,1.79A57.56,57.56,0,0,1,9.74,52.35C5.89,51.25,4.16,49.88,4.16,49S5.89,46.8,9.74,45.7A51,51,0,0,1,20.42,44c2.5,3.3,4.46,5.47,4.46,5.47S39.76,33.06,39.76,21.88A14.86,14.86,0,0,0,25,7h0A15,15,0,0,0,10,21.85v0c0,6.27,4.7,14.23,8.82,20C9.7,42.61,1.88,45,1.88,49c0,4.85,11.57,7.39,23,7.39s23-2.54,23-7.39C47.88,45.45,41.6,43.13,33.72,42.16ZM12,21.86A13,13,0,0,1,25,9,12.86,12.86,0,0,1,37.76,21.88c0,8.27-9.21,20.16-12.88,24.56-.76-.91-1.76-2.14-2.85-3.59l-1.58-2.15C14.92,33,12,26.46,12,21.86Z"/></svg>