<svg id="Calque_1" data-name="Calque 1" xmlns="http://www.w3.org/2000/svg" viewBox="0 0 50 62"><defs><style>.cls-1{fill:#98ce00;}</style></defs><title>Picto-NPC-Aide</title><path class="cls-1" d="M9.59,7.9H9.5a1,1,0,0,0-.71.3L2.29,14.89,2.2,15A6.13,6.13,0,0,0,.75,19.29c0,4.87,4.09,14.15,12.92,23s18.11,12.9,23,12.93H37a6.24,6.24,0,0,0,4-1.5l.09-.09,6.63-6.45a1,1,0,0,0,0-1.42L37.44,35.46a1,1,0,0,0-1.38,0L30,41a40,40,0,0,1-8.51-6.45A40.82,40.82,0,0,1,15,26l5.56-6.06a1,1,0,0,0,0-1.38L10.22,8.2a.9.9,0,0,0-.63-.3ZM37,53.26h-.3c-4.54,0-13.24-3.9-21.63-12.34S2.78,23.75,2.75,19.23a4.19,4.19,0,0,1,1-3l5.76-5.92,9,9-5.11,5.57a1.56,1.56,0,0,0-.22,1.84,42.86,42.86,0,0,0,6.94,9.24,42,42,0,0,0,9.24,6.95,1.52,1.52,0,0,0,.75.19,1.58,1.58,0,0,0,1.07-.41l5.57-5.12,9,9-5.93,5.77a4.2,4.2,0,0,1-2.71,1Z"/><path class="cls-1" d="M34.46,12.88a8.61,8.61,0,0,0-5.58,2,1,1,0,1,0,1.29,1.53,6.7,6.7,0,0,1,9,.38,6.7,6.7,0,0,1,.39,9,1,1,0,0,0,1.53,1.29,8.65,8.65,0,0,0-6.64-14.23Z"/><path class="cls-1" d="M33.83,6.73a15.39,15.39,0,0,0-8,2.23,1,1,0,0,0,1,1.71A13.43,13.43,0,0,1,45.33,29.1a1,1,0,1,0,1.71,1A15.44,15.44,0,0,0,33.83,6.73Z"/></svg>