<svg id="Calque_1" data-name="Calque 1" xmlns="http://www.w3.org/2000/svg" viewBox="0 0 50 62"><defs><style>.cls-1{fill:#a72776;}</style></defs><title>Picto-Entreprise-Aide</title><path class="cls-1" d="M37.44,35.46a1,1,0,0,0-1.38,0L30,41a40,40,0,0,1-8.51-6.45A40.83,40.83,0,0,1,15,26l5.56-6.06a1,1,0,0,0,0-1.38L10.22,8.2A.87.87,0,0,0,9.5,7.9a1,1,0,0,0-.71.3L2.29,14.89,2.2,15A6.13,6.13,0,0,0,.75,19.29c0,4.87,4.09,14.15,12.92,23s18.11,12.9,23,12.93H37a6.24,6.24,0,0,0,4-1.5l.09-.09,6.63-6.45a1,1,0,0,0,0-1.42Zm2.28,16.81a4.2,4.2,0,0,1-2.71,1h-.3c-4.54,0-13.24-3.9-21.63-12.34S2.78,23.75,2.75,19.23a4.19,4.19,0,0,1,1-3l5.76-5.92,9,9-5.11,5.57a1.56,1.56,0,0,0-.22,1.84,42.86,42.86,0,0,0,6.94,9.24,42,42,0,0,0,9.24,6.95,1.59,1.59,0,0,0,1.81-.22l5.57-5.12,9,9Z"/><path class="cls-1" d="M39.69,27.23a1,1,0,0,0,1.41-.12A8.67,8.67,0,0,0,28.88,14.91a1,1,0,0,0,1.29,1.53,6.67,6.67,0,0,1,9.4,9.39A1,1,0,0,0,39.69,27.23Z"/><path class="cls-1" d="M26.9,10.67A13.43,13.43,0,0,1,45.33,29.1a1,1,0,1,0,1.71,1A15.43,15.43,0,0,0,25.86,9a1,1,0,0,0,1,1.71Z"/></svg>