<svg viewBox="0 0 500 500" xmlns="http://www.w3.org/2000/svg" fill-rule="evenodd" clip-rule="evenodd" stroke-linejoin="round" stroke-miterlimit="1.414"><path fill="#006a4e" d="M9.74 380.981h451.747v40.313H9.74z"/><path d="M495 125.418c-.116 0-71.049 40.75-87.683 46.93-15.319 6.052-21.289-1.789-22.733-4.776-3.017-2.975-11.966-29.987-11.966-29.987s7.247.476 13.436-1.429C396.769 132.86 494.871 78.667 495 78.706v46.712z" fill="#ed1b2f" fill-rule="nonzero"/><path d="M297.004 161.366l30.431 76.235 53.848-28.313-46.627-103.222h-67.838l-95.342 177.616c.103 0 46.898-1.429 76.942-24.013 7.582-4.506 28.974-60.578 48.586-98.303z" fill="#006a4e" fill-rule="nonzero"/><path d="M381.283 209.275l-53.848 28.313c-46.046 23.511-89.823 44.214-113.446 50.871-62.164 17.871-137.842 28.673-165.075 4.571-25.596-22.674 33.5-117.694 145.231-138.797 17.975-4.468 28.703-3.026 28.703-2.871 0-.155-8.523-32.176-13.643-39.335-6.589-8.974-16.505-12.231-28.664-10.751-24.203 1.442-127.089 28.906-167.719 114.475-22.604 48.695 9.026 99.914 28.664 113.291 5.983 4.803 66.51 57.36 200.962 4.803C375.622 282.253 494.871 200.97 495 200.97v-54.295c-.064-.116-52.635 29.987-113.717 62.6z" fill="#009597" fill-rule="nonzero"/><path d="M346.326 287.133c5.003 11.716 19.355 45.772 22.965 55.441 4.784 10.854 16.724 10.854 16.724 10.777h62.165l-46.317-95.819a1377.05 1377.05 0 0 1-55.537 29.601z" fill="#006a4e" fill-rule="nonzero"/></svg>