<svg viewBox="0 0 500 500" xmlns="http://www.w3.org/2000/svg" fill-rule="evenodd" clip-rule="evenodd" stroke-linejoin="round" stroke-miterlimit="1.414"><path d="M250 5C114.605 5 5 114.605 5 250c0 135.395 109.605 245 245 245 135.395 0 245-109.605 245-245C495 114.605 385.395 5 250 5zm121.211 215.342l-123.79 116.053c-9.026 9.026-24.5 7.737-32.237-1.29L152 270.632c-9.026-9.027-9.026-23.211-1.289-32.237l1.289-1.29c9.026-9.026 23.211-9.026 32.237 0l46.421 47.711 107.026-100.579c10.316-6.448 24.5-5.158 32.237 5.158 7.737 10.316 7.737 23.21 1.29 30.947z" fill="#999" fill-rule="nonzero"/></svg>