<svg viewBox="0 0 500 500" xmlns="http://www.w3.org/2000/svg" fill-rule="evenodd" clip-rule="evenodd" stroke-linejoin="round" stroke-miterlimit="1.414"><path d="M106.707 483.714c-9.637 0-19.275-7.229-19.275-16.866v-2.41l26.504-149.384L7.921 209.04c-7.228-7.228-7.228-16.866 0-24.094 2.41-2.41 7.228-4.819 9.638-4.819l149.384-21.685 67.463-134.927c2.41-4.819 9.638-9.638 14.457-9.638 7.228 0 12.047 4.819 16.866 9.638l67.464 134.927 149.384 21.685c9.637 2.409 16.865 12.047 14.456 21.685 0 4.818-2.409 7.228-4.819 9.637L383.79 315.054l26.504 149.384c2.409 9.638-4.819 19.276-14.457 21.685-4.818 0-7.228 0-12.047-2.409l-134.927-72.283-132.518 69.873c-2.409 2.41-7.228 2.41-9.638 2.41z" fill="#98ce00" fill-rule="nonzero"/></svg>