<svg viewBox="0 0 500 500" xmlns="http://www.w3.org/2000/svg" fill-rule="evenodd" clip-rule="evenodd" stroke-linejoin="round" stroke-miterlimit="1.414"><path d="M392.163 487.089a18.146 18.146 0 0 1-8.467-2.177L249.91 414.753l-133.786 70.159a18.149 18.149 0 0 1-8.488 2.108c-9.954 0-18.145-8.191-18.145-18.145 0-1.031.088-2.06.262-3.075l25.645-149.028L7.982 211.292A18.151 18.151 0 0 1 2.5 198.296c0-9.013 6.716-16.729 15.643-17.971l149.511-21.774 67.014-135.479a18.164 18.164 0 0 1 15.242-10.161 18.168 18.168 0 0 1 16.209 10.161l67.014 135.479 149.753 21.774c8.462 1.678 14.614 9.171 14.614 17.798 0 4.978-2.049 9.744-5.662 13.169l-108.384 105.48L409.098 465.8c.186 1.046.279 2.106.279 3.169 0 9.603-7.623 17.628-17.214 18.12zM58.545 211.05l88.787 87.336a18.159 18.159 0 0 1 5.323 15.967l-21.048 121.448 109.835-57.579a18.155 18.155 0 0 1 16.935 0l109.835 57.579-21.531-122.174a18.157 18.157 0 0 1 5.564-15.241l88.788-87.336-122.658-17.903a18.16 18.16 0 0 1-13.79-9.919L249.91 71.941l-54.918 111.287a18.158 18.158 0 0 1-13.79 9.919L58.545 211.05z" fill="#9c0" fill-rule="nonzero"/></svg>