<svg viewBox="0 0 500 500" xmlns="http://www.w3.org/2000/svg" fill-rule="evenodd" clip-rule="evenodd" stroke-linejoin="round" stroke-miterlimit="1.414"><g fill="#9c0"><path d="M164.641 278.67h172.021v35.186H164.641zm0 66.463h172.021v35.186H164.641zm0-134.229h86.011v35.186h-86.011z"/><path d="M438.311 139.229c0-1.303 0-1.303-1.303-2.607v-1.303s0-1.303-1.303-1.303c-1.303-1.303-1.303-2.606-2.607-3.91L313.205 10.213c-1.303-1.303-2.607-2.607-3.91-2.607 0 0-1.303 0-1.303-1.303h-1.303c-1.303 0-1.303 0-2.607-1.303H111.21C83.843 5 61.689 27.154 61.689 54.521v390.958c0 27.367 22.154 49.521 49.521 49.521h277.58c27.367 0 49.521-22.154 49.521-49.521v-306.25zM318.418 64.947l61.25 61.25h-61.25v-61.25zm71.675 394.867H111.21c-7.819 0-14.335-6.516-14.335-14.335V54.521c0-7.819 6.516-14.335 14.335-14.335h172.021v86.011c0 19.548 15.639 33.883 33.883 33.883h86.011v285.399c0 7.819-5.213 14.335-13.032 14.335z" fill-rule="nonzero"/></g></svg>