<svg viewBox="0 0 500 500" xmlns="http://www.w3.org/2000/svg" fill-rule="evenodd" clip-rule="evenodd" stroke-linejoin="round" stroke-miterlimit="1.414"><g fill="#454545" fill-rule="nonzero"><path d="M250 125.988c-6.049 0-12.099 6.049-12.099 12.098v148.21c0 6.05 6.05 12.099 12.099 12.099s12.099-6.049 12.099-12.099v-148.21c0-6.049-6.05-12.098-12.099-12.098zm0 202.654c-6.049 0-12.099 6.049-12.099 12.099v24.197c0 6.05 6.05 12.099 12.099 12.099s12.099-6.049 12.099-12.099v-24.197c0-9.074-6.05-12.099-12.099-12.099z"/><path d="M250 5C113.889 5 5 113.889 5 250s108.889 245 245 245 245-108.889 245-245S383.086 5 250 5zm0 465.802c-120.988 0-220.802-99.814-220.802-220.802S129.012 29.198 250 29.198 470.802 129.012 470.802 250 370.988 470.802 250 470.802z"/></g></svg>