<svg viewBox="0 0 500 500" xmlns="http://www.w3.org/2000/svg" fill-rule="evenodd" clip-rule="evenodd" stroke-linejoin="round" stroke-miterlimit="1.414"><g fill="#d70000" fill-rule="nonzero"><path d="M250 159.529a10.884 10.884 0 0 0-10.929 10.929v137.225A10.883 10.883 0 0 0 250 318.612a10.883 10.883 0 0 0 10.929-10.929V170.458A10.884 10.884 0 0 0 250 159.529zm0 185.799a10.884 10.884 0 0 0-10.929 10.93v21.858c0 6.072 4.857 10.93 10.929 10.93a10.884 10.884 0 0 0 10.929-10.93v-21.858c0-6.072-4.857-10.93-10.929-10.93z"/><path d="M490.446 415.762L279.145 50.235C273.073 39.306 262.144 33.234 250 33.234c-12.144 0-23.073 6.072-29.145 17.001L9.554 415.762c-6.072 10.929-6.072 23.073 0 34.003 6.072 10.929 17.001 17.001 29.145 17.001h422.602c12.144 0 23.073-6.072 29.145-17.001 6.072-10.93 6.072-23.074 0-34.003zm-18.216 23.073c-1.214 2.429-4.857 6.072-10.929 6.072H38.699c-6.072 0-9.715-3.643-10.929-6.072-1.215-2.429-3.644-6.072 0-12.144L239.071 61.165c3.643-6.072 8.5-6.072 10.929-6.072 2.429 0 7.286 1.214 10.929 6.072L472.23 426.691c2.429 4.858 1.215 9.715 0 12.144z"/></g></svg>