<svg viewBox="0 0 500 500" xmlns="http://www.w3.org/2000/svg" fill-rule="evenodd" clip-rule="evenodd" stroke-linejoin="round" stroke-miterlimit="1.414"><g fill="#9c0" fill-rule="nonzero"><path d="M283.501 484.856l198.212-206.587c13.958-13.959 13.958-36.293 0-50.251L286.292 21.431c-11.167-13.959-33.5-13.959-47.459-2.792l-2.792 2.792c-13.958 13.958-13.958 36.292 0 50.25l170.295 181.462-170.295 178.67c-13.958 13.959-13.958 36.293 0 50.251 13.959 16.751 33.501 16.751 47.46 2.792 0 2.792 0 2.792 0 0z"/><path d="M65.746 479.273l198.213-206.588c13.958-13.958 13.958-36.292 0-50.251L68.538 15.847C57.371 1.888 35.037 1.888 21.079 13.055l-2.792 2.792c-13.958 13.959-13.958 36.292 0 50.251L188.582 247.56 18.287 426.23c-13.958 13.959-13.958 36.292 0 50.251 13.959 13.959 33.501 16.75 47.459 2.792 0 2.791 0 2.791 0 0z"/></g></svg>