<svg viewBox="0 0 500 500" xmlns="http://www.w3.org/2000/svg" fill-rule="evenodd" clip-rule="evenodd" stroke-linejoin="round" stroke-miterlimit="1.414"><g fill="#9c0" fill-rule="nonzero"><path d="M217.916 15.462l-198.08 206.45c-13.95 13.95-13.95 36.269 0 50.218l195.291 206.45c11.159 13.95 33.478 13.95 47.427 2.79l2.79-2.79c13.95-13.949 13.95-36.268 0-50.217L95.162 244.231 265.344 65.68c13.95-13.95 13.95-36.269 0-50.218-13.949-13.949-33.478-13.949-47.428 0 0-2.79 0-2.79 0 0z"/><path d="M435.526 21.042l-200.87 206.45c-13.95 13.949-13.95 36.268 0 50.218l195.291 206.45c11.159 13.949 33.478 13.949 47.427 2.79l2.79-2.79c13.95-13.949 13.95-36.268 0-50.218L309.982 252.601 480.164 74.049c13.95-13.949 13.95-36.268 0-50.217-11.159-16.74-30.688-16.74-44.638-2.79 0-2.79 0-2.79 0 0z"/></g></svg>