<svg viewBox="0 0 500 500" xmlns="http://www.w3.org/2000/svg" fill-rule="evenodd" clip-rule="evenodd" stroke-linejoin="round" stroke-miterlimit="1.414"><g fill="#9c0" fill-rule="nonzero"><path d="M422.753 76.956c-95.553-95.553-250.535-95.553-346.088 0-95.553 95.553-95.553 250.535 0 346.088 95.553 95.553 250.535 95.553 346.088 0C468.199 377.598 495 314.673 495 249.417c-1.165-64.09-26.801-127.015-72.247-172.461zm-18.645 328.609c-86.23 86.23-224.899 86.23-311.129 0-86.231-86.231-86.231-224.899 0-311.13 86.23-86.23 224.899-86.23 311.129 0 40.785 40.785 64.091 96.718 64.091 156.148 1.165 58.264-22.141 114.197-64.091 154.982z"/><path d="M345.844 273.888l-86.23-82.735a14.77 14.77 0 0 0-20.975 0l-86.231 81.57c-5.827 4.661-5.827 13.983-1.165 19.81l1.165 1.165a14.77 14.77 0 0 0 20.975 0l75.743-71.082 74.578 71.082a14.77 14.77 0 0 0 20.975 0c6.992-5.826 6.992-13.983 1.165-19.81 1.166 0 1.166 0 0 0z"/></g></svg>