<svg viewBox="0 0 500 500" xmlns="http://www.w3.org/2000/svg" fill-rule="evenodd" clip-rule="evenodd" stroke-linejoin="round" stroke-miterlimit="1.414"><path d="M432.638 118.904l.401.004.401.006.4.008.399.011.399.012.399.016.398.017.397.02.396.022.396.024.395.027.395.029.394.031.394.034.392.035.393.038.391.041.39.042.391.045.389.047.389.049.388.051.387.054.386.056.386.058.385.06.384.062.384.065.382.067.382.069.381.071.38.073.38.075.378.077.378.08.377.082.377.084.375.086.374.088.374.09.372.092.373.094.37.097.37.098.369.1.369.103.367.104.366.107.366.109.364.111.363.112.363.115.362.117.36.118.36.121.358.123.358.125.356.126.356.129.355.13.353.133.352.134.352.137.35.138.35.141.348.142.347.144.346.146.345.148.344.149.342.152.342.154.341.155.339.158.338.159.337.161.336.163.335.164.333.167.332.168.332.17.33.173.329.173.327.176.327.177.325.179.324.181.322.183.322.185.32.186.319.188.318.19.316.191.315.194.314.194.312.197.311.199.31.2.309.202.307.203.306.206.305.206.303.209.302.21.3.212.299.214.298.215.297.217.294.218.294.221.292.222.291.223.289.225.288.227.286.228.285.23.284.231.282.233.281.235.278.236.278.238.276.239.275.241.273.243.272.244.27.245.268.247.267.249.266.25.264.252.262.253.26.254.26.256.257.258.256.259.254.261.253.262.252.263.249.265.248.267.246.267.245.27.243.271.241.272.24.273.237.275.237.277.234.278.233.279.231.28.229.282.228.284.226.285.224.285.222.288.221.289.219.29.217.292.215.292.213.294.212.296.21.297.208.298.206.299.204.301.203.302.2.303.199.305.197.305.194.307.194.309.191.309.189.311.187.312.186.313.183.315.181.316.18.316.177.318.176.32.173.32.172.322.169.323.168.324.165.325.164.326.161.327.16.329.157.33.155.331.153.331.151.333.149.334.147.335.145.337.142.337.141.338.138.339.136.341.134.342.132.342.13.343.127.345.125.346.123.346.121.348.119.348.116.349.114.351.112.351.109.353.108.352.105.355.102.355.101.355.098.357.096.358.093.359.091.359.089.36.086.362.084.361.082.363.079.364.077.364.075.365.072.366.069.367.068.367.064.369.063.369.06.369.057.371.055.371.053.372.049.372.048.373.045.375.043.374.039.375.038.376.035.376.032.377.03.378.027.378.025.378.022.379.02.381.017.38.014.381.012.381.009.382.007.382.004.383.001.366v116.114l-.001.367-.004.383-.007.382-.009.381-.012.382-.014.381-.017.38-.02.381-.022.379-.025.378-.027.378-.03.378-.032.377-.035.376-.038.376-.039.375-.043.374-.045.375-.047.373-.05.372-.053.372-.055.371-.057.371-.06.369-.063.369-.064.369-.068.367-.069.367-.072.366-.075.365-.077.364-.079.363-.082.364-.084.361-.086.362-.089.36-.091.359-.093.359-.096.358-.098.356-.101.356-.102.355-.105.355-.108.352-.109.353-.112.351-.114.351-.116.349-.119.348-.121.348-.123.346-.125.346-.127.344-.13.344-.132.342-.134.342-.136.34-.138.34-.141.338-.142.337-.145.337-.147.335-.149.334-.151.333-.153.331-.155.331-.157.33-.16.329-.161.327-.163.326-.166.325-.168.325-.169.322-.172.322-.173.32-.176.32-.177.318-.18.316-.181.316-.183.314-.186.314-.187.312-.189.311-.191.309-.193.309-.195.307-.197.305-.199.305-.2.303-.203.302-.204.301-.206.299-.208.298-.21.297-.212.296-.213.294-.215.293-.217.291-.219.29-.221.289-.222.287-.224.286-.226.285-.228.284-.229.282-.231.28-.233.279-.234.278-.237.277-.238.275-.239.273-.241.272-.243.271-.245.269-.246.269-.248.266-.249.265-.252.264-.253.261-.253.26-.256.26-.258.258-.26.256-.26.254-.263.253-.263.252-.266.25-.267.249-.268.246-.27.246-.272.244-.273.243-.275.241-.276.239-.278.238-.279.236-.28.234-.282.234-.284.231-.285.23-.286.228-.288.227-.289.225-.291.223-.292.222-.294.221-.295.218-.296.217-.298.215-.299.214-.3.212-.302.21-.303.209-.305.206-.306.206-.307.203-.309.202-.309.2-.312.199-.312.197-.314.194-.315.194-.316.191-.318.19-.319.188-.32.186-.322.185-.322.183-.324.18-.325.18-.327.177-.328.176-.328.173-.33.173-.332.17-.332.168-.333.167-.335.164-.336.163-.337.161-.338.159-.34.158-.34.155-.341.154-.343.151-.344.15-.345.148-.346.146-.347.144-.348.142-.35.141-.35.138-.352.137-.352.134-.353.132-.355.131-.356.129-.356.126-.358.125-.358.123-.36.12-.361.119-.361.117-.362.115-.364.112-.364.111-.366.109-.366.106-.367.105-.369.103-.369.1-.37.098-.371.097-.371.094-.373.092-.374.09-.374.088-.375.086-.377.084-.377.082-.377.079-.379.078-.38.075-.38.073-.381.071-.382.069-.382.067-.384.065-.384.062-.385.06-.386.058-.386.056-.387.053-.388.052-.389.049-.389.047-.39.045-.391.042-.391.041-.393.038-.393.035-.393.034-.394.031-.395.029-.395.027-.396.024-.397.022-.397.02-.397.017-.399.016-.399.012-.399.011-.4.008-.4.006-.402.004-.387.001h-77.13v-20.294h77.101l.297-.001.282-.002.282-.004.282-.006.28-.008.28-.009.28-.01.279-.013.278-.013.278-.016.277-.017.277-.019.276-.02.276-.022.275-.023.274-.025.274-.027.274-.028.272-.029.273-.032.271-.032.271-.035.27-.036.27-.037.27-.039.268-.04.268-.042.267-.043.266-.045.267-.047.265-.048.264-.049.265-.051.263-.052.263-.054.262-.055.261-.057.261-.058.26-.059.26-.061.258-.063.258-.063.258-.066.257-.066.256-.068.255-.07.254-.071.254-.072.253-.074.252-.075.252-.076.251-.078.25-.079.25-.081.248-.081.248-.084.248-.084.246-.086.245-.088.245-.088.244-.09.244-.091.242-.093.242-.094.24-.095.241-.096.239-.098.238-.099.238-.1.237-.102.236-.102.235-.104.234-.106.234-.107.232-.107.232-.11.231-.11.23-.111.229-.113.228-.114.228-.115.226-.117.226-.117.225-.119.223-.12.223-.121.222-.122.221-.124.22-.125.22-.125.218-.127.217-.128.216-.13.216-.13.214-.132.214-.132.212-.134.212-.135.211-.136.209-.137.209-.138.207-.14.207-.14.206-.142.204-.142.203-.143.203-.145.202-.146.2-.147.2-.148.198-.148.197-.15.197-.151.195-.152.194-.153.193-.154.193-.155.19-.155.19-.157.189-.158.188-.159.186-.16.186-.161.184-.162.184-.162.181-.164.181-.164.181-.166.178-.166.178-.168.177-.168.175-.169.174-.17.173-.171.171-.172.171-.173.17-.174.169-.174.166-.175.166-.177.165-.177.164-.177.162-.179.161-.18.16-.18.159-.182.158-.182.156-.183.155-.183.154-.185.152-.185.152-.186.15-.187.148-.188.148-.188.147-.19.145-.189.143-.191.143-.191.141-.193.14-.193.139-.193.137-.194.136-.196.135-.195.134-.197.132-.197.131-.198.129-.199.129-.199.126-.2.126-.201.124-.201.123-.202.122-.203.12-.203.119-.204.118-.204.116-.206.115-.205.113-.207.113-.207.11-.207.11-.209.108-.209.106-.209.106-.211.104-.21.102-.212.101-.212.1-.212.098-.213.097-.214.096-.214.094-.215.092-.215.092-.216.09-.217.088-.217.087-.217.086-.218.084-.219.082-.219.082-.219.079-.221.079-.221.077-.221.075-.222.074-.222.073-.223.071-.223.069-.224.069-.224.066-.225.065-.225.064-.226.062-.226.061-.227.059-.227.058-.228.056-.229.055-.228.053-.229.052-.23.05-.23.049-.231.047-.231.045-.231.044-.232.043-.233.041-.232.039-.234.038-.234.036-.234.035-.235.033-.235.032-.235.03-.237.029-.236.026-.237.026-.238.023-.237.023-.239.02-.238.019-.239.017-.24.016-.24.014-.241.012-.241.011-.241.009-.242.008-.242.006-.243.004-.243.002-.244.001-.261V177.772l-.001-.261-.002-.244-.004-.243-.006-.243-.008-.242-.009-.242-.011-.241-.012-.241-.014-.241-.016-.24-.017-.24-.019-.239-.02-.238-.023-.239-.023-.237-.026-.238-.026-.237-.029-.236-.03-.237-.032-.235-.033-.235-.035-.235-.036-.234-.038-.234-.039-.234-.041-.232-.043-.233-.044-.232-.045-.231-.047-.231-.049-.231-.05-.23-.052-.23-.053-.229-.055-.228-.056-.229-.058-.228-.059-.227-.061-.227-.062-.226-.064-.226-.065-.225-.066-.225-.069-.224-.069-.224-.071-.223-.073-.223-.074-.222-.075-.222-.077-.221-.079-.221-.079-.221-.082-.219-.082-.219-.084-.219-.086-.218-.087-.217-.088-.218-.09-.216-.092-.216-.092-.215-.094-.215-.096-.214-.097-.214-.098-.213-.1-.213-.101-.211-.102-.212-.104-.21-.106-.211-.106-.209-.108-.209-.11-.209-.11-.207-.113-.207-.113-.207-.115-.206-.116-.205-.118-.204-.119-.204-.12-.204-.122-.202-.123-.202-.124-.201-.125-.201-.127-.2-.129-.199-.13-.199-.13-.198-.132-.197-.134-.197-.135-.195-.136-.196-.137-.194-.139-.193-.14-.194-.141-.192-.143-.191-.143-.191-.145-.19-.147-.189-.147-.188-.149-.188-.15-.187-.152-.186-.152-.185-.154-.185-.155-.183-.156-.183-.158-.182-.159-.182-.16-.18-.161-.18-.162-.178-.164-.178-.165-.177-.166-.177-.167-.175-.168-.174-.17-.174-.17-.173-.172-.172-.173-.171-.174-.17-.176-.169-.176-.168-.178-.168-.178-.166-.181-.166-.181-.164-.181-.164-.184-.162-.184-.162-.186-.161-.186-.16-.188-.159-.189-.158-.19-.156-.191-.156-.192-.155-.193-.154-.194-.153-.195-.152-.197-.151-.197-.15-.198-.149-.2-.148-.2-.146-.202-.146-.202-.145-.204-.143-.204-.143-.206-.141-.207-.141-.207-.139-.209-.138-.209-.137-.211-.136-.212-.135-.212-.134-.214-.132-.214-.132-.216-.13-.216-.13-.217-.128-.218-.127-.22-.126-.22-.124-.221-.124-.222-.122-.223-.121-.224-.12-.224-.119-.226-.117-.226-.117-.228-.115-.228-.114-.229-.113-.23-.111-.231-.111-.232-.109-.232-.108-.234-.106-.234-.106-.235-.103-.236-.103-.237-.102-.238-.1-.238-.099-.239-.098-.24-.096-.241-.095-.242-.094-.242-.093-.244-.091-.244-.09-.245-.088-.245-.088-.247-.086-.247-.084-.248-.084-.248-.081-.25-.081-.25-.079-.251-.078-.252-.076-.252-.075-.253-.074-.254-.072-.254-.071-.255-.07-.257-.068-.256-.066-.257-.066-.259-.063-.258-.063-.26-.061-.26-.059-.261-.059-.261-.056-.262-.055-.263-.054-.263-.052-.264-.051-.265-.05-.266-.047-.265-.047-.267-.045-.267-.043-.268-.042-.269-.04-.269-.039-.27-.038-.27-.035-.271-.035-.271-.032-.272-.032-.273-.029-.274-.028-.273-.027-.275-.025-.275-.023-.276-.022-.276-.02-.277-.019-.277-.017-.278-.016-.278-.014-.279-.012-.28-.01-.28-.009-.281-.008-.281-.006-.281-.004-.283-.002-.297-.001H67.778l-.297.001-.283.002-.281.004-.281.006-.281.008-.28.009-.28.01-.279.012-.278.014-.278.016-.277.017-.277.019-.276.02-.276.022-.275.023-.275.025-.273.027-.274.028-.273.029-.272.032-.271.032-.271.035-.27.035-.27.038-.269.039-.269.04-.268.042-.267.043-.267.045-.266.047-.265.047-.265.05-.264.051-.263.052-.263.054-.262.055-.261.056-.261.059-.26.059-.26.061-.259.063-.258.063-.257.066-.256.066-.256.068-.256.07-.254.071-.254.072-.253.074-.252.075-.252.076-.251.078-.25.079-.25.081-.248.081-.248.084-.247.084-.247.086-.245.088-.245.088-.244.09-.244.091-.242.093-.242.094-.241.095-.24.096-.239.098-.238.099-.238.1-.237.102-.236.102-.235.105-.234.105-.234.106-.232.108-.232.109-.231.111-.23.111-.229.113-.228.114-.228.115-.226.116-.226.118-.225.119-.223.12-.223.121-.222.122-.221.124-.22.124-.22.126-.218.127-.217.128-.216.13-.216.13-.215.132-.213.132-.212.134-.212.135-.21.136-.21.137-.209.138-.207.14-.207.14-.206.141-.204.143-.204.144-.202.144-.202.146-.2.147-.2.147-.198.149-.197.15-.197.151-.195.152-.194.153-.193.154-.192.154-.191.157-.19.156-.189.158-.188.159-.186.16-.186.161-.184.162-.183.162-.183.164-.181.164-.18.166-.178.166-.178.168-.176.168-.176.169-.174.17-.173.171-.172.172-.17.173-.17.173-.168.175-.168.175-.165.177-.165.177-.164.178-.162.178-.161.18-.16.18-.159.182-.158.182-.156.183-.155.183-.154.185-.152.185-.152.186-.15.187-.149.188-.147.188-.146.189-.146.19-.143.191-.143.191-.141.193-.14.193-.139.193-.137.194-.136.196-.135.195-.134.197-.132.197-.131.198-.129.199-.129.199-.126.2-.126.2-.124.202-.123.202-.122.202-.12.204-.119.204-.118.204-.116.205-.115.206-.113.207-.112.207-.111.208-.11.208-.108.209-.106.209-.106.211-.103.21-.103.212-.101.212-.1.212-.098.213-.097.214-.096.214-.094.215-.092.215-.092.216-.09.216-.088.218-.087.217-.086.218-.084.219-.082.219-.082.22-.079.22-.079.221-.077.221-.075.222-.074.222-.073.223-.071.223-.069.224-.069.224-.066.225-.065.225-.064.226-.062.226-.061.227-.059.227-.058.228-.056.228-.055.229-.053.229-.052.23-.05.23-.049.231-.047.231-.045.231-.044.232-.043.233-.041.232-.039.234-.038.234-.036.234-.035.235-.033.235-.032.235-.03.236-.029.237-.026.237-.026.237-.023.238-.023.239-.02.238-.019.24-.017.239-.016.24-.014.241-.012.241-.011.241-.009.242-.008.242-.006.243-.004.243-.002.244-.001.261v116.045l.001.261.002.244.004.243.006.243.008.242.009.242.011.241.012.241.014.241.016.24.017.239.019.24.02.238.023.239.023.238.026.237.026.237.029.236.03.237.032.235.033.235.035.235.036.234.038.234.039.233.041.233.043.233.044.232.045.231.047.231.049.231.05.23.052.23.053.229.055.229.056.228.058.228.059.227.061.227.062.226.064.226.065.225.066.225.069.224.069.224.071.223.073.223.074.222.075.222.077.221.079.221.079.22.082.22.082.219.084.219.086.218.087.217.088.217.09.217.092.216.092.215.094.215.096.214.097.214.098.213.1.212.101.212.103.212.103.21.106.211.106.209.108.209.11.208.111.208.112.207.113.207.115.205.116.206.118.204.119.204.12.204.122.202.123.202.124.202.126.2.126.2.129.199.129.199.131.198.132.197.134.197.135.195.136.195.137.195.139.194.14.192.141.192.143.192.143.191.145.189.147.19.147.188.149.188.15.187.152.186.152.185.154.185.155.183.156.183.158.182.159.182.16.18.161.18.162.179.164.177.165.177.165.177.167.175.169.174.17.174.17.173.172.172.173.171.174.17.175.169.177.168.178.168.178.166.18.166.181.164.182.164.184.163.184.161.186.161.186.16.188.159.189.158.19.157.191.155.192.155.193.154.194.153.195.152.197.151.197.15.198.149.2.147.2.147.202.146.202.145.204.143.204.142.206.142.207.14.207.14.209.138.21.137.21.136.212.135.212.134.214.132.214.132.216.13.216.13.217.128.218.127.22.125.22.125.221.124.222.122.223.121.223.22.225.119.226.117.226.117.228.115.228.114.229.113.23.111.231.111.232.109.232.107.234.107.234.106.235.104.236.102.237.102.238.1.238.099.239.098.241.096.24.095.242.094.242.093.244.091.244.09.245.088.245.088.247.086.247.084.248.084.248.081.25.081.25.079.251.078.252.076.252.075.253.074.254.072.254.071.256.07.255.068.257.066.258.066.258.063.258.063.26.061.26.059.261.058.261.057.262.055.263.054.263.052.265.051.264.049.265.048.267.047.266.045.267.043.268.042.268.04.27.039.27.037.27.036.271.035.271.032.273.032.272.029.274.028.274.027.274.025.275.023.276.022.276.02.277.019.277.017.278.016.278.013.279.013.28.01.28.009.28.008.282.006.282.004.282.002.297.001h67.36v20.294H67.749l-.387-.001-.402-.004-.4-.006-.4-.008-.399-.011-.399-.012-.399-.016-.397-.017-.397-.02-.397-.022-.396-.024-.395-.027-.395-.029-.394-.031-.393-.034-.393-.035-.393-.038-.391-.041-.391-.042-.39-.045-.389-.047-.389-.049-.388-.052-.387-.053-.386-.056-.386-.058-.385-.06-.384-.062-.384-.065-.382-.067-.382-.069-.381-.071-.38-.073-.38-.075-.379-.078-.377-.079-.377-.082-.377-.084-.375-.086-.374-.088-.374-.09-.373-.092-.371-.094-.371-.097-.37-.098-.369-.1-.368-.103-.368-.105-.366-.106-.366-.109-.364-.111-.364-.112-.362-.115-.361-.117-.361-.119-.36-.12-.358-.123-.358-.125-.356-.126-.356-.129-.355-.131-.353-.132-.352-.134-.352-.137-.35-.138-.35-.141-.348-.142-.347-.144-.346-.146-.345-.148-.344-.15-.343-.151-.341-.154-.34-.155-.34-.158-.338-.159-.337-.161-.336-.163-.335-.164-.333-.167-.333-.168-.331-.17-.33-.173-.328-.173-.328-.176-.327-.177-.325-.18-.324-.18-.322-.183-.322-.185-.32-.186-.319-.188-.318-.19-.316-.191-.315-.194-.314-.195-.312-.196-.312-.199-.309-.2-.309-.202-.307-.203-.306-.206-.304-.206-.304-.209-.302-.21-.3-.212-.299-.214-.298-.215-.296-.217-.295-.219-.294-.22-.292-.222-.291-.223-.289-.225-.288-.227-.286-.228-.285-.23-.284-.231-.282-.233-.28-.235-.279-.236-.278-.238-.276-.239-.275-.241-.273-.243-.272-.244-.27-.245-.268-.247-.267-.249-.266-.25-.263-.251-.263-.254-.26-.254-.26-.256-.258-.258-.255-.259-.255-.261-.252-.262-.252-.263-.249-.265-.248-.267-.246-.268-.245-.269-.243-.271-.241-.272-.24-.273-.237-.275-.237-.277-.234-.278-.233-.279-.231-.28-.229-.282-.228-.284-.226-.285-.224-.286-.222-.287-.221-.289-.219-.29-.217-.291-.215-.293-.213-.295-.212-.295-.21-.297-.208-.298-.206-.299-.204-.301-.203-.302-.2-.303-.199-.305-.197-.305-.195-.308-.193-.308-.191-.309-.189-.311-.187-.312-.186-.314-.183-.314-.181-.316-.18-.316-.177-.319-.176-.319-.173-.32-.172-.322-.169-.323-.168-.324-.165-.325-.164-.326-.161-.327-.16-.329-.157-.329-.155-.331-.153-.332-.151-.333-.149-.334-.147-.335-.145-.337-.142-.337-.141-.338-.138-.34-.136-.34-.134-.341-.132-.343-.13-.344-.127-.344-.125-.346-.123-.346-.121-.347-.119-.349-.116-.349-.114-.351-.112-.351-.109-.352-.108-.354-.105-.354-.102-.355-.101-.356-.098-.356-.096-.358-.093-.359-.091-.359-.089-.36-.086-.361-.084-.362-.082-.363-.079-.364-.077-.364-.075-.365-.072-.366-.069-.367-.068-.368-.064-.368-.063-.369-.06-.369-.057-.371-.055-.371-.053-.372-.05-.372-.047-.373-.045-.374-.043-.375-.039-.375-.038-.376-.035-.376-.032-.377-.03-.378-.027-.378-.025-.378-.022-.38-.02-.38-.017-.38-.014-.381-.012-.381-.009-.382-.007-.383-.004-.382-.001-.366V177.737l.001-.366.004-.382.007-.383.009-.382.012-.381.014-.381.017-.38.02-.38.022-.38.025-.378.027-.378.03-.378.032-.377.035-.376.038-.376.039-.375.043-.375.045-.374.048-.373.049-.372.053-.372.055-.371.057-.371.06-.369.063-.369.064-.369.068-.367.069-.367.072-.366.075-.365.077-.364.079-.364.082-.363.084-.362.086-.361.089-.36.091-.359.093-.359.096-.358.098-.356.101-.356.102-.355.105-.355.108-.353.109-.352.112-.351.114-.351.116-.349.119-.349.121-.347.123-.346.125-.346.127-.345.13-.343.132-.343.134-.341.136-.34.138-.34.141-.338.142-.338.145-.336.147-.335.149-.334.151-.333.153-.332.155-.33.157-.33.16-.329.161-.327.164-.326.165-.325.168-.324.169-.323.172-.322.173-.32.176-.32.177-.318.18-.316.181-.316.183-.315.186-.313.187-.312.189-.311.191-.309.193-.309.195-.307.197-.305.199-.305.2-.303.203-.302.204-.301.206-.299.208-.298.21-.297.212-.296.213-.294.215-.292.217-.292.219-.29.221-.289.222-.287.224-.287.226-.284.228-.284.229-.282.231-.28.233-.279.234-.278.237-.277.237-.275.24-.273.241-.272.243-.271.245-.27.246-.267.248-.267.249-.265.252-.263.252-.262.255-.261.256-.259.257-.258.26-.256.26-.254.263-.253.263-.252.266-.25.267-.249.268-.247.27-.245.272-.244.273-.243.275-.241.276-.239.278-.238.279-.236.28-.235.282-.233.284-.231.285-.23.286-.228.288-.227.289-.225.291-.223.292-.222.294-.22.295-.219.296-.217.298-.215.299-.214.3-.212.302-.21.303-.209.305-.206.306-.206.307-.203.309-.202.31-.2.311-.199.312-.196.314-.196.315-.193.316-.191.318-.19.319-.188.32-.186.322-.185.322-.183.324-.181.325-.179.327-.177.327-.176.329-.174.33-.172.331-.17.333-.168.333-.167.335-.164.336-.163.337-.161.338-.159.339-.158.341-.155.342-.154.342-.151.344-.15.345-.148.346-.146.347-.144.348-.143.35-.14.35-.138.352-.137.352-.134.353-.133.355-.13.356-.129.356-.126.358-.125.358-.123.36-.121.36-.118.362-.117.363-.115.363-.112.364-.111.366-.109.366-.106.368-.105.368-.103.369-.1.37-.098.37-.097.373-.094.372-.092.374-.09.374-.088.375-.086.377-.084.377-.082.378-.08.378-.077.38-.075.38-.073.381-.071.382-.069.382-.067.384-.065.384-.062.385-.06.386-.058.386-.056.387-.054.388-.051.389-.049.389-.047.391-.045.39-.042.391-.041.393-.038.392-.035.394-.034.394-.031.395-.029.395-.027.396-.024.396-.022.397-.02.398-.017.399-.016.399-.012.399-.011.4-.008.401-.006.401-.004.386-.001h364.504l.386.001z" fill="#9c0"/><path d="M390.838 240.259H101.045c-8.118 0-16.235 5.682-17.858 13.8-1.624 9.741 6.493 18.67 16.234 18.67h25.976v-1.624c0-8.929 5.682-16.235 12.176-16.235h215.924c6.494 0 12.177 7.306 12.177 16.235v1.624h24.352c8.117 0 16.235-5.682 17.858-13.8.812-9.741-6.494-18.67-17.046-18.67z" fill="#9c0" fill-rule="nonzero"/><path d="M155.432 433.454h178.584c4.87 0 8.929-4.058 8.929-8.929V249.188H146.503v175.337c0 4.871 4.058 8.929 8.929 8.929zm34.093-159.913h55.199v22.728h-55.199v-22.728zm0 43.022h110.397v22.729H189.525v-22.729zm0 43.022h110.397v22.729H189.525v-22.729z" fill="none"/><path fill="#9c0" d="M189.525 316.563h110.397v22.729H189.525zm0 43.022h110.397v22.729H189.525zm0-86.044h55.199v22.729h-55.199z"/><path d="M366.485 302.763v-53.575h-22.729v175.337c0 4.871-4.058 8.929-8.929 8.929H156.244c-4.871 0-8.93-4.058-8.93-8.929V249.188h-23.54v175.337c0 17.858 14.611 31.658 31.658 31.658h178.584c17.858 0 31.658-14.611 31.658-31.658l.811-121.762M337.263 43.817H156.244c-17.859 0-31.659 14.611-31.659 31.658l.812 51.952h21.917l.812-51.952c0-4.871 4.059-8.929 8.929-8.929h180.208c4.87 0 8.929 4.058 8.929 8.929v53.575h22.729V75.475c0-17.047-14.612-31.658-31.658-31.658z" fill="#9c0" fill-rule="nonzero"/></svg>