<svg viewBox="0 0 500 500" xmlns="http://www.w3.org/2000/svg" fill-rule="evenodd" clip-rule="evenodd" stroke-linejoin="round" stroke-miterlimit="1.414"><path d="M234.898 38.695c-5.542 2.764-8.314 5.53-13.861 13.833L7.416 420.633c-5.553 13.841-2.8 30.46 13.807 38.785 5.536 2.775 8.303 5.548 13.841 5.553l429.251.443c13.847.014 27.708-13.819 30.492-27.663.005-5.538-2.758-11.08-5.525-13.852L273.657 49.813c-8.293-13.856-27.673-19.414-38.759-11.118zM250 326.919c-5.698 0-11.395 5.697-11.395 11.395v22.791c0 5.697 5.697 11.395 11.395 11.395h.067c5.675-.044 11.328-5.72 11.328-11.395v-22.791c0-5.675-5.653-11.351-11.328-11.395H250zm0-196.57c-5.698 0-11.395 5.698-11.395 11.395v145.291c0 5.698 5.697 11.395 11.395 11.395h.067c5.675-.044 11.328-5.72 11.328-11.395V141.744c0-5.675-5.653-11.351-11.328-11.395H250z" fill="#9c0"/></svg>