<svg viewBox="0 0 500 500" xmlns="http://www.w3.org/2000/svg" fill-rule="evenodd" clip-rule="evenodd" stroke-linejoin="round" stroke-miterlimit="1.414"><path d="M250 5C116.105 5 5 116.105 5 250c0 133.895 111.105 245 245 245 133.895 0 245-111.105 245-245C492.151 113.256 383.895 5 250 5zm11.395 356.105c0 5.697-5.697 11.395-11.395 11.395-5.698 0-11.395-5.698-11.395-11.395v-22.791c0-5.698 5.697-11.395 11.395-11.395 5.698 0 11.395 5.697 11.395 11.395v22.791zm0-74.07c0 5.698-5.697 11.395-11.395 11.395-5.698 0-11.395-5.697-11.395-11.395V141.744c0-5.697 5.697-11.395 11.395-11.395 5.698 0 11.395 5.698 11.395 11.395v145.291z" fill="#9c0" fill-rule="nonzero"/></svg>