<svg viewBox="0 0 500 500" xmlns="http://www.w3.org/2000/svg" fill-rule="evenodd" clip-rule="evenodd" stroke-linejoin="round" stroke-miterlimit="1.414"><g fill="#9c0"><path d="M194.922 462.08l-143.074-1.266c-10.13 0-17.727-7.597-17.727-17.726V56.912c0-10.129 7.597-17.726 17.727-17.726h194.987v64.574c0 16.46 13.927 30.387 30.387 30.387h64.574v174.729c0 7.597 6.331 13.928 13.928 13.928 7.596 0 13.927-6.331 13.927-13.928V102.494c0-3.799-1.266-7.597-3.798-10.13L291.15 15.129c-2.532-2.532-6.331-3.798-10.129-3.798H51.848C26.525 11.331 5 31.589 5 58.178v384.91c0 25.323 20.258 45.581 46.848 45.581h143.074v-1.266c6.331-3.798 10.13-11.395 6.331-18.992-1.266-3.799-3.798-5.065-6.331-6.331zm79.768-358.32V45.517l60.775 60.775h-59.509s-1.266-1.266-1.266-2.532z" fill-rule="nonzero" stroke="#9c0"/><path d="M279.755 249.367c-3.799-7.597-12.662-11.395-27.856-11.395-7.597 0-16.46 0-25.323 2.532-13.927-15.194-27.855-35.452-37.984-56.977 11.395-46.847 2.532-56.977 0-60.775-3.799-3.799-8.863-6.331-13.928-6.331-2.532 0-3.798 0-6.331 1.266-6.33 1.266-10.129 6.331-12.661 12.662-5.065 11.395-1.266 31.654 10.129 56.977-6.331 26.589-17.726 58.242-30.388 83.565-32.919 15.194-48.113 29.122-50.646 44.316 0 5.064 0 13.927 11.396 22.79 2.532 2.533 6.331 3.799 10.129 3.799 8.863 0 17.726-6.331 26.589-18.992 6.331-8.863 12.662-20.259 18.992-34.186 20.259-8.863 45.582-16.46 67.106-21.525 12.662 12.662 25.323 17.726 35.453 17.726 8.863 0 16.459-3.798 21.524-11.395 7.597-11.396 6.331-18.992 3.799-24.057zm-174.729 73.437c-3.799-2.533-3.799-5.065-3.799-5.065 0-3.798 7.597-12.661 25.323-22.791-12.661 24.057-20.258 26.589-21.524 27.856zm65.84-186.124c0-1.267 1.266-1.267 0 0 2.532 0 3.798 7.596 1.266 25.323-2.533-11.396-3.799-20.259-1.266-25.323zm-15.194 129.147c7.597-20.259 16.46-41.783 21.524-62.041 8.863 16.459 20.259 32.919 31.654 45.581-17.726 3.798-36.718 10.129-53.178 16.46zm106.356-3.799c-2.532 3.799-5.064 3.799-6.33 3.799-3.799 0-10.13-2.532-16.46-7.597 5.064 0 10.129-1.266 13.927-1.266 7.597 0 10.13 1.266 11.396 1.266-1.266 1.266-1.266 2.532-2.533 3.798zm-30.387 93.696c0-2.533 2.532-3.799 5.064-3.799h32.92c20.259 0 36.719 10.129 36.719 37.985v1.266c0 27.855-16.46 37.984-36.719 37.984h-25.323v48.114c0 2.532-2.532 5.065-6.33 5.065-2.533 0-6.331-1.267-6.331-5.065v-121.55zm12.661 6.33v55.711h25.323c15.194 0 25.323-8.863 25.323-26.589v-2.533c0-18.992-8.863-26.589-25.323-26.589h-25.323zm117.752-10.129c20.259 0 36.719 10.129 36.719 37.985v53.178c0 27.855-16.46 37.984-36.719 37.984h-31.653c-3.799 0-5.065-2.532-5.065-3.798V356.99c0-2.533 2.532-3.799 5.065-3.799h31.653v-1.266zm-25.323 10.129v107.623h25.323c15.194 0 25.323-8.863 25.323-26.589V389.91c0-18.993-10.129-26.59-25.323-26.59h-25.323v-1.266zm87.365-6.33c0-2.533 2.532-3.799 5.064-3.799h62.042c2.532 0 3.798 2.532 3.798 5.065 0 2.532-1.266 5.064-3.798 5.064h-55.711v48.114h27.855c2.533 0 3.799 2.532 3.799 5.065 0 2.532-1.266 5.064-3.799 5.064h-27.855v55.711c0 2.532-2.532 3.798-6.331 3.798-2.532 0-6.331-1.266-6.331-3.798V355.724h1.267z" fill-rule="nonzero" stroke="#9c0"/><path d="M231.641 355.724c0-2.533 2.532-3.799 5.064-3.799h32.92c20.259 0 36.719 10.129 36.719 37.985v1.266c0 27.855-16.46 37.984-36.719 37.984h-25.323v48.114c0 2.532-2.532 5.065-6.33 5.065-2.533 0-6.331-1.267-6.331-5.065v-121.55zm12.661 6.33v55.711h25.323c15.194 0 25.323-8.863 25.323-26.589v-2.533c0-18.992-8.863-26.589-25.323-26.589h-25.323z" fill-rule="nonzero"/><path d="M269.887 345.595l.524.004.522.008.522.013.521.016.52.021.519.025.517.03.517.034.516.038.515.043.513.047.513.052.511.057.51.061.509.065.507.071.253.037.506.077.503.083.503.087.251.045.5.095.25.049.249.05.249.052.248.053.248.054.248.055.247.057.247.058.246.059.246.061.246.062.245.063.245.065.244.065.243.067.244.069.243.07.242.071.241.072.242.074.241.075.24.077.24.078.239.079.239.081.239.082.237.083.237.085.237.086.236.088.236.089.235.091.234.092.234.093.233.095.233.096.232.098.231.099.231.1.23.102.229.104.229.105.229.107.227.108.227.109.226.111.225.113.225.114.224.115.223.117.223.119.222.12.221.121.22.123.219.125.219.126.218.128.217.129.216.131.216.132.214.134.214.136.213.137.212.138.212.141.21.141.21.144.208.145.207.146.207.148.206.15.205.151.203.153.203.154.202.156.201.158.2.159.198.16.199.163.196.164.196.165.194.167.194.169.193.17.191.172.19.173.189.176.188.176.187.178.186.18.184.181.184.183.182.185.181.186.18.188.178.189.178.191.176.192.175.194.174.196.172.197.171.199.17.199.168.202.168.204.166.205.164.206.164.208.162.209.16.211.159.213.159.214.156.215.155.217.154.219.152.22.151.222.15.223.148.224.147.226.145.228.144.229.142.23.141.232.14.234.138.235.137.236.135.238.133.239.133.241.13.242.13.244.127.244.127.247.124.248.123.249.122.251.12.252.119.254.117.254.116.257.114.258.112.259.111.261.11.262.108.263.106.265.105.266.103.267.102.269.1.27.098.272.097.273.096.274.094.276.092.277.091.279.089.279.088.281.086.283.084.284.083.285.081.287.08.288.078.289.077.291.075.292.073.293.072.295.07.296.069.297.066.299.066.3.064.301.062.303.061.304.059.305.057.307.056.309.054.309.053.311.051.312.049.313.048.315.046.317.045.317.043.319.041.321.04.321.038.323.037.325.035.326.033.326.032.329.03.33.028.331.027.333.026.334.023.335.022.337.021.338.018.34.018.341.015.342.014.344.012.344.011.347.009.348.007.349.006.351.004.352.003.354v1.976l-.003.353-.004.352-.006.351-.007.349-.009.348-.011.347-.012.345-.014.343-.015.343-.018.341-.018.339-.021.338-.022.337-.023.336-.026.334-.027.332-.028.331-.03.33-.032.329-.033.327-.035.326-.037.324-.038.323-.04.322-.041.32-.043.319-.045.318-.046.316-.048.315-.049.313-.051.312-.053.311-.054.31-.056.308-.057.307-.059.305-.061.304-.062.303-.064.302-.066.3-.066.298-.069.298-.07.296-.072.294-.073.294-.075.292-.077.29-.078.289-.08.288-.081.287-.083.285-.084.284-.086.283-.088.281-.089.279-.091.279-.092.277-.094.276-.096.274-.097.273-.098.272-.1.27-.102.269-.103.267-.105.267-.106.264-.108.264-.11.262-.111.26-.112.259-.114.258-.116.257-.117.255-.119.253-.12.252-.122.251-.123.249-.124.248-.127.247-.127.245-.13.243-.13.242-.133.241-.133.239-.135.238-.137.237-.138.235-.14.233-.141.232-.142.23-.144.229-.145.228-.147.226-.148.225-.15.223-.151.221-.152.22-.154.219-.155.217-.156.215-.158.214-.16.213-.16.211-.162.209-.164.208-.164.207-.166.204-.168.204-.168.202-.17.2-.171.198-.172.198-.174.195-.175.194-.176.192-.178.191-.178.189-.18.188-.181.186-.182.185-.184.183-.184.181-.186.18-.187.178-.188.177-.189.175-.19.173-.191.172-.193.17-.194.169-.194.167-.196.166-.197.163-.198.163-.198.161-.2.159-.201.157-.202.156-.203.155-.203.152-.205.152-.206.149-.207.148-.207.147-.208.145-.21.143-.21.142-.212.14-.212.139-.213.137-.214.135-.214.134-.216.132-.216.131-.217.129-.218.128-.219.126-.219.125-.22.123-.221.122-.222.12-.223.118-.223.117-.224.116-.225.114-.225.112-.226.111-.227.11-.228.108-.228.106-.228.105-.23.104-.23.102-.231.1-.231.1-.232.097-.233.097-.233.094-.234.094-.234.092-.235.09-.236.089-.236.088-.237.086-.237.085-.237.083-.239.083-.238.08-.24.08-.24.077-.24.077-.241.075-.242.074-.241.072-.242.072-.243.069-.244.069-.244.067-.244.066-.244.064-.246.064-.244.061-.246.061-.247.059-.247.058-.247.057-.247.055-.249.054-.248.053-.249.052-.249.05-.249.049-.251.048-.25.047-.251.045-.251.045-.252.043-.251.041-.252.041-.253.039-.253.038-.254.038-.253.035-.253.035-.255.033-.254.033-.255.031-.255.03-.256.028-.256.028-.255.026-.256.026-.257.024-.257.023-.258.022-.257.021-.257.02-.259.018-.258.018-.258.016-.259.016-.26.014-.258.013-.26.012-.26.011-.26.01-.26.009-.261.008-.261.006-.26.006-.261.005-.262.003-.262.003-.262.001-.256.001h-18.998v41.807l-.001.133-.004.158-.006.158-.008.157-.011.156-.013.155-.016.155-.018.154-.02.153-.022.154-.025.152-.027.15-.029.152-.031.15-.033.148-.035.148-.038.147-.039.147-.041.145-.043.143-.045.143-.048.143-.049.142-.051.14-.052.139-.055.138-.056.137-.058.137-.06.135-.062.134-.062.132-.065.131-.067.132-.068.129-.069.128-.071.127-.073.127-.074.124-.075.123-.078.124-.078.121-.08.119-.082.121-.084.119-.084.116-.085.115-.087.114-.088.113-.09.112-.092.112-.092.109-.093.108-.096.108-.096.106-.097.104-.099.104-.099.102-.1.1-.103.101-.104.099-.104.097-.106.097-.106.093-.108.094-.11.093-.11.092-.112.09-.111.087-.113.088-.115.086-.116.084-.116.083-.116.082-.121.082-.119.079-.119.078-.123.077-.124.076-.122.074-.124.072-.125.072-.126.07-.128.069-.127.067-.128.065-.132.066-.131.063-.132.062-.13.06-.132.058-.136.059-.135.056-.135.054-.138.054-.135.051-.138.05-.139.05-.14.047-.14.046-.14.045-.143.043-.142.041-.143.04-.142.038-.143.037-.147.036-.146.034-.145.032-.145.031-.149.03-.148.028-.145.025-.149.025-.153.024-.148.021-.149.02-.152.018-.15.017-.152.015-.152.014-.152.012-.154.01-.153.009-.154.007-.153.006-.154.004-.155.003h-.162l-.209-.001-.219-.005-.22-.009-.218-.011-.221-.016-.222-.018-.223-.022-.223-.026-.225-.029-.225-.032-.227-.036-.228-.041-.23-.043-.23-.048-.232-.052-.234-.057-.235-.061-.235-.065-.237-.07-.238-.074-.24-.08-.241-.086-.241-.09-.243-.096-.244-.102-.245-.108-.245-.115-.229-.113-.138-.07-.125-.066-.124-.067-.124-.069-.122-.069-.124-.072-.123-.075-.123-.076-.125-.078-.122-.08-.124-.083-.123-.084-.122-.086-.123-.089-.122-.091-.122-.093-.122-.096-.121-.098-.12-.1-.119-.101-.121-.107-.118-.106-.118-.11-.118-.113-.115-.114-.115-.117-.115-.12-.113-.122-.112-.125-.11-.126-.11-.131-.109-.133-.106-.134-.105-.137-.104-.141-.101-.142-.1-.144-.098-.148-.095-.149-.094-.152-.092-.154-.09-.157-.086-.158-.085-.161-.082-.163-.08-.164-.077-.167-.074-.169-.072-.17-.069-.172-.066-.174-.063-.175-.06-.176-.057-.177-.054-.18-.051-.182-.048-.181-.045-.182-.041-.183-.039-.185-.035-.185-.033-.185-.029-.186-.026-.186-.022-.188-.02-.188-.017-.188-.013-.187-.011-.187-.007-.189-.005-.188-.001-.164V355.699l.001-.133.004-.159.006-.16.009-.159.011-.159.014-.159.017-.159.019-.158.022-.159.024-.157.027-.159.03-.159.033-.157.035-.157.037-.154.04-.155.043-.154.045-.154.048-.154.051-.151.052-.15.055-.149.058-.148.06-.146.061-.145.065-.143.067-.143.068-.141.071-.139.073-.138.075-.135.076-.133.079-.134.081-.13.081-.128.084-.127.086-.125.086-.122.088-.12.09-.12.091-.117.092-.114.094-.113.095-.111.095-.109.112-.123.181-.191.2-.2.203-.191.206-.183.208-.176.211-.169.212-.162.215-.154.214-.147.216-.14.218-.134.217-.128.218-.121.219-.115.22-.11.219-.104.22-.098.219-.093.22-.089.22-.083.219-.078.22-.074.22-.069.219-.065.219-.061.22-.056.218-.052.219-.049.218-.044.219-.041.219-.037.218-.033.218-.029.219-.026.217-.022.217-.019.219-.016.218-.012.217-.008.218-.005.193-.002h32.95l.256.001zm-19.254 22.79v43.049h19.142l.148-.001.147-.002.147-.002.147-.003.146-.004.145-.004.144-.005.144-.006.143-.007.143-.007.142-.007.141-.009.141-.009.14-.009.14-.01.138-.011.138-.012.138-.012.137-.013.136-.013.136-.015.135-.014.134-.016.133-.016.134-.016.132-.017.132-.018.131-.019.129-.019.131-.02.128-.02.129-.021.128-.021.126-.022.127-.023.126-.023.125-.024.124-.025.124-.025.123-.025.122-.026.122-.027.12-.028.121-.028.12-.028.119-.029.118-.03.118-.03.117-.031.117-.031.115-.032.115-.032.115-.033.113-.034.113-.034.113-.034.111-.036.111-.035.111-.036.11-.037.109-.037.108-.038.108-.038.107-.039.106-.04.106-.039.105-.041.105-.041.104-.041.104-.042.102-.043.102-.042.101-.044.101-.044.1-.045.1-.044.099-.046.098-.046.097-.046.097-.047.097-.048.096-.048.095-.048.094-.049.094-.05.094-.05.092-.05.092-.051.092-.051.091-.052.091-.053.089-.053.089-.053.089-.054.088-.054.088-.055.086-.056.087-.055.086-.057.085-.057.085-.057.084-.058.084-.058.083-.059.082-.059.082-.061.082-.06.081-.061.08-.061.08-.062.08-.062.078-.063.079-.064.078-.064.077-.064.077-.065.076-.066.076-.066.076-.067.075-.067.074-.068.074-.068.073-.069.074-.07.072-.069.072-.071.072-.071.071-.071.071-.073.07-.073.07-.073.069-.074.069-.075.068-.075.068-.076.068-.076.067-.077.067-.078.066-.078.066-.079.065-.08.065-.08.064-.08.064-.082.064-.082.063-.083.063-.084.062-.083.062-.086.062-.085.06-.086.061-.087.061-.088.059-.088.059-.089.059-.09.059-.09.057-.091.058-.092.057-.093.057-.093.056-.094.056-.095.055-.095.055-.097.055-.097.054-.098.053-.099.053-.099.053-.101.052-.101.052-.101.051-.103.051-.104.051-.105.049-.104.05-.106.049-.107.048-.107.048-.109.048-.109.047-.11.047-.112.046-.112.045-.112.045-.114.045-.114.044-.116.044-.116.043-.117.042-.118.042-.119.042-.119.041-.121.04-.122.04-.122.04-.123.038-.125.039-.125.037-.126.037-.127.037-.128.036-.129.036-.129.035-.131.034-.132.034-.132.033-.134.032-.134.032-.136.032-.136.03-.137.031-.139.029-.139.029-.14.028-.141.028-.142.027-.143.026-.144.026-.145.025-.146.025-.147.023-.147.023-.149.023-.15.022-.151.021-.151.02-.153.02-.154.019-.154.018-.155.018-.157.017-.158.016-.158.016-.159.015-.161.014-.161.013-.163.013-.163.012-.164.011-.165.01-.167.01-.167.009-.168.008-.17.008-.17.006-.171.006-.172.005-.173.005-.174.003-.175.003-.176.002-.178.001-.177.001-.186v-2.52l-.001-.204-.001-.198-.002-.196-.002-.196-.003-.193-.004-.193-.005-.191-.005-.191-.007-.188-.006-.188-.008-.186-.008-.186-.009-.184-.009-.182-.011-.181-.011-.181-.011-.179-.012-.177-.013-.177-.014-.175-.014-.174-.015-.172-.016-.172-.016-.17-.017-.169-.017-.167-.019-.167-.019-.165-.019-.164-.02-.163-.021-.161-.021-.161-.022-.159-.023-.158-.023-.156-.023-.155-.025-.154-.025-.153-.025-.152-.026-.15-.027-.149-.028-.148-.027-.147-.029-.145-.029-.145-.029-.143-.03-.141-.031-.141-.031-.139-.032-.139-.032-.137-.033-.135-.033-.135-.034-.133-.034-.133-.035-.131-.035-.129-.036-.129-.037-.128-.036-.126-.038-.124-.037-.125-.039-.123-.038-.121-.039-.12-.04-.12-.04-.118-.041-.117-.041-.116-.041-.115-.042-.113-.042-.113-.043-.111-.043-.11-.044-.11-.043-.108-.045-.107-.044-.106-.046-.105-.045-.104-.046-.103-.046-.101-.047-.101-.047-.1-.048-.099-.047-.097-.048-.097-.049-.096-.049-.094-.049-.093-.05-.093-.05-.092-.05-.091-.051-.09-.051-.089-.052-.088-.051-.087-.052-.086-.053-.086-.053-.085-.053-.083-.053-.082-.054-.082-.054-.081-.055-.081-.055-.079-.055-.079-.056-.077-.056-.078-.057-.076-.056-.075-.057-.075-.058-.074-.058-.073-.058-.073-.059-.072-.059-.071-.059-.071-.06-.069-.06-.069-.061-.069-.061-.068-.061-.067-.062-.066-.063-.066-.063-.066-.062-.064-.064-.065-.064-.063-.065-.063-.065-.063-.066-.062-.065-.061-.067-.061-.067-.06-.068-.06-.068-.059-.068-.059-.069-.058-.07-.058-.07-.058-.071-.056-.072-.057-.071-.056-.073-.055-.073-.055-.074-.054-.074-.054-.075-.054-.076-.053-.076-.053-.077-.053-.078-.052-.078-.051-.079-.051-.079-.051-.081-.05-.081-.05-.081-.049-.083-.049-.083-.049-.084-.048-.085-.048-.085-.047-.087-.047-.087-.046-.088-.047-.088-.045-.089-.046-.09-.044-.091-.045-.093-.044-.092-.044-.094-.043-.094-.043-.095-.042-.096-.042-.097-.042-.097-.041-.099-.041-.1-.04-.1-.04-.101-.039-.102-.039-.103-.039-.104-.038-.105-.038-.106-.037-.106-.037-.108-.036-.108-.036-.109-.036-.111-.035-.111-.034-.112-.034-.113-.034-.114-.033-.115-.033-.117-.032-.116-.032-.118-.031-.119-.031-.119-.03-.121-.029-.121-.03-.123-.028-.123-.029-.125-.027-.125-.027-.127-.027-.127-.026-.128-.026-.129-.025-.131-.025-.131-.024-.132-.023-.133-.023-.134-.023-.134-.022-.137-.021-.137-.021-.138-.02-.138-.02-.14-.019-.141-.019-.141-.018-.143-.017-.143-.017-.145-.017-.145-.015-.146-.015-.148-.015-.148-.014-.15-.014-.15-.013-.151-.012-.152-.012-.153-.011-.154-.01-.155-.01-.156-.01-.15-.008-.323-.016-.32-.013-.323-.011-.328-.009-.331-.006-.334-.004-.35-.001h-18.981z"/><path d="M362.054 351.925c20.259 0 36.719 10.129 36.719 37.985v53.178c0 27.855-16.46 37.984-36.719 37.984h-31.653c-3.799 0-5.065-2.532-5.065-3.798V356.99c0-2.533 2.532-3.799 5.065-3.799h31.653v-1.266zm-25.323 10.129v107.623h25.323c15.194 0 25.323-8.863 25.323-26.589V389.91c0-18.993-10.129-26.59-25.323-26.59h-25.323v-1.266z" fill-rule="nonzero"/><path d="M362.578 345.596l.523.007.522.01.521.014.521.019.519.023.518.028.518.031.516.037.516.04.513.045.514.05.511.054.511.059.509.063.508.068.507.073.505.077.504.083.252.043.251.044.501.092.25.048.25.049.249.05.249.052.248.053.248.054.248.055.247.057.247.058.246.059.246.061.246.062.245.063.245.064.244.066.243.067.244.069.242.07.243.071.242.072.241.074.241.075.24.077.24.078.239.079.239.081.239.082.237.083.237.085.237.086.236.088.236.089.235.091.234.092.234.093.233.095.233.096.232.098.231.099.231.1.23.103.23.103.228.105.228.107.228.108.227.109.226.111.225.113.225.114.224.115.223.117.223.119.222.12.22.121.221.123.219.125.219.126.218.128.217.129.216.131.216.132.215.134.213.136.213.137.212.138.212.141.21.141.209.144.209.145.207.146.207.148.206.15.205.151.203.153.203.154.202.156.201.158.2.159.198.16.198.163.197.164.196.165.194.167.194.169.192.17.192.172.19.174.189.175.188.176.187.178.186.18.184.182.184.182.182.185.181.186.18.188.179.189.177.191.176.192.175.194.174.196.172.197.171.199.17.2.168.201.168.204.166.204.164.207.164.208.162.209.16.211.159.213.158.214.157.215.155.218.154.218.152.22.151.222.15.223.148.224.147.226.145.228.144.229.142.23.141.232.14.234.138.235.137.236.135.238.133.239.133.241.13.242.129.243.128.246.126.246.125.248.123.249.122.251.12.252.119.254.117.255.115.256.115.258.112.259.111.261.11.262.107.263.107.265.105.266.103.267.102.269.1.27.098.272.097.273.096.274.094.276.092.277.091.279.089.28.088.281.086.282.084.284.083.285.081.287.08.288.078.289.077.291.074.291.074.294.072.295.07.296.068.297.067.299.066.3.064.301.062.303.061.304.059.305.057.307.056.308.054.31.053.311.051.312.049.314.048.314.046.317.045.317.043.319.041.321.04.321.038.323.037.325.035.325.033.328.032.328.03.33.028.331.027.333.026.334.023.335.022.337.021.338.018.34.018.34.015.343.014.344.012.344.011.347.009.348.007.349.006.351.004.352.003.353v53.889l-.003.353-.004.352-.006.351-.007.349-.009.349-.011.346-.012.345-.014.344-.015.342-.018.341-.018.339-.021.338-.022.337-.023.336-.026.334-.027.332-.028.332-.03.329-.032.329-.033.327-.035.326-.037.324-.038.323-.04.322-.041.32-.043.319-.045.317-.046.317-.048.315-.049.313-.051.313-.053.311-.054.309-.056.308-.057.307-.059.305-.061.304-.062.303-.064.302-.066.3-.067.298-.068.298-.07.296-.072.294-.074.294-.074.292-.077.29-.078.29-.08.288-.081.286-.083.286-.084.283-.086.283-.088.281-.089.28-.091.278-.092.277-.094.276-.096.274-.097.273-.098.272-.1.27-.102.269-.103.268-.105.266-.107.265-.107.263-.11.262-.111.26-.112.26-.115.257-.115.257-.117.254-.119.254-.12.252-.122.251-.123.25-.125.247-.126.247-.128.245-.129.243-.13.242-.133.241-.133.24-.135.237-.137.237-.138.235-.14.233-.141.232-.142.231-.144.229-.146.227-.146.226-.148.224-.15.224-.151.221-.152.221-.154.218-.155.217-.157.216-.158.214-.159.213-.16.21-.162.209-.164.208-.165.207-.165.205-.168.203-.168.202-.17.2-.171.199-.173.197-.173.195-.175.194-.176.193-.177.19-.179.19-.18.188-.181.185-.182.185-.183.183-.185.181-.186.18-.187.178-.188.177-.189.175-.19.173-.192.172-.192.171-.194.168-.194.167-.196.166-.197.164-.198.162-.198.16-.2.16-.201.158-.202.155-.203.155-.203.153-.205.151-.206.149-.207.148-.207.147-.209.145-.209.143-.21.142-.212.14-.212.139-.213.137-.213.135-.215.134-.216.133-.216.13-.217.129-.218.128-.218.126-.22.125-.221.123-.22.122-.222.12-.223.118-.223.117-.224.116-.225.114-.226.113-.225.11-.227.11-.228.108-.228.106-.229.105-.229.104-.23.102-.231.101-.231.099-.232.097-.233.097-.233.095-.234.093-.235.092-.234.09-.236.089-.236.088-.236.086-.237.085-.239.084-.238.082-.239.08-.239.08-.24.078-.24.076-.241.075-.241.074-.242.073-.243.071-.242.069-.243.069-.244.067-.244.066-.245.064-.246.064-.245.062-.246.06-.246.059-.247.058-.247.057-.248.055-.248.055-.248.053-.249.051-.249.051-.25.049-.25.048-.25.046-.251.046-.251.044-.252.043-.252.042-.252.04-.252.039-.252.039-.254.037-.254.036-.254.034-.253.033-.256.033-.255.031-.254.03-.255.028-.256.028-.257.027-.256.025-.256.024-.257.023-.257.022-.258.021-.258.02-.257.018-.259.018-.259.016-.259.016-.259.014-.259.013-.259.012-.26.011-.26.01-.26.009-.261.008-.261.007-.261.005-.261.005-.261.003-.262.003-.262.002h-31.932l-.137-.001-.155-.002-.154-.004-.156-.006-.153-.007-.153-.009-.15-.011-.154-.012-.153-.014-.15-.016-.151-.017-.151-.019-.151-.021-.148-.022-.148-.024-.15-.026-.148-.028-.147-.029-.148-.031-.145-.033-.146-.034-.145-.037-.142-.037-.145-.039-.144-.042-.14-.043-.14-.044-.143-.047-.138-.047-.139-.05-.138-.051-.136-.053-.134-.054-.134-.055-.136-.059-.134-.06-.131-.061-.129-.061-.129-.064-.129-.065-.125-.067-.126-.068-.124-.069-.123-.071-.122-.073-.121-.073-.119-.076-.119-.076-.117-.078-.13-.089-.209-.15-.22-.166-.214-.17-.208-.174-.201-.177-.196-.182-.188-.183-.184-.188-.177-.192-.17-.192-.164-.195-.158-.197-.151-.199-.146-.202-.139-.202-.134-.204-.127-.206-.121-.206-.117-.208-.109-.208-.104-.209-.1-.211-.093-.211-.088-.212-.083-.214-.078-.214-.072-.216-.067-.216-.062-.217-.057-.22-.051-.221-.047-.224-.041-.227-.036-.23-.03-.232-.025-.237-.017-.242-.012-.247-.003-.204V356.965l.001-.134.004-.159.006-.158.009-.16.012-.159.013-.157.017-.16.019-.16.022-.157.025-.16.027-.157.029-.158.033-.158.035-.156.037-.155.04-.154.043-.156.046-.154.047-.152.05-.151.053-.15.055-.15.058-.149.059-.145.062-.144.065-.146.067-.142.068-.14.071-.139.073-.137.075-.136.077-.134.078-.132.08-.131.082-.127.084-.128.085-.124.087-.123.089-.121.09-.119.091-.117.091-.113.094-.114.095-.111.095-.108.112-.124.181-.191.2-.199.203-.192.206-.183.209-.177.21-.168.212-.162.214-.153.215-.148.216-.14.217-.134.218-.128.219-.121.219-.115.219-.11.219-.103.22-.099.22-.094.219-.088.22-.083.22-.078.219-.074.22-.069.219-.065.219-.061.219-.056.219-.052.219-.049.219-.044.218-.04.219-.037.218-.033.218-.03.218-.026.218-.022.218-.019.218-.015.218-.012.217-.009.218-.005.193-.002h.025v-48.113h12.661v48.113h12.662v-1.278l6.592.013.262.001zm-.531 117.75h.156l.149-.001.147-.002.147-.002.147-.003.145-.004.145-.004.145-.005.144-.006.143-.006.143-.007.142-.008.141-.008.141-.009.14-.01.139-.01.139-.011.139-.012.137-.012.136-.013.138-.013.135-.014.135-.015.134-.016.133-.015.133-.017.133-.017.131-.018.131-.019.131-.019.13-.019.129-.021.127-.021.128-.021.127-.022.127-.023.126-.023.125-.024.124-.024.123-.025.124-.026.122-.026.122-.027.12-.027.122-.029.119-.028.119-.029.118-.03.117-.03.117-.03.118-.032.115-.032.115-.032.115-.033.112-.033.115-.035.112-.034.111-.035.111-.036.111-.036.11-.037.108-.037.109-.038.108-.038.107-.039.107-.04.106-.04.105-.04.104-.041.104-.041.103-.042.103-.043.102-.043.101-.043.101-.044.1-.044.1-.045.099-.046.097-.046.099-.047.097-.047.096-.047.095-.048.096-.048.094-.049.094-.049.094-.051.092-.05.092-.051.092-.051.09-.052.091-.052.09-.053.089-.054.089-.054.088-.055.088-.054.087-.056.086-.055.086-.057.085-.057.084-.057.085-.058.084-.058.083-.059.082-.059.082-.06.082-.061.08-.06.081-.062.081-.062.078-.062.079-.063.079-.064.077-.063.078-.065.077-.065.076-.066.076-.066.076-.067.075-.067.074-.067.074-.069.074-.069.073-.069.072-.07.072-.071.072-.071.071-.072.071-.072.069-.072.071-.074.069-.074.069-.074.068-.076.069-.076.067-.076.067-.077.066-.078.067-.078.066-.08.065-.078.064-.08.065-.082.065-.081.063-.082.063-.083.063-.083.062-.085.062-.085.061-.084.061-.087.061-.087.06-.088.06-.088.059-.089.059-.09.058-.09.058-.091.058-.092.057-.092.057-.094.056-.094.056-.095.055-.095.055-.097.055-.097.054-.098.053-.098.053-.1.053-.1.052-.102.052-.102.051-.102.051-.103.05-.105.05-.105.05-.106.049-.107.048-.107.049-.109.047-.109.047-.11.047-.112.045-.111.046-.113.045-.114.045-.114.044-.115.044-.117.043-.116.042-.119.042-.119.042-.119.041-.121.04-.121.04-.123.04-.123.038-.125.039-.125.037-.126.038-.127.036-.128.036-.128.036-.13.035-.131.034-.132.034-.132.033-.134.032-.134.032-.135.032-.137.03-.137.03-.138.03-.14.029-.14.028-.141.028-.142.027-.143.026-.144.026-.145.025-.146.025-.147.023-.147.023-.149.023-.15.022-.15.021-.152.02-.153.02-.153.019-.155.018-.155.018-.157.017-.158.016-.158.016-.159.015-.161.014-.161.013-.162.013-.164.012-.164.011-.166.01-.166.01-.167.009-.168.008-.169.008-.171.006-.17.006-.173.005-.173.005-.174.003-.175.003-.176.002-.177.001-.178.001-.186v-53.165l-.001-.202-.001-.194-.002-.193-.003-.192-.004-.191-.004-.189-.005-.188-.006-.188-.007-.185-.008-.184-.008-.184-.009-.182-.01-.18-.011-.18-.011-.178-.012-.177-.013-.176-.014-.175-.014-.173-.015-.172-.016-.171-.016-.17-.018-.168-.018-.168-.018-.166-.02-.165-.02-.163-.02-.162-.022-.162-.022-.16-.023-.159-.023-.157-.024-.156-.025-.156-.025-.154-.026-.152-.027-.152-.027-.15-.028-.149-.029-.149-.029-.146-.03-.146-.03-.145-.031-.143-.032-.142-.032-.141-.033-.14-.033-.138-.034-.138-.035-.136-.035-.136-.036-.134-.036-.133-.036-.131-.038-.131-.038-.129-.038-.129-.039-.127-.039-.126-.04-.125-.04-.124-.041-.123-.042-.122-.042-.12-.042-.12-.043-.118-.043-.118-.044-.116-.044-.115-.045-.115-.045-.113-.046-.112-.046-.111-.047-.11-.047-.109-.047-.109-.048-.106-.048-.106-.049-.105-.049-.104-.05-.104-.05-.102-.05-.101-.051-.1-.051-.1-.052-.098-.052-.097-.052-.097-.053-.095-.054-.095-.053-.094-.054-.092-.055-.093-.055-.091-.055-.09-.056-.09-.056-.088-.056-.088-.056-.086-.058-.087-.057-.085-.058-.085-.059-.083-.058-.083-.06-.083-.059-.081-.06-.08-.06-.081-.061-.078-.061-.078-.061-.079-.062-.077-.062-.076-.063-.075-.063-.075-.063-.074-.064-.074-.065-.073-.064-.072-.065-.071-.066-.072-.066-.07-.066-.069-.067-.07-.067-.068-.068-.068-.069-.067-.068-.067-.069-.066-.07-.066-.07-.065-.07-.064-.071-.064-.071-.063-.072-.063-.073-.062-.073-.062-.073-.061-.074-.061-.075-.06-.074-.059-.076-.059-.076-.059-.077-.058-.077-.058-.077-.057-.078-.056-.079-.056-.079-.056-.08-.055-.081-.055-.081-.054-.082-.054-.081-.053-.083-.053-.084-.052-.084-.052-.084-.052-.085-.05-.086-.051-.087-.05-.087-.05-.088-.049-.088-.048-.089-.048-.09-.048-.09-.048-.091-.046-.092-.047-.092-.046-.093-.045-.093-.045-.095-.045-.095-.044-.096-.043-.096-.044-.097-.042-.098-.042-.099-.042-.098-.042-.101-.04-.1-.041-.102-.04-.102-.039-.102-.039-.104-.039-.103-.038-.106-.037-.105-.037-.106-.037-.108-.036-.107-.035-.109-.036-.11-.034-.109-.034-.11-.034-.113-.033-.111-.033-.113-.032-.114-.031-.114-.032-.115-.03-.116-.03-.117-.03-.117-.029-.119-.029-.118-.028-.119-.027-.121-.027-.12-.027-.122-.026-.123-.025-.123-.025-.124-.024-.124-.024-.126-.023-.126-.023-.127-.022-.127-.022-.129-.021-.129-.02-.129-.02-.131-.02-.131-.019-.132-.018-.132-.018-.134-.017-.133-.017-.135-.016-.136-.015-.136-.015-.136-.014-.138-.014-.138-.013-.14-.013-.139-.012-.14-.012-.141-.011-.142-.01-.136-.009-.294-.018-.289-.016-.292-.013-.295-.011-.297-.008-.301-.006-.303-.004-.317-.001h-18.98v93.695h18.985z"/><path d="M424.096 355.724c0-2.533 2.532-3.799 5.064-3.799h62.042c2.532 0 3.798 2.532 3.798 5.065 0 2.532-1.266 5.064-3.798 5.064h-55.711v48.114h27.855c2.533 0 3.799 2.532 3.799 5.065 0 2.532-1.266 5.064-3.799 5.064h-27.855v55.711c0 2.532-2.532 3.798-6.331 3.798-2.532 0-6.331-1.266-6.331-3.798V355.724h1.267z" fill-rule="nonzero"/><path d="M491.36 345.595l.16.004.158.006.158.009.16.012.159.014.158.016.159.019.16.022.158.025.158.027.157.029.157.033.157.035.155.037.155.04.156.043.153.046.152.047.151.05.15.053.15.055.149.058.145.06.146.062.145.065.14.066.14.068.141.072.138.073.134.074.134.077.133.078.129.08.129.082.128.085.124.085.122.086.122.089.119.09.116.09.226.186.22.19.124.112.191.182.199.199.192.203.184.207.175.207.169.211.162.213.153.213.147.215.141.217.135.218.127.217.121.218.115.219.11.218.104.22.099.22.093.22.088.219.083.221.078.219.074.219.069.219.065.221.061.219.056.218.053.22.048.218.044.218.041.221.037.218.033.216.029.219.026.218.022.218.019.219.016.217.012.217.008.219.005.217.002.218-.002.217-.005.217-.008.219-.012.217-.016.218-.019.219-.022.217-.026.218-.029.219-.033.217-.037.218-.041.22-.044.219-.048.217-.053.22-.056.219-.061.219-.065.22-.069.219-.074.219-.078.22-.083.22-.088.22-.093.219-.099.221-.104.219-.11.219-.115.218-.121.218-.127.218-.135.218-.141.217-.147.215-.153.212-.161.213-.17.211-.175.208-.184.206-.192.203-.199.2-.192.181-.123.112-.107.095-.112.095-.114.094-.113.092-.116.09-.12.091-.121.088-.121.086-.127.086-.127.085-.128.081-.128.079-.134.08-.134.077-.134.074-.139.073-.139.071-.14.068-.143.067-.143.064-.146.063-.146.059-.148.058-.15.055-.15.053-.149.05-.154.048-.155.045-.153.043-.156.04-.156.038-.155.034-.156.033-.16.03-.158.027-.157.024-.16.022-.157.019-.16.017-.159.014-.159.011-.159.009-.16.006-.159.004-.133.001h-49.404v35.452h21.55l.133.001.158.004.159.006.159.009.159.011.159.014.159.017.16.019.158.022.158.024.159.028.156.029.158.033.157.035.157.037.154.04.153.043.154.045.153.048.151.05.149.053.15.055.15.058.145.06.145.062.145.065.141.066.141.068.139.072.137.072.136.075.134.077.132.078.131.081.128.081.126.084.125.086.123.086.12.088.119.09.117.091.116.093.221.186.112.099.123.112.189.178.2.201.192.204.183.205.176.208.169.211.161.212.155.215.147.215.14.216.134.217.127.217.121.218.116.22.11.22.104.219.098.218.093.221.089.22.083.22.078.219.074.219.069.219.065.219.061.221.056.22.052.217.048.218.045.22.04.218.037.22.033.218.03.217.026.218.022.218.019.218.015.218.012.217.009.218.005.218.002.218-.002.217-.005.218-.009.218-.012.217-.015.218-.019.218-.022.218-.026.218-.03.218-.033.218-.037.219-.04.218-.045.22-.048.218-.052.217-.056.221-.061.22-.065.219-.069.219-.074.219-.078.22-.083.219-.089.221-.093.22-.098.218-.104.219-.11.22-.116.22-.121.219-.127.216-.134.218-.14.216-.147.214-.155.215-.161.212-.169.211-.176.208-.183.206-.192.203-.2.2-.188.179-.125.113-.112.099-.109.093-.11.091-.116.093-.118.092-.12.091-.12.088-.122.086-.124.084-.127.085-.128.081-.131.081-.133.079-.132.076-.135.074-.139.074-.142.072-.14.068-.138.065-.144.065-.149.063-.145.059-.146.057-.15.056-.152.053-.15.05-.151.047-.156.046-.156.043-.153.04-.153.037-.159.036-.159.032-.155.029-.158.027-.158.025-.159.022-.162.019-.158.017-.158.014-.159.011-.159.009-.158.006-.159.004-.135.001h-21.548v49.407l-.001.131-.004.157-.006.163-.01.162-.011.159-.014.161-.017.161-.02.162-.023.162-.025.163-.029.163-.031.162-.034.16-.038.165-.04.161-.042.158-.047.162-.049.161-.051.157-.056.161-.057.157-.06.155-.064.157-.066.154-.068.151-.071.151-.074.149-.079.151-.079.147-.08.142-.084.143-.087.141-.088.139-.092.139-.094.135-.092.13-.098.132-.101.131-.097.123-.102.124-.106.123-.102.116-.107.118-.109.115-.108.112-.112.111-.111.107-.111.104-.113.101-.114.101-.115.097-.116.097-.117.093-.115.09-.119.09-.117.085-.118.084-.12.083-.119.08-.119.077-.12.076-.121.075-.121.071-.137.08-.224.124-.241.127-.244.12-.242.113-.242.107-.242.1-.243.094-.242.089-.242.083-.241.079-.241.073-.242.068-.241.064-.242.06-.241.055-.24.052-.24.047-.24.044-.241.04-.241.036-.24.033-.24.03-.242.027-.241.023-.241.021-.242.018-.241.014-.242.012-.242.009-.243.007-.244.004-.252.001-.208-.002-.217-.005-.215-.008-.214-.011-.214-.014-.214-.017-.214-.02-.214-.023-.213-.026-.214-.029-.214-.031-.213-.035-.214-.037-.215-.041-.215-.043-.215-.046-.215-.049-.216-.053-.217-.056-.217-.059-.218-.063-.218-.066-.218-.069-.219-.073-.22-.077-.221-.082-.221-.085-.221-.09-.222-.094-.224-.1-.224-.105-.225-.109-.225-.116-.226-.121-.226-.127-.227-.134-.227-.141-.215-.14-.128-.087-.113-.078-.117-.083-.113-.083-.112-.084-.116-.089-.115-.092-.113-.091-.114-.095-.114-.099-.114-.101-.114-.104-.111-.104-.112-.109-.113-.113-.111-.115-.111-.118-.109-.119-.11-.126-.109-.129-.106-.129-.107-.136-.103-.135-.104-.142-.102-.146-.1-.148-.099-.152-.096-.156-.093-.156-.091-.162-.091-.168-.085-.168-.085-.174-.08-.176-.077-.177-.074-.183-.071-.186-.066-.187-.063-.191-.059-.195-.054-.193-.05-.2-.046-.201-.041-.2-.037-.203-.031-.205-.028-.207-.022-.206-.017-.209-.012-.207-.007-.206-.002-.172V349.393h3.626l.079-.089.111-.123.182-.192.2-.199.202-.191.207-.185.209-.176.21-.168.212-.162.213-.153.216-.148.216-.14.216-.134.219-.128.219-.121.219-.116.218-.109.22-.104.219-.098.22-.093.22-.089.219-.083.22-.078.221-.074.219-.069.218-.065.22-.061.219-.056.219-.052.219-.049.218-.044.22-.041.218-.036.218-.034.218-.029.218-.026.218-.022.217-.019.219-.016.217-.012.218-.008.218-.005.193-.002h62.09l.134.001zm-62.2 16.459v111.421-111.421z"/></g></svg>