<svg viewBox="0 0 500 500" xmlns="http://www.w3.org/2000/svg" fill-rule="evenodd" clip-rule="evenodd" stroke-linejoin="round" stroke-miterlimit="1.414"><g fill-rule="nonzero"><path d="M27.448 219.215v234.738c0 23.089 17.958 41.047 41.047 41.047h364.293c23.089 0 41.047-17.958 41.047-41.047V219.215H27.448zm166.754 32.068h110.314v93.638H194.202v-93.638zm-21.807 211.649H60.798v-92.356h111.597v92.356zm0-119.293H60.798V250h111.597v93.639zm21.807 119.293v-92.356h111.596v93.639l-111.596-1.283zm245 0H327.605v-92.356h111.597v92.356zm0-119.293H327.605V250h111.597v93.639zm33.35-152.644v-89.791c0-23.089-17.958-41.047-41.047-41.047h-61.57V25.524c0-11.545-8.98-20.524-20.524-20.524-11.545 0-20.524 8.979-20.524 20.524v34.633H162.134V25.524C162.134 13.979 153.154 5 141.61 5c-11.545 0-20.524 8.979-20.524 20.524v34.633H67.212c-23.089 0-41.047 17.958-41.047 41.047v94.922H471.27l1.282-5.131zM141.61 157.644c-23.089 0-41.047-19.241-41.047-42.33 0-14.11 7.696-28.22 20.523-35.916v35.916c0 11.545 8.979 20.524 20.524 20.524 11.544 0 20.524-8.979 20.524-20.524V79.398c20.523 11.544 26.937 37.199 15.392 56.44-7.696 14.11-21.806 21.806-35.916 21.806zm206.518 0c-23.089 0-41.047-19.241-41.047-42.33 0-14.11 7.696-28.22 20.524-35.916v35.916c0 11.545 8.979 20.524 20.523 20.524 11.545 0 20.524-8.979 20.524-20.524V79.398c20.523 11.544 26.937 37.199 15.393 56.44-6.414 14.11-20.524 21.806-35.917 21.806z" fill="#9c0"/><path d="M448.181 301.309c5.131-6.414 5.131-15.393-1.283-20.524s-15.393-5.131-20.524 1.283l-76.963 76.963-76.963-76.963c-2.566-2.565-6.414-3.848-10.262-3.848-7.696 0-14.11 6.414-14.11 14.11 0 3.848 1.283 7.696 3.848 10.262l76.963 76.963-76.963 76.963c-2.565 2.566-3.848 6.414-3.848 10.262 0 7.696 6.414 14.11 14.11 14.11 3.848 0 7.696-1.283 10.262-3.848l76.963-76.963 78.246 78.246c6.414 5.13 15.393 5.13 20.524-1.283 5.131-6.414 5.131-15.393-1.283-20.524l-76.963-76.963 78.246-78.246c-1.283 0 0 0 0 0z" fill="#d70000"/></g></svg>