<svg viewBox="0 0 500 500" xmlns="http://www.w3.org/2000/svg" fill-rule="evenodd" clip-rule="evenodd" stroke-linejoin="round" stroke-miterlimit="1.414"><g fill="#9c0" fill-rule="nonzero"><path d="M438.011 112.587c0-1.065-1.065-1.065-1.065-2.13 0-1.066-1.066-2.131-1.066-2.131l-98-98c-1.065-1.065-1.065-1.065-2.13-1.065s-1.065-1.065-2.13-1.065C330.424 5 328.293 5 326.163 5H171.707c-22.37 0-40.479 18.109-40.479 40.478 0 7.457 6.392 13.848 13.848 13.848 7.457 0 13.848-6.391 13.848-13.848 0-6.391 5.326-11.717 11.717-11.717H311.25v70.304c0 15.978 12.783 27.696 27.696 27.696h70.304v233.282c0 6.392-5.326 11.718-11.717 11.718h-142.74c-7.456 0-13.847 6.391-13.847 13.848 0 7.456 6.391 13.848 13.847 13.848h143.805c22.369 0 40.478-18.109 40.478-40.479V117.913c0-2.13 0-4.261-1.065-5.326zm-98-58.587l50.065 50.065h-50.065V54z"/><path d="M146.141 71.043c-46.869 0-85.217 38.348-85.217 85.218v226.891c0 6.391 5.326 11.718 11.717 11.718 6.392 0 11.718-5.327 11.718-11.718V156.261c0-34.087 27.695-62.848 62.848-62.848 34.086 0 62.847 27.696 62.847 62.848v276.956c0 21.305-17.043 38.348-38.347 38.348-21.305 0-38.348-17.043-38.348-38.348V156.261c0-7.457 6.391-12.783 12.782-12.783 7.457 0 12.783 6.392 12.783 12.783v226.891c0 6.391 5.326 11.718 11.717 11.718 6.392 0 11.718-5.327 11.718-11.718V156.261c0-2.131 0-3.196-1.066-4.261-2.13-18.109-17.043-31.957-35.152-31.957-18.108 0-33.021 13.848-35.152 31.957-1.065 1.065-1.065 3.196-1.065 4.261v276.956c0 34.087 27.696 61.783 61.783 61.783 34.086 0 61.782-27.696 61.782-61.783V156.261c-2.13-46.87-40.478-85.218-87.348-85.218z"/></g></svg>