<svg viewBox="0 0 500 500" xmlns="http://www.w3.org/2000/svg" fill-rule="evenodd" clip-rule="evenodd" stroke-linejoin="round" stroke-miterlimit="1.414"><g fill="#d70000" fill-rule="nonzero"><path d="M250 5C114.667 5 5 114.667 5 250s109.667 245 245 245c65.333 0 127.167-25.667 173.833-72.333C469.333 377.167 495 315.333 495 250 495 114.667 384.167 5 250 5zm0 465.5c-121.333 0-220.5-99.167-220.5-220.5S128.667 29.5 250 29.5c58.333 0 114.333 23.333 155.167 64.167C446 134.5 469.333 190.5 469.333 250c1.167 121.333-98 220.5-219.333 220.5z"/><path d="M334 182.333c4.667-4.666 4.667-12.833-1.167-17.5-4.666-4.666-12.833-4.666-17.5 1.167L250 232.5 182.333 166c-2.333-2.333-5.833-3.5-9.333-3.5-7 0-12.833 5.833-12.833 12.833 0 3.5 1.166 7 3.5 9.334l66.5 66.5-66.5 66.5c-2.334 2.333-3.5 5.833-3.5 9.333 0 7 5.833 12.833 12.833 12.833 3.5 0 7-1.166 9.333-3.5l66.5-66.5L316.5 337.5c4.667 4.667 12.833 4.667 17.5-1.167 4.667-4.666 4.667-12.833-1.167-17.5L266.333 250 334 182.333c0 1.167 0 1.167 0 0z"/></g></svg>