<svg viewBox="0 0 500 500" xmlns="http://www.w3.org/2000/svg" fill-rule="evenodd" clip-rule="evenodd" stroke-linejoin="round" stroke-miterlimit="1.414"><g fill="#9c0" fill-rule="nonzero"><path d="M423.25 167.5H74.393c-9.429 0-18.857-7.071-18.857-18.857V94.429c0-23.572 18.857-42.429 42.428-40.072h304.072c23.571 0 42.428 18.857 42.428 40.072v54.214c-2.357 9.428-11.785 18.857-21.214 18.857zM90.893 132.143H406.75V94.429c0-2.358-2.357-4.715-4.714-4.715H97.964c-2.357 0-4.714 2.357-4.714 4.715v37.714h-2.357z"/><path d="M319.536 89.714H178.107c-9.428 0-18.857-7.071-18.857-18.857V33.143c0-16.5 14.143-30.643 28.286-30.643h117.857c16.5 0 28.286 14.143 28.286 28.286v40.071c4.714 9.429-4.715 18.857-14.143 18.857zM196.964 54.357h106.072v-16.5H196.964v16.5zM369.036 497.5H128.607c-23.571 0-42.428-18.857-42.428-42.429V148.643c2.357-9.429 9.428-16.5 18.857-16.5H390.25c9.429 0 18.857 7.071 18.857 18.857v306.429c0 21.214-18.857 40.071-40.071 40.071zm-245.143-330v287.571c0 2.358 2.357 4.715 4.714 4.715h238.072c2.357 0 4.714-2.357 4.714-4.715V167.5h-247.5z"/><path d="M178.107 422.071c-9.428 0-18.857-7.071-18.857-18.857V226.429c0-9.429 7.071-18.858 18.857-18.858 9.429 0 18.857 7.072 18.857 18.858v176.785c-2.357 9.429-9.428 18.857-18.857 18.857zm70.714 0c-9.428 0-18.857-7.071-18.857-18.857V226.429c0-9.429 7.072-18.858 18.857-18.858 11.786 0 18.858 7.072 18.858 18.858v176.785c-2.358 9.429-9.429 18.857-18.858 18.857zm70.715 0c-9.429 0-18.857-7.071-18.857-18.857V226.429c0-9.429 7.071-18.858 18.857-18.858 11.785 0 18.857 7.072 18.857 18.858v176.785c-2.357 9.429-9.429 18.857-18.857 18.857z"/></g></svg>