<svg viewBox="0 0 500 500" xmlns="http://www.w3.org/2000/svg" fill-rule="evenodd" clip-rule="evenodd" stroke-linejoin="round" stroke-miterlimit="1.414"><path d="M455.955 430.255H43.943c-17.657 0-32.372 14.715-32.372 32.373 0 17.657 14.715 32.372 32.372 32.372h412.012c17.658 0 32.373-14.715 32.373-32.372 1.471-17.658-13.244-32.373-32.373-32.373zm-228.078-42.672c2.943 2.943 5.886 5.885 10.3 7.357 4.415 1.471 8.829 2.943 13.244 2.943 8.829 0 17.657-2.943 23.543-10.3l128.018-126.547c13.244-11.772 13.244-32.372 1.472-44.144l-1.472-1.472c-13.243-13.243-32.372-13.243-45.615 0l-72.102 72.103V37.372C285.265 19.715 270.55 5 252.892 5c-17.657 0-32.372 14.715-32.372 32.372v250.151l-72.102-72.103c-13.244-13.243-32.373-13.243-45.616 0-13.243 11.772-13.243 32.373-1.471 44.145l1.471 1.471 125.075 126.547z" fill="#9c0" fill-rule="nonzero" stroke="#91803d"/></svg>