<svg id="Calque_1" data-name="Calque 1" xmlns="http://www.w3.org/2000/svg" xmlns:xlink="http://www.w3.org/1999/xlink" viewBox="0 0 205 205"><defs><style>.cls-1,.cls-2{fill:none;}.cls-2{clip-rule:evenodd;}.cls-3{clip-path:url(#clip-path);}.cls-4{clip-path:url(#clip-path-2);}.cls-5{clip-path:url(#clip-path-3);}.cls-6{clip-path:url(#clip-path-4);}.cls-7{clip-path:url(#clip-path-5);}.cls-8{clip-path:url(#clip-path-6);}.cls-9{clip-path:url(#clip-path-7);}.cls-10{clip-path:url(#clip-path-8);}.cls-11{clip-path:url(#clip-path-9);}.cls-12{clip-path:url(#clip-path-10);}.cls-13{clip-path:url(#clip-path-11);}.cls-14{clip-path:url(#clip-path-12);}.cls-15{clip-path:url(#clip-path-13);}.cls-16{clip-path:url(#clip-path-14);}.cls-17{clip-path:url(#clip-path-15);}.cls-18{clip-path:url(#clip-path-16);}.cls-19{clip-path:url(#clip-path-17);}.cls-20{fill:#a72776;}.cls-21{clip-path:url(#clip-path-18);}.cls-22{fill:#fff;}.cls-23{clip-path:url(#clip-path-20);}.cls-24{clip-path:url(#clip-path-22);}.cls-25{clip-path:url(#clip-path-24);}.cls-26{clip-path:url(#clip-path-26);}.cls-27{clip-path:url(#clip-path-27);}.cls-28{clip-path:url(#clip-path-28);}.cls-29{clip-path:url(#clip-path-29);}.cls-30{clip-path:url(#clip-path-30);}.cls-31{clip-path:url(#clip-path-31);}.cls-32{clip-path:url(#clip-path-32);}.cls-33{clip-path:url(#clip-path-33);}.cls-34{clip-path:url(#clip-path-34);}.cls-35{clip-path:url(#clip-path-35);}.cls-36{clip-path:url(#clip-path-36);}.cls-37{clip-path:url(#clip-path-37);}.cls-38{clip-path:url(#clip-path-38);}.cls-39{clip-path:url(#clip-path-39);}.cls-40{clip-path:url(#clip-path-40);}.cls-41{clip-path:url(#clip-path-41);}.cls-42{clip-path:url(#clip-path-42);}.cls-43{clip-path:url(#clip-path-43);}.cls-44{clip-path:url(#clip-path-44);}.cls-45{clip-path:url(#clip-path-45);}.cls-46{clip-path:url(#clip-path-46);}.cls-47{clip-path:url(#clip-path-47);}.cls-48{clip-path:url(#clip-path-48);}.cls-49{clip-path:url(#clip-path-49);}.cls-50{clip-path:url(#clip-path-50);}.cls-51{clip-path:url(#clip-path-51);}.cls-52{clip-path:url(#clip-path-52);}.cls-53{clip-path:url(#clip-path-53);}.cls-54{clip-path:url(#clip-path-54);}.cls-55{clip-path:url(#clip-path-55);}.cls-56{clip-path:url(#clip-path-56);}.cls-57{clip-path:url(#clip-path-57);}.cls-58{clip-path:url(#clip-path-58);}.cls-59{clip-path:url(#clip-path-59);}.cls-60{clip-path:url(#clip-path-60);}.cls-61{clip-path:url(#clip-path-61);}.cls-62{clip-path:url(#clip-path-62);}.cls-63{clip-path:url(#clip-path-63);}.cls-64{clip-path:url(#clip-path-64);}.cls-65{clip-path:url(#clip-path-65);}.cls-66{clip-path:url(#clip-path-66);}.cls-67{clip-path:url(#clip-path-67);}.cls-68{clip-path:url(#clip-path-68);}.cls-69{clip-path:url(#clip-path-69);}.cls-70{clip-path:url(#clip-path-70);}.cls-71{clip-path:url(#clip-path-71);}.cls-72{clip-path:url(#clip-path-72);}.cls-73{clip-path:url(#clip-path-73);}.cls-74{clip-path:url(#clip-path-74);}.cls-75{clip-path:url(#clip-path-75);}.cls-76{clip-path:url(#clip-path-76);}.cls-77{clip-path:url(#clip-path-77);}</style><clipPath id="clip-path"><ellipse class="cls-1" cx="102.26" cy="820.5" rx="102.26" ry="102.5"/></clipPath><clipPath id="clip-path-2"><path class="cls-1" d="M102.53,797a7.27,7.27,0,1,1-7.25,7.19,7.28,7.28,0,0,1,7.25-7.19Zm0,18.64a11.42,11.42,0,1,0-8.07-3.37A11.41,11.41,0,0,0,102.53,815.61Z"/></clipPath><clipPath id="clip-path-3"><path class="cls-1" d="M126.94,836.38a29.07,29.07,0,0,0-6.84-11.65,13.34,13.34,0,0,1,5-3.42,11.37,11.37,0,0,0,12.82,0c7.28,3,9.27,11.19,9.82,15.05Zm-46.61,8.18a35.22,35.22,0,0,1,1.13-6A27.41,27.41,0,0,1,89,826.21a18.24,18.24,0,0,1,5.14-3,14.29,14.29,0,0,0,16.7,0,18.15,18.15,0,0,1,5.18,3.22A25.24,25.24,0,0,1,123.44,839a38.65,38.65,0,0,1,1.11,5.63ZM57.4,836.62c.56-3.88,2.57-12,9.82-15a11.37,11.37,0,0,0,12.8,0,13.39,13.39,0,0,1,4.88,2.78,27.78,27.78,0,0,0-7.13,12.05Zm80.73-19.53a2.08,2.08,0,0,0-2,.45l-.12.12a7,7,0,0,1-8.85,0l-.23-.22a2.08,2.08,0,0,0-2-.47,17.44,17.44,0,0,0-7.87,5,22.37,22.37,0,0,0-6-3,2.12,2.12,0,0,0-2,.42l-.18.19a10,10,0,0,1-12.66,0l-.19-.21a2.1,2.1,0,0,0-2-.44A23.33,23.33,0,0,0,88,821.69a18,18,0,0,0-7.86-4.39,2,2,0,0,0-2,.44l-.19.18a7.06,7.06,0,0,1-8.91,0l-.12-.14a2.05,2.05,0,0,0-2-.44C53.59,821.69,53.1,838,53.1,838.53a2,2,0,0,0,2,2l21.7-.14a34.58,34.58,0,0,0-.76,6.17,2,2,0,0,0,2,2h48.64a2,2,0,0,0,2.05-2,37.05,37.05,0,0,0-.82-6H150a2,2,0,0,0,2.05-2C152,837.63,151.51,821.37,138.13,817.09Z"/></clipPath><clipPath id="clip-path-4"><path class="cls-1" d="M126.45,803.41a4.86,4.86,0,1,1-4.86,4.84A4.86,4.86,0,0,1,126.45,803.41Zm0,13.74a8.89,8.89,0,1,0-6.28-2.61A8.88,8.88,0,0,0,126.45,817.15Z"/></clipPath><clipPath id="clip-path-5"><path class="cls-1" d="M73.37,800.61a4.86,4.86,0,1,1-4.84,4.85A4.85,4.85,0,0,1,73.37,800.61Zm0,13.73a8.88,8.88,0,1,0-8.86-8.88A8.87,8.87,0,0,0,73.37,814.34Z"/></clipPath><clipPath id="clip-path-6"><circle class="cls-1" cx="102.26" cy="576.5" r="102.5"/></clipPath><clipPath id="clip-path-7"><path class="cls-1" d="M102.53,553a7.27,7.27,0,1,1-7.26,7.19,7.3,7.3,0,0,1,7.26-7.19Zm0,18.64a11.44,11.44,0,1,0-8.09-3.37A11.43,11.43,0,0,0,102.53,571.61Z"/></clipPath><clipPath id="clip-path-8"><path class="cls-1" d="M127,592.38a29.11,29.11,0,0,0-6.86-11.65,13.38,13.38,0,0,1,5-3.42,11.43,11.43,0,0,0,12.86,0c7.29,3,9.28,11.19,9.83,15.05Zm-46.72,8.18a35.22,35.22,0,0,1,1.13-6,27.45,27.45,0,0,1,7.52-12.32,18.29,18.29,0,0,1,5.15-3,14.36,14.36,0,0,0,16.74,0,18.21,18.21,0,0,1,5.19,3.22A25.2,25.2,0,0,1,123.49,595a38.65,38.65,0,0,1,1.11,5.63Zm-23-7.94c.55-3.88,2.57-12,9.84-15a11.42,11.42,0,0,0,12.83,0,13.44,13.44,0,0,1,4.89,2.78,27.72,27.72,0,0,0-7.15,12.05Zm80.91-19.53a2.08,2.08,0,0,0-2.05.45l-.12.12a7.07,7.07,0,0,1-8.88,0l-.22-.22a2.1,2.1,0,0,0-2.06-.47,17.41,17.41,0,0,0-7.88,5,22.64,22.64,0,0,0-6.06-3,2.12,2.12,0,0,0-2,.42l-.19.19a10,10,0,0,1-12.69,0l-.18-.21a2.11,2.11,0,0,0-2.06-.44,23.56,23.56,0,0,0-5.83,2.69,18.07,18.07,0,0,0-7.89-4.39,2.05,2.05,0,0,0-2,.44l-.18.18a7.1,7.1,0,0,1-8.94,0l-.12-.14a2.05,2.05,0,0,0-2.05-.44C53.48,577.69,53,594,53,594.53a2,2,0,0,0,2,2l21.75-.14a34.58,34.58,0,0,0-.76,6.17,2,2,0,0,0,2,2h48.76a2,2,0,0,0,2-2,37.05,37.05,0,0,0-.82-6h22a2,2,0,0,0,2.06-2C152.12,593.63,151.62,577.37,138.21,573.09Z"/></clipPath><clipPath id="clip-path-9"><path class="cls-1" d="M126.33,559.5a4.83,4.83,0,1,1-4.83,4.81A4.84,4.84,0,0,1,126.33,559.5Zm0,13.66a8.83,8.83,0,1,0-6.25-2.59A8.82,8.82,0,0,0,126.33,573.16Z"/></clipPath><clipPath id="clip-path-10"><path class="cls-1" d="M73.3,556.61a4.86,4.86,0,1,1-4.85,4.85A4.88,4.88,0,0,1,73.3,556.61Zm0,13.73a8.88,8.88,0,1,0-8.87-8.88A8.89,8.89,0,0,0,73.3,570.34Z"/></clipPath><clipPath id="clip-path-11"><circle class="cls-1" cx="102.26" cy="336.5" r="102.5"/></clipPath><clipPath id="clip-path-12"><path class="cls-1" d="M102.53,313a7.27,7.27,0,1,1-7.26,7.19,7.3,7.3,0,0,1,7.26-7.19Zm0,18.64a11.44,11.44,0,1,0-8.09-3.37A11.43,11.43,0,0,0,102.53,331.61Z"/></clipPath><clipPath id="clip-path-13"><path class="cls-1" d="M127,352.38a29.11,29.11,0,0,0-6.86-11.65,13.38,13.38,0,0,1,5-3.42,11.43,11.43,0,0,0,12.86,0c7.29,3,9.28,11.19,9.83,15.05Zm-46.72,8.18a35.22,35.22,0,0,1,1.13-6,27.45,27.45,0,0,1,7.52-12.32,18.29,18.29,0,0,1,5.15-2.95,14.36,14.36,0,0,0,16.74,0,18.21,18.21,0,0,1,5.19,3.22A25.2,25.2,0,0,1,123.49,355a38.65,38.65,0,0,1,1.11,5.63Zm-23-7.94c.55-3.88,2.57-12.05,9.84-15a11.42,11.42,0,0,0,12.83,0,13.44,13.44,0,0,1,4.89,2.78,27.72,27.72,0,0,0-7.15,12.05Zm80.91-19.53a2.08,2.08,0,0,0-2.05.45l-.12.12a7.07,7.07,0,0,1-8.88,0l-.22-.22a2.1,2.1,0,0,0-2.06-.47,17.41,17.41,0,0,0-7.88,5,22.64,22.64,0,0,0-6.06-3,2.12,2.12,0,0,0-2,.42l-.19.19a10,10,0,0,1-12.69,0l-.18-.21a2.11,2.11,0,0,0-2.06-.44,23.56,23.56,0,0,0-5.83,2.69,18.07,18.07,0,0,0-7.89-4.39,2.05,2.05,0,0,0-2,.44l-.18.18a7.1,7.1,0,0,1-8.94,0l-.12-.14a2.05,2.05,0,0,0-2.05-.44C53.48,337.69,53,354,53,354.53a2,2,0,0,0,2,2l21.75-.14a34.58,34.58,0,0,0-.76,6.17,2,2,0,0,0,2,2h48.76a2,2,0,0,0,2-2,37.05,37.05,0,0,0-.82-6h22a2,2,0,0,0,2.06-2C152.12,353.63,151.62,337.37,138.21,333.09Z"/></clipPath><clipPath id="clip-path-14"><path class="cls-1" d="M126.51,319.41a4.86,4.86,0,1,1-4.87,4.84A4.87,4.87,0,0,1,126.51,319.41Zm0,13.74a8.89,8.89,0,1,0-6.3-2.61A8.88,8.88,0,0,0,126.51,333.15Z"/></clipPath><clipPath id="clip-path-15"><path class="cls-1" d="M73.3,316.61a4.86,4.86,0,1,1-4.85,4.85A4.88,4.88,0,0,1,73.3,316.61Zm0,13.73a8.88,8.88,0,1,0-8.87-8.88A8.89,8.89,0,0,0,73.3,330.34Z"/></clipPath><clipPath id="clip-path-16"><circle class="cls-1" cx="102.26" cy="102.5" r="102.5"/></clipPath><clipPath id="clip-path-17"><rect class="cls-1" x="-1232.08" y="-3273.97" width="2578.52" height="6744.9"/></clipPath><clipPath id="clip-path-18"><path class="cls-1" d="M102.53,79a7.27,7.27,0,1,1-7.26,7.19A7.3,7.3,0,0,1,102.53,79Zm0,18.64a11.44,11.44,0,1,0-8.09-3.37A11.43,11.43,0,0,0,102.53,97.61Z"/></clipPath><clipPath id="clip-path-20"><path class="cls-1" d="M127,118.38a29.11,29.11,0,0,0-6.86-11.65,13.38,13.38,0,0,1,5-3.42,11.43,11.43,0,0,0,12.86,0c7.29,3,9.28,11.19,9.83,15Zm-46.72,8.18a35.22,35.22,0,0,1,1.13-6,27.45,27.45,0,0,1,7.52-12.32,18.29,18.29,0,0,1,5.15-2.95,14.36,14.36,0,0,0,16.74,0,18.21,18.21,0,0,1,5.19,3.22A25.2,25.2,0,0,1,123.49,121a38.65,38.65,0,0,1,1.11,5.63Zm-23-7.94c.55-3.88,2.57-12.05,9.84-15a11.42,11.42,0,0,0,12.83,0,13.44,13.44,0,0,1,4.89,2.78,27.72,27.72,0,0,0-7.15,12Zm80.91-19.53a2.08,2.08,0,0,0-2.05.45l-.12.12a7.07,7.07,0,0,1-8.88,0l-.22-.22a2.1,2.1,0,0,0-2.06-.47,17.41,17.41,0,0,0-7.88,5,22.64,22.64,0,0,0-6.06-3,2.12,2.12,0,0,0-2,.42l-.19.19a10,10,0,0,1-12.69,0l-.18-.21a2.11,2.11,0,0,0-2.06-.44,23.56,23.56,0,0,0-5.83,2.69,18.07,18.07,0,0,0-7.89-4.39,2.05,2.05,0,0,0-2,.44l-.18.18a7.1,7.1,0,0,1-8.94,0l-.12-.14a2.05,2.05,0,0,0-2.05-.44C53.48,103.69,53,120,53,120.53a2,2,0,0,0,2,2l21.75-.14a34.58,34.58,0,0,0-.76,6.17,2,2,0,0,0,2,2h48.76a2,2,0,0,0,2-2,37.05,37.05,0,0,0-.82-6h22a2,2,0,0,0,2.06-2C152.12,119.63,151.62,103.37,138.21,99.09Z"/></clipPath><clipPath id="clip-path-22"><path class="cls-1" d="M126.51,85.41a4.86,4.86,0,1,1-4.87,4.84A4.87,4.87,0,0,1,126.51,85.41Zm0,13.74a8.89,8.89,0,1,0-6.3-2.61A8.88,8.88,0,0,0,126.51,99.15Z"/></clipPath><clipPath id="clip-path-24"><path class="cls-1" d="M73.3,82.61a4.86,4.86,0,1,1-4.85,4.85A4.88,4.88,0,0,1,73.3,82.61Zm0,13.73a8.88,8.88,0,1,0-8.87-8.88A8.89,8.89,0,0,0,73.3,96.34Z"/></clipPath><clipPath id="clip-path-26"><circle class="cls-1" cx="102.26" cy="-128.5" r="102.5"/></clipPath><clipPath id="clip-path-27"><path class="cls-1" d="M102.53-152a7.3,7.3,0,0,1,6.76,4.49,7.28,7.28,0,0,1-1.61,7.94,7.29,7.29,0,0,1-8,1.53,7.26,7.26,0,0,1-4.44-6.77,7.27,7.27,0,0,1,7.26-7.21Zm0,18.64A11.43,11.43,0,0,0,114-144.78a11.41,11.41,0,0,0-11.4-11.43,11.43,11.43,0,0,0-11.48,11.37,11.38,11.38,0,0,0,3.33,8.08A11.46,11.46,0,0,0,102.53-133.39Z"/></clipPath><clipPath id="clip-path-28"><path class="cls-1" d="M127-112.62a29.11,29.11,0,0,0-6.86-11.65,13.38,13.38,0,0,1,5-3.42,11.43,11.43,0,0,0,12.86,0c7.29,3,9.28,11.19,9.83,15Zm-46.72,8.18a35.22,35.22,0,0,1,1.13-6,27.45,27.45,0,0,1,7.52-12.32,18.29,18.29,0,0,1,5.15-2.95,14.36,14.36,0,0,0,16.74,0,18.21,18.21,0,0,1,5.19,3.22A25.2,25.2,0,0,1,123.49-110a38.65,38.65,0,0,1,1.11,5.63Zm-23-7.94c.55-3.88,2.57-12.05,9.84-15a11.42,11.42,0,0,0,12.83,0,13.44,13.44,0,0,1,4.89,2.78,27.72,27.72,0,0,0-7.15,12Zm80.91-19.53a2.08,2.08,0,0,0-2.05.45l-.12.12a7.07,7.07,0,0,1-8.88,0l-.22-.22a2.1,2.1,0,0,0-2.06-.47,17.41,17.41,0,0,0-7.88,5,22.64,22.64,0,0,0-6.06-3,2.12,2.12,0,0,0-2,.42l-.19.19a10,10,0,0,1-12.69,0l-.18-.21a2.11,2.11,0,0,0-2.06-.44,23.56,23.56,0,0,0-5.83,2.69,18.07,18.07,0,0,0-7.89-4.39,2.05,2.05,0,0,0-2,.44l-.18.18a7.1,7.1,0,0,1-8.94,0l-.12-.14a2.05,2.05,0,0,0-2.05-.44C53.48-127.31,53-111,53-110.47a2,2,0,0,0,2,2l21.75-.14a34.58,34.58,0,0,0-.76,6.17,2,2,0,0,0,2,2h48.76a2,2,0,0,0,2-2,37.05,37.05,0,0,0-.82-6h22a2,2,0,0,0,2.06-2C152.12-111.37,151.62-127.63,138.21-131.91Z"/></clipPath><clipPath id="clip-path-29"><path class="cls-1" d="M126.51-145.59a4.87,4.87,0,0,1,4.5,3,4.86,4.86,0,0,1-1.07,5.3,4.9,4.9,0,0,1-5.31,1,4.86,4.86,0,0,1-3-4.51A4.86,4.86,0,0,1,126.51-145.59Zm0,13.74a8.88,8.88,0,0,0,8.89-8.87,8.87,8.87,0,0,0-8.88-8.88,8.88,8.88,0,0,0-8.91,8.85,8.84,8.84,0,0,0,2.6,6.29A8.9,8.9,0,0,0,126.51-131.85Z"/></clipPath><clipPath id="clip-path-30"><path class="cls-1" d="M73.3-148.39a4.88,4.88,0,0,1,4.52,3,4.85,4.85,0,0,1-1,5.3A4.87,4.87,0,0,1,71.46-139a4.87,4.87,0,0,1-3-4.5A4.86,4.86,0,0,1,73.3-148.39Zm0,13.73a8.89,8.89,0,0,0,8.23-5.46,8.85,8.85,0,0,0-1.91-9.68,8.91,8.91,0,0,0-9.7-1.94,8.87,8.87,0,0,0-5.49,8.2A8.88,8.88,0,0,0,73.3-134.66Z"/></clipPath><clipPath id="clip-path-31"><circle class="cls-1" cx="102.26" cy="-358.5" r="102.5"/></clipPath><clipPath id="clip-path-32"><path class="cls-1" d="M102.53-382a7.3,7.3,0,0,1,6.76,4.49,7.28,7.28,0,0,1-1.61,7.94,7.29,7.29,0,0,1-8,1.53,7.26,7.26,0,0,1-4.44-6.77,7.27,7.27,0,0,1,7.26-7.21Zm0,18.64A11.43,11.43,0,0,0,114-374.78a11.41,11.41,0,0,0-11.4-11.43,11.43,11.43,0,0,0-11.48,11.37,11.38,11.38,0,0,0,3.33,8.08A11.46,11.46,0,0,0,102.53-363.39Z"/></clipPath><clipPath id="clip-path-33"><path class="cls-1" d="M127-342.62a29.11,29.11,0,0,0-6.86-11.65,13.38,13.38,0,0,1,5-3.42,11.43,11.43,0,0,0,12.86,0c7.29,3,9.28,11.19,9.83,15.05Zm-46.72,8.18a35.22,35.22,0,0,1,1.13-6,27.45,27.45,0,0,1,7.52-12.32,18.29,18.29,0,0,1,5.15-2.95,14.36,14.36,0,0,0,16.74,0,18.21,18.21,0,0,1,5.19,3.22A25.2,25.2,0,0,1,123.49-340a38.65,38.65,0,0,1,1.11,5.63Zm-23-7.94c.55-3.88,2.57-12.05,9.84-15a11.42,11.42,0,0,0,12.83,0,13.44,13.44,0,0,1,4.89,2.78,27.72,27.72,0,0,0-7.15,12.05Zm80.91-19.53a2.08,2.08,0,0,0-2.05.45l-.12.12a7.07,7.07,0,0,1-8.88,0l-.22-.22a2.1,2.1,0,0,0-2.06-.47,17.41,17.41,0,0,0-7.88,5,22.64,22.64,0,0,0-6.06-3,2.12,2.12,0,0,0-2,.42l-.19.19a10,10,0,0,1-12.69,0l-.18-.21a2.11,2.11,0,0,0-2.06-.44,23.56,23.56,0,0,0-5.83,2.69,18.07,18.07,0,0,0-7.89-4.39,2.05,2.05,0,0,0-2,.44l-.18.18a7.1,7.1,0,0,1-8.94,0l-.12-.14a2.05,2.05,0,0,0-2.05-.44C53.48-357.31,53-341,53-340.47a2,2,0,0,0,2,2l21.75-.14a34.58,34.58,0,0,0-.76,6.17,2,2,0,0,0,2,2h48.76a2,2,0,0,0,2-2,37.05,37.05,0,0,0-.82-6h22a2,2,0,0,0,2.06-2C152.12-341.37,151.62-357.63,138.21-361.91Z"/></clipPath><clipPath id="clip-path-34"><path class="cls-1" d="M126.51-375.59a4.87,4.87,0,0,1,4.5,3,4.86,4.86,0,0,1-1.07,5.3,4.9,4.9,0,0,1-5.31,1,4.86,4.86,0,0,1-3-4.51A4.86,4.86,0,0,1,126.51-375.59Zm0,13.74a8.88,8.88,0,0,0,8.89-8.87,8.87,8.87,0,0,0-8.88-8.88,8.88,8.88,0,0,0-8.91,8.85,8.84,8.84,0,0,0,2.6,6.29A8.9,8.9,0,0,0,126.51-361.85Z"/></clipPath><clipPath id="clip-path-35"><path class="cls-1" d="M73.3-378.39a4.88,4.88,0,0,1,4.52,3,4.85,4.85,0,0,1-1,5.3A4.87,4.87,0,0,1,71.46-369a4.87,4.87,0,0,1-3-4.5A4.86,4.86,0,0,1,73.3-378.39Zm0,13.73a8.89,8.89,0,0,0,8.23-5.46,8.85,8.85,0,0,0-1.91-9.68,8.91,8.91,0,0,0-9.7-1.94,8.87,8.87,0,0,0-5.49,8.2A8.88,8.88,0,0,0,73.3-364.66Z"/></clipPath><clipPath id="clip-path-36"><circle class="cls-1" cx="408.26" cy="820.5" r="102.5"/></clipPath><clipPath id="clip-path-37"><rect class="cls-1" x="418.49" y="801.55" width="40.36" height="68.3"/></clipPath><clipPath id="clip-path-38"><rect class="cls-1" x="359.5" y="801.55" width="40.36" height="68.3"/></clipPath><clipPath id="clip-path-39"><path class="cls-2" d="M378.13,810.86v-6.21a31,31,0,0,1,62.09,0v12.42h3.11V802.74h-.06a34.15,34.15,0,0,0-68.19,0H375v14.33h3.11Z"/></clipPath><clipPath id="clip-path-40"><path class="cls-2" d="M409.23,800.64a9,9,0,1,0-6.32-2.64,8.94,8.94,0,0,0,6.32,2.64m0-14.62v0a5.69,5.69,0,1,1-5.68,5.63,5.68,5.68,0,0,1,5.68-5.63"/></clipPath><clipPath id="clip-path-41"><path class="cls-2" d="M395.42,807.52a21.73,21.73,0,0,0-5.59,9.44l-.72,3.11a28,28,0,0,0-.6,4.83,1.59,1.59,0,0,0,1.61,1.57h38.11a1.59,1.59,0,0,0,1.61-1.57,29.09,29.09,0,0,0-.65-4.73s-2-10.21-8.65-14.51a20.28,20.28,0,0,0-4.74-2.33,1.64,1.64,0,0,0-1.6.33l-.14.14a7.82,7.82,0,0,1-9.93,0l-.14-.15a1.63,1.63,0,0,0-1.61-.35,14.49,14.49,0,0,0-4.56,2.11c-.63.48-2.4,2.11-2.4,2.11m7.2-.88a11.22,11.22,0,0,0,13.09,0,14.32,14.32,0,0,1,4.06,2.52,19.7,19.7,0,0,1,5.84,9.77,30.17,30.17,0,0,1,.87,4.41l-34.64,0a28.22,28.22,0,0,1,.88-4.72,21.47,21.47,0,0,1,5.87-9.65,14.31,14.31,0,0,1,4-2.31"/></clipPath><clipPath id="clip-path-42"><circle class="cls-1" cx="408.26" cy="576.5" r="102.5"/></clipPath><clipPath id="clip-path-43"><rect class="cls-1" x="418.56" y="557.46" width="40.65" height="68.64"/></clipPath><clipPath id="clip-path-44"><rect class="cls-1" x="359.15" y="557.45" width="40.65" height="68.64"/></clipPath><clipPath id="clip-path-45"><path class="cls-2" d="M377.91,566.82v-6.25a31.27,31.27,0,0,1,62.54,0v12.48h3.13v-14.4h-.06a34.4,34.4,0,0,0-68.68,0h-.06v14.4h3.13Z"/></clipPath><clipPath id="clip-path-46"><path class="cls-2" d="M409.24,556.54a9,9,0,1,0-6.37-2.65,9,9,0,0,0,6.37,2.65m0-14.69v0a5.72,5.72,0,1,1-5.72,5.66,5.74,5.74,0,0,1,5.72-5.66"/></clipPath><clipPath id="clip-path-47"><path class="cls-2" d="M395.32,563.46A21.81,21.81,0,0,0,389.7,573l-.73,3.11a27.48,27.48,0,0,0-.6,4.86A1.6,1.6,0,0,0,390,582.5h38.39a1.6,1.6,0,0,0,1.61-1.58,29.31,29.31,0,0,0-.64-4.75s-2-10.26-8.72-14.58a20.32,20.32,0,0,0-4.77-2.34,1.65,1.65,0,0,0-1.62.33l-.14.14a7.9,7.9,0,0,1-10,0l-.14-.16a1.65,1.65,0,0,0-1.62-.34,14.45,14.45,0,0,0-4.59,2.12c-.65.48-2.43,2.12-2.43,2.12m7.26-.89a11.32,11.32,0,0,0,13.18,0,14.36,14.36,0,0,1,4.09,2.53,19.91,19.91,0,0,1,5.89,9.82,30.69,30.69,0,0,1,.87,4.43H391.72a28.4,28.4,0,0,1,.89-4.75,21.62,21.62,0,0,1,5.91-9.7,14.75,14.75,0,0,1,4.06-2.32"/></clipPath><clipPath id="clip-path-48"><circle class="cls-1" cx="408.26" cy="336.5" r="102.5"/></clipPath><clipPath id="clip-path-49"><rect class="cls-1" x="418.56" y="317.46" width="40.65" height="68.64"/></clipPath><clipPath id="clip-path-50"><rect class="cls-1" x="359.15" y="317.45" width="40.65" height="68.64"/></clipPath><clipPath id="clip-path-51"><path class="cls-2" d="M377.91,326.82v-6.25a31.27,31.27,0,0,1,62.54,0v12.48h3.13v-14.4h-.06a34.4,34.4,0,0,0-68.68,0h-.06v14.4h3.13Z"/></clipPath><clipPath id="clip-path-52"><path class="cls-2" d="M409.24,316.54a9,9,0,1,0-6.37-2.65,9,9,0,0,0,6.37,2.65m0-14.69v0a5.72,5.72,0,1,1-5.72,5.66,5.74,5.74,0,0,1,5.72-5.66"/></clipPath><clipPath id="clip-path-53"><path class="cls-2" d="M395.32,323.46A21.81,21.81,0,0,0,389.7,333l-.73,3.11a27.48,27.48,0,0,0-.6,4.86A1.6,1.6,0,0,0,390,342.5h38.39a1.6,1.6,0,0,0,1.61-1.58,29.31,29.31,0,0,0-.64-4.75s-2-10.26-8.72-14.58a20.32,20.32,0,0,0-4.77-2.34,1.65,1.65,0,0,0-1.62.33l-.14.14a7.9,7.9,0,0,1-10,0l-.14-.16a1.65,1.65,0,0,0-1.62-.34,14.45,14.45,0,0,0-4.59,2.12c-.65.48-2.43,2.12-2.43,2.12m7.26-.89a11.32,11.32,0,0,0,13.18,0,14.36,14.36,0,0,1,4.09,2.53,19.91,19.91,0,0,1,5.89,9.82,30.69,30.69,0,0,1,.87,4.43H391.72a28.4,28.4,0,0,1,.89-4.75,21.62,21.62,0,0,1,5.91-9.7,14.75,14.75,0,0,1,4.06-2.32"/></clipPath><clipPath id="clip-path-54"><circle class="cls-1" cx="408.26" cy="102.5" r="102.5"/></clipPath><clipPath id="clip-path-55"><rect class="cls-1" x="418.56" y="83.46" width="40.65" height="68.64"/></clipPath><clipPath id="clip-path-56"><rect class="cls-1" x="359.15" y="83.45" width="40.65" height="68.64"/></clipPath><clipPath id="clip-path-57"><path class="cls-2" d="M377.91,92.82V86.57a31.27,31.27,0,0,1,62.54,0V99.05h3.13V84.65h-.06a34.4,34.4,0,0,0-68.68,0h-.06v14.4h3.13Z"/></clipPath><clipPath id="clip-path-58"><path class="cls-2" d="M409.24,82.54a9,9,0,1,0-6.37-2.65,9,9,0,0,0,6.37,2.65m0-14.69v0a5.72,5.72,0,1,1-5.72,5.66,5.74,5.74,0,0,1,5.72-5.66"/></clipPath><clipPath id="clip-path-59"><path class="cls-2" d="M395.32,89.46A21.81,21.81,0,0,0,389.7,99l-.73,3.11a27.48,27.48,0,0,0-.6,4.86A1.6,1.6,0,0,0,390,108.5h38.39a1.6,1.6,0,0,0,1.61-1.58,29.31,29.31,0,0,0-.64-4.75s-2-10.26-8.72-14.58a20.32,20.32,0,0,0-4.77-2.34,1.65,1.65,0,0,0-1.62.33l-.14.14a7.9,7.9,0,0,1-10,0l-.14-.16a1.65,1.65,0,0,0-1.62-.34,14.45,14.45,0,0,0-4.59,2.12c-.65.48-2.43,2.12-2.43,2.12m7.26-.89a11.32,11.32,0,0,0,13.18,0,14.36,14.36,0,0,1,4.09,2.53,19.91,19.91,0,0,1,5.89,9.82,30.69,30.69,0,0,1,.87,4.43H391.72a28.4,28.4,0,0,1,.89-4.75,21.62,21.62,0,0,1,5.91-9.7,14.75,14.75,0,0,1,4.06-2.32"/></clipPath><clipPath id="clip-path-60"><circle class="cls-1" cx="408.26" cy="-128.5" r="102.5"/></clipPath><clipPath id="clip-path-61"><rect class="cls-1" x="418.56" y="-147.54" width="40.65" height="68.64"/></clipPath><clipPath id="clip-path-62"><rect class="cls-1" x="359.15" y="-147.55" width="40.65" height="68.64"/></clipPath><clipPath id="clip-path-63"><path class="cls-2" d="M377.91-138.18v-6.25a31.27,31.27,0,0,1,31.27-31.19,31.26,31.26,0,0,1,31.27,31.19v12.48h3.13v-14.4h-.06a34.4,34.4,0,0,0-34.34-32.39,34.4,34.4,0,0,0-34.34,32.39h-.06v14.4h3.13Z"/></clipPath><clipPath id="clip-path-64"><path class="cls-2" d="M409.24-148.46a9,9,0,0,0,9-9,9,9,0,0,0-9-9,9,9,0,0,0-9,9,8.94,8.94,0,0,0,2.62,6.36,9,9,0,0,0,6.37,2.65m0-14.69v0a5.74,5.74,0,0,1,5.32,3.53,5.74,5.74,0,0,1-1.27,6.26,5.74,5.74,0,0,1-6.27,1.2,5.7,5.7,0,0,1-3.5-5.33,5.72,5.72,0,0,1,5.72-5.68"/></clipPath><clipPath id="clip-path-65"><path class="cls-2" d="M395.32-141.54A21.81,21.81,0,0,0,389.7-132l-.73,3.11a27.48,27.48,0,0,0-.6,4.86A1.6,1.6,0,0,0,390-122.5h38.39a1.6,1.6,0,0,0,1.61-1.58,29.31,29.31,0,0,0-.64-4.75s-2-10.26-8.72-14.58a20.32,20.32,0,0,0-4.77-2.34,1.65,1.65,0,0,0-1.62.33l-.14.14a7.9,7.9,0,0,1-10,0l-.14-.16a1.65,1.65,0,0,0-1.62-.34,14.45,14.45,0,0,0-4.59,2.12c-.65.48-2.43,2.12-2.43,2.12m7.26-.89a11.32,11.32,0,0,0,13.18,0,14.36,14.36,0,0,1,4.09,2.53,19.91,19.91,0,0,1,5.89,9.82,30.69,30.69,0,0,1,.87,4.43H391.72a28.4,28.4,0,0,1,.89-4.75,21.62,21.62,0,0,1,5.91-9.7,14.75,14.75,0,0,1,4.06-2.32"/></clipPath><clipPath id="clip-path-66"><circle class="cls-1" cx="408.26" cy="-358.5" r="102.5"/></clipPath><clipPath id="clip-path-67"><rect class="cls-1" x="418.56" y="-377.54" width="40.65" height="68.64"/></clipPath><clipPath id="clip-path-68"><rect class="cls-1" x="359.15" y="-377.55" width="40.65" height="68.64"/></clipPath><clipPath id="clip-path-69"><path class="cls-2" d="M377.91-368.18v-6.25a31.27,31.27,0,0,1,31.27-31.19,31.26,31.26,0,0,1,31.27,31.19v12.48h3.13v-14.4h-.06a34.4,34.4,0,0,0-34.34-32.39,34.4,34.4,0,0,0-34.34,32.39h-.06v14.4h3.13Z"/></clipPath><clipPath id="clip-path-70"><path class="cls-2" d="M409.24-378.46a9,9,0,0,0,9-9,9,9,0,0,0-9-9,9,9,0,0,0-9,9,8.94,8.94,0,0,0,2.62,6.36,9,9,0,0,0,6.37,2.65m0-14.69v0a5.74,5.74,0,0,1,5.32,3.53,5.74,5.74,0,0,1-1.27,6.26,5.74,5.74,0,0,1-6.27,1.2,5.7,5.7,0,0,1-3.5-5.33,5.72,5.72,0,0,1,5.72-5.68"/></clipPath><clipPath id="clip-path-71"><path class="cls-2" d="M395.32-371.54A21.81,21.81,0,0,0,389.7-362l-.73,3.11a27.48,27.48,0,0,0-.6,4.86A1.6,1.6,0,0,0,390-352.5h38.39a1.6,1.6,0,0,0,1.61-1.58,29.31,29.31,0,0,0-.64-4.75s-2-10.26-8.72-14.58a20.32,20.32,0,0,0-4.77-2.34,1.65,1.65,0,0,0-1.62.33l-.14.14a7.9,7.9,0,0,1-10,0l-.14-.16a1.65,1.65,0,0,0-1.62-.34,14.45,14.45,0,0,0-4.59,2.12c-.65.48-2.43,2.12-2.43,2.12m7.26-.89a11.32,11.32,0,0,0,13.18,0,14.36,14.36,0,0,1,4.09,2.53,19.91,19.91,0,0,1,5.89,9.82,30.69,30.69,0,0,1,.87,4.43H391.72a28.4,28.4,0,0,1,.89-4.75,21.62,21.62,0,0,1,5.91-9.7,14.75,14.75,0,0,1,4.06-2.32"/></clipPath><clipPath id="clip-path-72"><path class="cls-1" d="M705,790a5.74,5.74,0,0,1,3.4-3.4,6.26,6.26,0,0,1,2.27-.42,5.89,5.89,0,0,1,5.3,3l1.12,2.31a2,2,0,0,0,3.56,0l1.11-2.31a6.11,6.11,0,0,1,7.6-2.62,5.77,5.77,0,0,1,3.4,3.4,3.15,3.15,0,0,1-.32,2.78,125.8,125.8,0,0,1-13.54,15,125,125,0,0,1-13.55-15A3.19,3.19,0,0,1,705,790Zm11.5,21a3.39,3.39,0,0,0,4.75,0,139.83,139.83,0,0,0,14.45-16,6.94,6.94,0,0,0,.77-6.07,9.6,9.6,0,0,0-5.69-5.83,10.18,10.18,0,0,0-11.92,3.42,10.17,10.17,0,0,0-11.9-3.42,9.58,9.58,0,0,0-5.71,5.83,7,7,0,0,0,.78,6.07A141.9,141.9,0,0,0,716.45,811Z"/></clipPath><clipPath id="clip-path-73"><path class="cls-1" d="M705,546a5.74,5.74,0,0,1,3.4-3.4,6.26,6.26,0,0,1,2.27-.42,5.89,5.89,0,0,1,5.3,3l1.12,2.31a2,2,0,0,0,3.56,0l1.11-2.31a6.11,6.11,0,0,1,7.6-2.62,5.77,5.77,0,0,1,3.4,3.4,3.15,3.15,0,0,1-.32,2.78,125.8,125.8,0,0,1-13.54,15,125,125,0,0,1-13.55-15A3.19,3.19,0,0,1,705,546Zm11.5,21a3.39,3.39,0,0,0,4.75,0,139.83,139.83,0,0,0,14.45-16,6.94,6.94,0,0,0,.77-6.07,9.6,9.6,0,0,0-5.69-5.83,10.18,10.18,0,0,0-11.92,3.42,10.17,10.17,0,0,0-11.9-3.42,9.58,9.58,0,0,0-5.71,5.83,7,7,0,0,0,.78,6.07A141.9,141.9,0,0,0,716.45,567Z"/></clipPath><clipPath id="clip-path-74"><path class="cls-1" d="M705,306a5.74,5.74,0,0,1,3.4-3.4,6.26,6.26,0,0,1,2.27-.42,5.89,5.89,0,0,1,5.3,3l1.12,2.31a2,2,0,0,0,3.56,0l1.11-2.31a6.11,6.11,0,0,1,7.6-2.62,5.77,5.77,0,0,1,3.4,3.4,3.15,3.15,0,0,1-.32,2.78,125.8,125.8,0,0,1-13.54,15,125,125,0,0,1-13.55-15A3.19,3.19,0,0,1,705,306ZM716.45,327a3.39,3.39,0,0,0,4.75,0,139.83,139.83,0,0,0,14.45-16,6.94,6.94,0,0,0,.77-6.07,9.6,9.6,0,0,0-5.69-5.83,10.18,10.18,0,0,0-11.92,3.42,10.17,10.17,0,0,0-11.9-3.42,9.58,9.58,0,0,0-5.71,5.83,7,7,0,0,0,.78,6.07A141.9,141.9,0,0,0,716.45,327Z"/></clipPath><clipPath id="clip-path-75"><path class="cls-1" d="M705,72a5.74,5.74,0,0,1,3.4-3.4,6.26,6.26,0,0,1,2.27-.42,5.89,5.89,0,0,1,5.3,3L717,73.54a2,2,0,0,0,3.56,0l1.11-2.31a6.11,6.11,0,0,1,7.6-2.62,5.77,5.77,0,0,1,3.4,3.4,3.15,3.15,0,0,1-.32,2.78,125.8,125.8,0,0,1-13.54,15,125,125,0,0,1-13.55-15A3.19,3.19,0,0,1,705,72ZM716.45,93a3.39,3.39,0,0,0,4.75,0,139.83,139.83,0,0,0,14.45-16,6.94,6.94,0,0,0,.77-6.07A9.6,9.6,0,0,0,730.73,65a10.18,10.18,0,0,0-11.92,3.42A10.17,10.17,0,0,0,706.91,65a9.58,9.58,0,0,0-5.71,5.83,7,7,0,0,0,.78,6.07A141.9,141.9,0,0,0,716.45,93Z"/></clipPath><clipPath id="clip-path-76"><path class="cls-1" d="M705-159a5.74,5.74,0,0,1,3.4-3.4,6.26,6.26,0,0,1,2.27-.42,5.89,5.89,0,0,1,5.3,3l1.12,2.31a2,2,0,0,0,1.78,1.12,2,2,0,0,0,1.78-1.12l1.11-2.31a6.11,6.11,0,0,1,7.6-2.62,5.77,5.77,0,0,1,3.4,3.4,3.15,3.15,0,0,1-.32,2.78,125.8,125.8,0,0,1-13.54,15,125,125,0,0,1-13.55-15A3.19,3.19,0,0,1,705-159Zm11.5,21a3.4,3.4,0,0,0,2.38,1,3.38,3.38,0,0,0,2.37-1,139.83,139.83,0,0,0,14.45-16,6.94,6.94,0,0,0,.77-6.07,9.6,9.6,0,0,0-5.69-5.83,10.18,10.18,0,0,0-11.92,3.42,10.17,10.17,0,0,0-11.9-3.42,9.58,9.58,0,0,0-5.71,5.83,7,7,0,0,0,.78,6.07A141.9,141.9,0,0,0,716.45-138Z"/></clipPath><clipPath id="clip-path-77"><path class="cls-1" d="M705-389a5.74,5.74,0,0,1,3.4-3.4,6.26,6.26,0,0,1,2.27-.42,5.89,5.89,0,0,1,5.3,3l1.12,2.31a2,2,0,0,0,1.78,1.12,2,2,0,0,0,1.78-1.12l1.11-2.31a6.11,6.11,0,0,1,7.6-2.62,5.77,5.77,0,0,1,3.4,3.4,3.15,3.15,0,0,1-.32,2.78,125.8,125.8,0,0,1-13.54,15,125,125,0,0,1-13.55-15A3.19,3.19,0,0,1,705-389ZM716.45-368a3.4,3.4,0,0,0,2.38,1,3.38,3.38,0,0,0,2.37-1,139.83,139.83,0,0,0,14.45-16,6.94,6.94,0,0,0,.77-6.07,9.6,9.6,0,0,0-5.69-5.83,10.18,10.18,0,0,0-11.92,3.42,10.17,10.17,0,0,0-11.9-3.42,9.58,9.58,0,0,0-5.71,5.83,7,7,0,0,0,.78,6.07A141.9,141.9,0,0,0,716.45-368Z"/></clipPath></defs><title>Pictos Ronds</title><g class="cls-18"><g class="cls-19"><rect class="cls-20" x="-5.27" y="-5.02" width="215.07" height="215.05"/></g></g><g class="cls-21"><g class="cls-19"><rect class="cls-22" x="86.08" y="69.76" width="32.95" height="32.87"/></g></g><g class="cls-23"><g class="cls-19"><rect class="cls-22" x="47.95" y="93.85" width="109.2" height="41.75"/></g></g><g class="cls-24"><g class="cls-19"><rect class="cls-22" x="112.57" y="76.37" width="27.86" height="27.8"/></g></g><g class="cls-25"><g class="cls-19"><rect class="cls-22" x="59.39" y="73.56" width="27.86" height="27.8"/></g></g></svg>