<svg id="Calque_1" data-name="Calque 1" xmlns="http://www.w3.org/2000/svg" xmlns:xlink="http://www.w3.org/1999/xlink" viewBox="0 0 205 205"><defs><style>.cls-1,.cls-2{fill:none;}.cls-2{clip-rule:evenodd;}.cls-3{clip-path:url(#clip-path);}.cls-4{clip-path:url(#clip-path-2);}.cls-5{clip-path:url(#clip-path-3);}.cls-6{clip-path:url(#clip-path-4);}.cls-7{clip-path:url(#clip-path-5);}.cls-8{clip-path:url(#clip-path-6);}.cls-9{clip-path:url(#clip-path-7);}.cls-10{clip-path:url(#clip-path-8);}.cls-11{clip-path:url(#clip-path-9);}.cls-12{clip-path:url(#clip-path-10);}.cls-13{clip-path:url(#clip-path-11);}.cls-14{clip-path:url(#clip-path-12);}.cls-15{clip-path:url(#clip-path-13);}.cls-16{clip-path:url(#clip-path-14);}.cls-17{clip-path:url(#clip-path-15);}.cls-18{clip-path:url(#clip-path-16);}.cls-19{clip-path:url(#clip-path-17);}.cls-20{clip-path:url(#clip-path-18);}.cls-21{clip-path:url(#clip-path-19);}.cls-22{clip-path:url(#clip-path-20);}.cls-23{clip-path:url(#clip-path-21);}.cls-24{clip-path:url(#clip-path-22);}.cls-25{clip-path:url(#clip-path-23);}.cls-26{clip-path:url(#clip-path-24);}.cls-27{clip-path:url(#clip-path-25);}.cls-28{clip-path:url(#clip-path-26);}.cls-29{clip-path:url(#clip-path-27);}.cls-30{clip-path:url(#clip-path-28);}.cls-31{clip-path:url(#clip-path-29);}.cls-32{clip-path:url(#clip-path-30);}.cls-33{clip-path:url(#clip-path-31);}.cls-34{clip-path:url(#clip-path-32);}.cls-35{clip-path:url(#clip-path-33);}.cls-36{clip-path:url(#clip-path-34);}.cls-37{clip-path:url(#clip-path-35);}.cls-38{clip-path:url(#clip-path-36);}.cls-39{clip-path:url(#clip-path-37);}.cls-40{clip-path:url(#clip-path-38);}.cls-41{clip-path:url(#clip-path-39);}.cls-42{clip-path:url(#clip-path-40);}.cls-43{clip-path:url(#clip-path-41);}.cls-44{clip-path:url(#clip-path-42);}.cls-45{clip-path:url(#clip-path-43);}.cls-46{clip-path:url(#clip-path-44);}.cls-47{clip-path:url(#clip-path-45);}.cls-48{clip-path:url(#clip-path-46);}.cls-49{clip-path:url(#clip-path-47);}.cls-50{clip-path:url(#clip-path-48);}.cls-51{clip-path:url(#clip-path-49);}.cls-52{clip-path:url(#clip-path-50);}.cls-53{clip-path:url(#clip-path-51);}.cls-54{clip-path:url(#clip-path-52);}.cls-55{clip-path:url(#clip-path-53);}.cls-56{clip-path:url(#clip-path-54);}.cls-57{clip-path:url(#clip-path-55);}.cls-58{clip-path:url(#clip-path-56);}.cls-59{clip-path:url(#clip-path-57);}.cls-60{clip-path:url(#clip-path-58);}.cls-61{clip-path:url(#clip-path-59);}.cls-62{clip-path:url(#clip-path-60);}.cls-63{clip-path:url(#clip-path-61);}.cls-64{clip-path:url(#clip-path-62);}.cls-65{clip-path:url(#clip-path-63);}.cls-66{clip-path:url(#clip-path-64);}.cls-67{clip-path:url(#clip-path-65);}.cls-68{clip-path:url(#clip-path-66);}.cls-69{clip-path:url(#clip-path-67);}.cls-70{clip-path:url(#clip-path-68);}.cls-71{clip-path:url(#clip-path-69);}.cls-72{clip-path:url(#clip-path-70);}.cls-73{clip-path:url(#clip-path-71);}.cls-74{fill:#9c0;}.cls-75{clip-path:url(#clip-path-72);}.cls-76{fill:#fff;}.cls-77{clip-path:url(#clip-path-73);}.cls-78{clip-path:url(#clip-path-74);}</style><clipPath id="clip-path"><ellipse class="cls-1" cx="-514.74" cy="1281.5" rx="102.26" ry="102.5"/></clipPath><clipPath id="clip-path-2"><path class="cls-1" d="M-514.47,1258a7.28,7.28,0,0,1,6.74,4.49,7.27,7.27,0,0,1-1.6,7.94,7.26,7.26,0,0,1-7.95,1.53,7.27,7.27,0,0,1-4.44-6.77,7.27,7.27,0,0,1,7.25-7.21Zm0,18.64A11.41,11.41,0,0,0-503,1265.22a11.39,11.39,0,0,0-11.37-11.43,11.41,11.41,0,0,0-11.45,11.37,11.37,11.37,0,0,0,3.32,8.08A11.43,11.43,0,0,0-514.47,1276.61Z"/></clipPath><clipPath id="clip-path-3"><path class="cls-1" d="M-490.06,1297.38a29.07,29.07,0,0,0-6.84-11.65,13.34,13.34,0,0,1,5-3.42,11.37,11.37,0,0,0,12.82,0c7.28,3,9.27,11.19,9.82,15Zm-46.61,8.18a35.22,35.22,0,0,1,1.13-6,27.41,27.41,0,0,1,7.5-12.32,18.24,18.24,0,0,1,5.14-3,14.29,14.29,0,0,0,16.7,0,18.15,18.15,0,0,1,5.18,3.22,25.24,25.24,0,0,1,7.46,12.47,38.65,38.65,0,0,1,1.11,5.63Zm-22.93-7.94c.56-3.88,2.57-12,9.82-15a11.37,11.37,0,0,0,12.8,0,13.39,13.39,0,0,1,4.88,2.78,27.78,27.78,0,0,0-7.13,12Zm80.73-19.53a2.08,2.08,0,0,0-2.05.45l-.12.12a7,7,0,0,1-8.85,0l-.23-.22a2.08,2.08,0,0,0-2.05-.47,17.44,17.44,0,0,0-7.87,5,22.37,22.37,0,0,0-6-3,2.12,2.12,0,0,0-2.05.42l-.18.19a10,10,0,0,1-12.66,0l-.19-.21a2.1,2.1,0,0,0-2.05-.44,23.33,23.33,0,0,0-5.82,2.69,18,18,0,0,0-7.86-4.39,2,2,0,0,0-2.05.44l-.19.18a7.06,7.06,0,0,1-8.91,0l-.12-.14a2.05,2.05,0,0,0-2.05-.44c-13.2,4.35-13.69,20.61-13.69,21.19a2,2,0,0,0,2,2l21.7-.14a34.58,34.58,0,0,0-.76,6.17,2,2,0,0,0,2,2h48.64a2,2,0,0,0,2.05-2,37.05,37.05,0,0,0-.82-6H-467a2,2,0,0,0,2.05-2C-465,1298.63-465.49,1282.37-478.87,1278.09Z"/></clipPath><clipPath id="clip-path-4"><path class="cls-1" d="M-490.55,1264.41a4.86,4.86,0,0,1,4.49,3,4.87,4.87,0,0,1-1.06,5.3,4.89,4.89,0,0,1-5.3,1,4.86,4.86,0,0,1-3-4.51A4.86,4.86,0,0,1-490.55,1264.41Zm0,13.74a8.88,8.88,0,0,0,8.88-8.87,8.88,8.88,0,0,0-8.87-8.88,8.87,8.87,0,0,0-8.89,8.85,8.88,8.88,0,0,0,2.6,6.29A8.85,8.85,0,0,0-490.55,1278.15Z"/></clipPath><clipPath id="clip-path-5"><path class="cls-1" d="M-543.63,1261.61a4.85,4.85,0,0,1,4.5,3,4.85,4.85,0,0,1-1,5.3,4.86,4.86,0,0,1-5.3,1.07,4.88,4.88,0,0,1-3-4.5A4.85,4.85,0,0,1-543.63,1261.61Zm0,13.73a8.87,8.87,0,0,0,8.21-5.46,8.87,8.87,0,0,0-1.91-9.68,8.86,8.86,0,0,0-9.67-1.94,8.89,8.89,0,0,0-5.49,8.2A8.87,8.87,0,0,0-543.63,1275.34Z"/></clipPath><clipPath id="clip-path-6"><circle class="cls-1" cx="-514.74" cy="1037.5" r="102.5"/></clipPath><clipPath id="clip-path-7"><path class="cls-1" d="M-514.47,1014a7.3,7.3,0,0,1,6.76,4.49,7.28,7.28,0,0,1-1.61,7.94,7.29,7.29,0,0,1-8,1.53,7.26,7.26,0,0,1-4.44-6.77,7.27,7.27,0,0,1,7.26-7.21Zm0,18.64A11.43,11.43,0,0,0-503,1021.22a11.41,11.41,0,0,0-11.4-11.43,11.43,11.43,0,0,0-11.48,11.37,11.38,11.38,0,0,0,3.33,8.08A11.46,11.46,0,0,0-514.47,1032.61Z"/></clipPath><clipPath id="clip-path-8"><path class="cls-1" d="M-490,1053.38a29.11,29.11,0,0,0-6.86-11.65,13.38,13.38,0,0,1,5-3.42,11.43,11.43,0,0,0,12.86,0c7.29,3,9.28,11.19,9.83,15Zm-46.72,8.18a35.22,35.22,0,0,1,1.13-6,27.45,27.45,0,0,1,7.52-12.32,18.29,18.29,0,0,1,5.15-3,14.36,14.36,0,0,0,16.74,0,18.21,18.21,0,0,1,5.19,3.22,25.2,25.2,0,0,1,7.48,12.47,38.65,38.65,0,0,1,1.11,5.63Zm-23-7.94c.55-3.88,2.57-12,9.84-15a11.42,11.42,0,0,0,12.83,0,13.44,13.44,0,0,1,4.89,2.78,27.72,27.72,0,0,0-7.15,12Zm80.91-19.53a2.08,2.08,0,0,0-2,.45l-.12.12a7.07,7.07,0,0,1-8.88,0l-.22-.22a2.1,2.1,0,0,0-2.06-.47,17.41,17.41,0,0,0-7.88,5,22.64,22.64,0,0,0-6.06-3,2.12,2.12,0,0,0-2.05.42l-.19.19a10,10,0,0,1-12.69,0l-.18-.21a2.11,2.11,0,0,0-2.06-.44,23.56,23.56,0,0,0-5.83,2.69,18.07,18.07,0,0,0-7.89-4.39,2.05,2.05,0,0,0-2,.44l-.18.18a7.1,7.1,0,0,1-8.94,0l-.12-.14a2.05,2.05,0,0,0-2-.44c-13.23,4.35-13.72,20.61-13.72,21.19a2,2,0,0,0,2,2l21.75-.14a34.58,34.58,0,0,0-.76,6.17,2,2,0,0,0,2.05,2h48.76a2,2,0,0,0,2.05-2,37.05,37.05,0,0,0-.82-6h22a2,2,0,0,0,2.06-2C-464.88,1054.63-465.38,1038.37-478.79,1034.09Z"/></clipPath><clipPath id="clip-path-9"><path class="cls-1" d="M-490.67,1020.5a4.84,4.84,0,0,1,4.47,3,4.82,4.82,0,0,1-1.06,5.27,4.82,4.82,0,0,1-5.27,1,4.82,4.82,0,0,1-3-4.48A4.83,4.83,0,0,1-490.67,1020.5Zm0,13.66a8.82,8.82,0,0,0,8.83-8.82,8.82,8.82,0,0,0-8.81-8.84,8.83,8.83,0,0,0-8.85,8.81,8.8,8.8,0,0,0,2.58,6.26A8.84,8.84,0,0,0-490.67,1034.16Z"/></clipPath><clipPath id="clip-path-10"><path class="cls-1" d="M-543.7,1017.61a4.88,4.88,0,0,1,4.52,3,4.85,4.85,0,0,1-1.05,5.3,4.87,4.87,0,0,1-5.31,1.07,4.87,4.87,0,0,1-3-4.5A4.86,4.86,0,0,1-543.7,1017.61Zm0,13.73a8.89,8.89,0,0,0,8.23-5.46,8.85,8.85,0,0,0-1.91-9.68,8.91,8.91,0,0,0-9.7-1.94,8.87,8.87,0,0,0-5.49,8.2A8.88,8.88,0,0,0-543.7,1031.34Z"/></clipPath><clipPath id="clip-path-11"><circle class="cls-1" cx="-514.74" cy="797.5" r="102.5"/></clipPath><clipPath id="clip-path-12"><path class="cls-1" d="M-514.47,774a7.3,7.3,0,0,1,6.76,4.49,7.28,7.28,0,0,1-1.61,7.94,7.29,7.29,0,0,1-8,1.53,7.26,7.26,0,0,1-4.44-6.77,7.27,7.27,0,0,1,7.26-7.21Zm0,18.64A11.43,11.43,0,0,0-503,781.22a11.41,11.41,0,0,0-11.4-11.43,11.43,11.43,0,0,0-11.48,11.37,11.38,11.38,0,0,0,3.33,8.08A11.46,11.46,0,0,0-514.47,792.61Z"/></clipPath><clipPath id="clip-path-13"><path class="cls-1" d="M-490,813.38a29.11,29.11,0,0,0-6.86-11.65,13.38,13.38,0,0,1,5-3.42,11.43,11.43,0,0,0,12.86,0c7.29,3,9.28,11.19,9.83,15.05Zm-46.72,8.18a35.22,35.22,0,0,1,1.13-6,27.45,27.45,0,0,1,7.52-12.32,18.29,18.29,0,0,1,5.15-3,14.36,14.36,0,0,0,16.74,0,18.21,18.21,0,0,1,5.19,3.22A25.2,25.2,0,0,1-493.51,816a38.65,38.65,0,0,1,1.11,5.63Zm-23-7.94c.55-3.88,2.57-12,9.84-15a11.42,11.42,0,0,0,12.83,0,13.44,13.44,0,0,1,4.89,2.78,27.72,27.72,0,0,0-7.15,12.05Zm80.91-19.53a2.08,2.08,0,0,0-2,.45l-.12.12a7.07,7.07,0,0,1-8.88,0l-.22-.22a2.1,2.1,0,0,0-2.06-.47,17.41,17.41,0,0,0-7.88,5,22.64,22.64,0,0,0-6.06-3,2.12,2.12,0,0,0-2.05.42l-.19.19a10,10,0,0,1-12.69,0l-.18-.21a2.11,2.11,0,0,0-2.06-.44,23.56,23.56,0,0,0-5.83,2.69,18.07,18.07,0,0,0-7.89-4.39,2.05,2.05,0,0,0-2,.44l-.18.18a7.1,7.1,0,0,1-8.94,0l-.12-.14a2.05,2.05,0,0,0-2-.44C-563.52,798.69-564,815-564,815.53a2,2,0,0,0,2,2l21.75-.14a34.58,34.58,0,0,0-.76,6.17,2,2,0,0,0,2.05,2h48.76a2,2,0,0,0,2.05-2,37.05,37.05,0,0,0-.82-6h22a2,2,0,0,0,2.06-2C-464.88,814.63-465.38,798.37-478.79,794.09Z"/></clipPath><clipPath id="clip-path-14"><path class="cls-1" d="M-490.49,780.41a4.87,4.87,0,0,1,4.5,3,4.86,4.86,0,0,1-1.07,5.3,4.9,4.9,0,0,1-5.31,1,4.86,4.86,0,0,1-3-4.51A4.86,4.86,0,0,1-490.49,780.41Zm0,13.74a8.88,8.88,0,0,0,8.89-8.87,8.87,8.87,0,0,0-8.88-8.88,8.88,8.88,0,0,0-8.91,8.85,8.84,8.84,0,0,0,2.6,6.29A8.9,8.9,0,0,0-490.49,794.15Z"/></clipPath><clipPath id="clip-path-15"><path class="cls-1" d="M-543.7,777.61a4.88,4.88,0,0,1,4.52,3,4.85,4.85,0,0,1-1.05,5.3,4.87,4.87,0,0,1-5.31,1.07,4.87,4.87,0,0,1-3-4.5A4.86,4.86,0,0,1-543.7,777.61Zm0,13.73a8.89,8.89,0,0,0,8.23-5.46,8.85,8.85,0,0,0-1.91-9.68,8.91,8.91,0,0,0-9.7-1.94,8.87,8.87,0,0,0-5.49,8.2A8.88,8.88,0,0,0-543.7,791.34Z"/></clipPath><clipPath id="clip-path-16"><circle class="cls-1" cx="-514.74" cy="563.5" r="102.5"/></clipPath><clipPath id="clip-path-17"><path class="cls-1" d="M-514.47,540a7.3,7.3,0,0,1,6.76,4.49,7.28,7.28,0,0,1-1.61,7.94,7.29,7.29,0,0,1-8,1.53,7.26,7.26,0,0,1-4.44-6.77,7.27,7.27,0,0,1,7.26-7.21Zm0,18.64A11.43,11.43,0,0,0-503,547.22a11.41,11.41,0,0,0-11.4-11.43,11.43,11.43,0,0,0-11.48,11.37,11.38,11.38,0,0,0,3.33,8.08A11.46,11.46,0,0,0-514.47,558.61Z"/></clipPath><clipPath id="clip-path-18"><path class="cls-1" d="M-490,579.38a29.11,29.11,0,0,0-6.86-11.65,13.38,13.38,0,0,1,5-3.42,11.43,11.43,0,0,0,12.86,0c7.29,3,9.28,11.19,9.83,15.05Zm-46.72,8.18a35.22,35.22,0,0,1,1.13-6,27.45,27.45,0,0,1,7.52-12.32,18.29,18.29,0,0,1,5.15-3,14.36,14.36,0,0,0,16.74,0,18.21,18.21,0,0,1,5.19,3.22A25.2,25.2,0,0,1-493.51,582a38.65,38.65,0,0,1,1.11,5.63Zm-23-7.94c.55-3.88,2.57-12,9.84-15a11.42,11.42,0,0,0,12.83,0,13.44,13.44,0,0,1,4.89,2.78,27.72,27.72,0,0,0-7.15,12.05Zm80.91-19.53a2.08,2.08,0,0,0-2,.45l-.12.12a7.07,7.07,0,0,1-8.88,0l-.22-.22a2.1,2.1,0,0,0-2.06-.47,17.41,17.41,0,0,0-7.88,5,22.64,22.64,0,0,0-6.06-3,2.12,2.12,0,0,0-2.05.42l-.19.19a10,10,0,0,1-12.69,0l-.18-.21a2.11,2.11,0,0,0-2.06-.44,23.56,23.56,0,0,0-5.83,2.69,18.07,18.07,0,0,0-7.89-4.39,2.05,2.05,0,0,0-2,.44l-.18.18a7.1,7.1,0,0,1-8.94,0l-.12-.14a2.05,2.05,0,0,0-2-.44C-563.52,564.69-564,581-564,581.53a2,2,0,0,0,2,2l21.75-.14a34.58,34.58,0,0,0-.76,6.17,2,2,0,0,0,2.05,2h48.76a2,2,0,0,0,2.05-2,37.05,37.05,0,0,0-.82-6h22a2,2,0,0,0,2.06-2C-464.88,580.63-465.38,564.37-478.79,560.09Z"/></clipPath><clipPath id="clip-path-19"><path class="cls-1" d="M-490.49,546.41a4.87,4.87,0,0,1,4.5,3,4.86,4.86,0,0,1-1.07,5.3,4.9,4.9,0,0,1-5.31,1,4.86,4.86,0,0,1-3-4.51A4.86,4.86,0,0,1-490.49,546.41Zm0,13.74a8.88,8.88,0,0,0,8.89-8.87,8.87,8.87,0,0,0-8.88-8.88,8.88,8.88,0,0,0-8.91,8.85,8.84,8.84,0,0,0,2.6,6.29A8.9,8.9,0,0,0-490.49,560.15Z"/></clipPath><clipPath id="clip-path-20"><path class="cls-1" d="M-543.7,543.61a4.88,4.88,0,0,1,4.52,3,4.85,4.85,0,0,1-1.05,5.3,4.87,4.87,0,0,1-5.31,1.07,4.87,4.87,0,0,1-3-4.5A4.86,4.86,0,0,1-543.7,543.61Zm0,13.73a8.89,8.89,0,0,0,8.23-5.46,8.85,8.85,0,0,0-1.91-9.68,8.91,8.91,0,0,0-9.7-1.94,8.87,8.87,0,0,0-5.49,8.2A8.88,8.88,0,0,0-543.7,557.34Z"/></clipPath><clipPath id="clip-path-21"><circle class="cls-1" cx="-514.74" cy="332.5" r="102.5"/></clipPath><clipPath id="clip-path-22"><path class="cls-1" d="M-514.47,309a7.3,7.3,0,0,1,6.76,4.49,7.28,7.28,0,0,1-1.61,7.94,7.29,7.29,0,0,1-8,1.53,7.26,7.26,0,0,1-4.44-6.77,7.27,7.27,0,0,1,7.26-7.21Zm0,18.64A11.43,11.43,0,0,0-503,316.22a11.41,11.41,0,0,0-11.4-11.43,11.43,11.43,0,0,0-11.48,11.37,11.38,11.38,0,0,0,3.33,8.08A11.46,11.46,0,0,0-514.47,327.61Z"/></clipPath><clipPath id="clip-path-23"><path class="cls-1" d="M-490,348.38a29.11,29.11,0,0,0-6.86-11.65,13.38,13.38,0,0,1,5-3.42,11.43,11.43,0,0,0,12.86,0c7.29,3,9.28,11.19,9.83,15.05Zm-46.72,8.18a35.22,35.22,0,0,1,1.13-6,27.45,27.45,0,0,1,7.52-12.32,18.29,18.29,0,0,1,5.15-2.95,14.36,14.36,0,0,0,16.74,0,18.21,18.21,0,0,1,5.19,3.22A25.2,25.2,0,0,1-493.51,351a38.65,38.65,0,0,1,1.11,5.63Zm-23-7.94c.55-3.88,2.57-12.05,9.84-15a11.42,11.42,0,0,0,12.83,0,13.44,13.44,0,0,1,4.89,2.78,27.72,27.72,0,0,0-7.15,12.05Zm80.91-19.53a2.08,2.08,0,0,0-2,.45l-.12.12a7.07,7.07,0,0,1-8.88,0l-.22-.22a2.1,2.1,0,0,0-2.06-.47,17.41,17.41,0,0,0-7.88,5,22.64,22.64,0,0,0-6.06-3,2.12,2.12,0,0,0-2.05.42l-.19.19a10,10,0,0,1-12.69,0l-.18-.21a2.11,2.11,0,0,0-2.06-.44,23.56,23.56,0,0,0-5.83,2.69,18.07,18.07,0,0,0-7.89-4.39,2.05,2.05,0,0,0-2,.44l-.18.18a7.1,7.1,0,0,1-8.94,0l-.12-.14a2.05,2.05,0,0,0-2-.44C-563.52,333.69-564,350-564,350.53a2,2,0,0,0,2,2l21.75-.14a34.58,34.58,0,0,0-.76,6.17,2,2,0,0,0,2.05,2h48.76a2,2,0,0,0,2.05-2,37.05,37.05,0,0,0-.82-6h22a2,2,0,0,0,2.06-2C-464.88,349.63-465.38,333.37-478.79,329.09Z"/></clipPath><clipPath id="clip-path-24"><path class="cls-1" d="M-490.49,315.41a4.87,4.87,0,0,1,4.5,3,4.86,4.86,0,0,1-1.07,5.3,4.9,4.9,0,0,1-5.31,1,4.86,4.86,0,0,1-3-4.51A4.86,4.86,0,0,1-490.49,315.41Zm0,13.74a8.88,8.88,0,0,0,8.89-8.87,8.87,8.87,0,0,0-8.88-8.88,8.88,8.88,0,0,0-8.91,8.85,8.84,8.84,0,0,0,2.6,6.29A8.9,8.9,0,0,0-490.49,329.15Z"/></clipPath><clipPath id="clip-path-25"><path class="cls-1" d="M-543.7,312.61a4.88,4.88,0,0,1,4.52,3,4.85,4.85,0,0,1-1.05,5.3,4.87,4.87,0,0,1-5.31,1.07,4.87,4.87,0,0,1-3-4.5A4.86,4.86,0,0,1-543.7,312.61Zm0,13.73a8.89,8.89,0,0,0,8.23-5.46,8.85,8.85,0,0,0-1.91-9.68,8.91,8.91,0,0,0-9.7-1.94,8.87,8.87,0,0,0-5.49,8.2A8.88,8.88,0,0,0-543.7,326.34Z"/></clipPath><clipPath id="clip-path-26"><circle class="cls-1" cx="-514.74" cy="102.5" r="102.5"/></clipPath><clipPath id="clip-path-27"><path class="cls-1" d="M-514.47,79a7.3,7.3,0,0,1,6.76,4.49,7.28,7.28,0,0,1-1.61,7.94,7.29,7.29,0,0,1-8,1.53,7.26,7.26,0,0,1-4.44-6.77A7.27,7.27,0,0,1-514.47,79Zm0,18.64A11.43,11.43,0,0,0-503,86.22a11.41,11.41,0,0,0-11.4-11.43,11.43,11.43,0,0,0-11.48,11.37,11.38,11.38,0,0,0,3.33,8.08A11.46,11.46,0,0,0-514.47,97.61Z"/></clipPath><clipPath id="clip-path-28"><path class="cls-1" d="M-490,118.38a29.11,29.11,0,0,0-6.86-11.65,13.38,13.38,0,0,1,5-3.42,11.43,11.43,0,0,0,12.86,0c7.29,3,9.28,11.19,9.83,15Zm-46.72,8.18a35.22,35.22,0,0,1,1.13-6,27.45,27.45,0,0,1,7.52-12.32,18.29,18.29,0,0,1,5.15-2.95,14.36,14.36,0,0,0,16.74,0,18.21,18.21,0,0,1,5.19,3.22A25.2,25.2,0,0,1-493.51,121a38.65,38.65,0,0,1,1.11,5.63Zm-23-7.94c.55-3.88,2.57-12.05,9.84-15a11.42,11.42,0,0,0,12.83,0,13.44,13.44,0,0,1,4.89,2.78,27.72,27.72,0,0,0-7.15,12Zm80.91-19.53a2.08,2.08,0,0,0-2,.45l-.12.12a7.07,7.07,0,0,1-8.88,0l-.22-.22a2.1,2.1,0,0,0-2.06-.47,17.41,17.41,0,0,0-7.88,5,22.64,22.64,0,0,0-6.06-3,2.12,2.12,0,0,0-2.05.42l-.19.19a10,10,0,0,1-12.69,0l-.18-.21a2.11,2.11,0,0,0-2.06-.44,23.56,23.56,0,0,0-5.83,2.69,18.07,18.07,0,0,0-7.89-4.39,2.05,2.05,0,0,0-2,.44l-.18.18a7.1,7.1,0,0,1-8.94,0l-.12-.14a2.05,2.05,0,0,0-2-.44C-563.52,103.69-564,120-564,120.53a2,2,0,0,0,2,2l21.75-.14a34.58,34.58,0,0,0-.76,6.17,2,2,0,0,0,2.05,2h48.76a2,2,0,0,0,2.05-2,37.05,37.05,0,0,0-.82-6h22a2,2,0,0,0,2.06-2C-464.88,119.63-465.38,103.37-478.79,99.09Z"/></clipPath><clipPath id="clip-path-29"><path class="cls-1" d="M-490.49,85.41a4.87,4.87,0,0,1,4.5,3,4.86,4.86,0,0,1-1.07,5.3,4.9,4.9,0,0,1-5.31,1,4.86,4.86,0,0,1-3-4.51A4.86,4.86,0,0,1-490.49,85.41Zm0,13.74a8.88,8.88,0,0,0,8.89-8.87,8.87,8.87,0,0,0-8.88-8.88,8.88,8.88,0,0,0-8.91,8.85,8.84,8.84,0,0,0,2.6,6.29A8.9,8.9,0,0,0-490.49,99.15Z"/></clipPath><clipPath id="clip-path-30"><path class="cls-1" d="M-543.7,82.61a4.88,4.88,0,0,1,4.52,3,4.85,4.85,0,0,1-1.05,5.3A4.87,4.87,0,0,1-545.54,92a4.87,4.87,0,0,1-3-4.5A4.86,4.86,0,0,1-543.7,82.61Zm0,13.73a8.89,8.89,0,0,0,8.23-5.46,8.85,8.85,0,0,0-1.91-9.68,8.91,8.91,0,0,0-9.7-1.94,8.87,8.87,0,0,0-5.49,8.2A8.88,8.88,0,0,0-543.7,96.34Z"/></clipPath><clipPath id="clip-path-31"><circle class="cls-1" cx="-208.74" cy="1281.5" r="102.5"/></clipPath><clipPath id="clip-path-32"><rect class="cls-1" x="-198.51" y="1262.55" width="40.36" height="68.3"/></clipPath><clipPath id="clip-path-33"><rect class="cls-1" x="-257.5" y="1262.55" width="40.36" height="68.3"/></clipPath><clipPath id="clip-path-34"><path class="cls-2" d="M-238.87,1271.86v-6.21a31.07,31.07,0,0,1,31.05-31,31.08,31.08,0,0,1,31,31v12.42h3.11v-14.33h-.06a34.18,34.18,0,0,0-34.09-32.24,34.2,34.2,0,0,0-34.1,32.24H-242v14.33h3.11Z"/></clipPath><clipPath id="clip-path-35"><path class="cls-2" d="M-207.77,1261.64a8.94,8.94,0,0,0,9-8.92,8.94,8.94,0,0,0-8.92-9,8.94,8.94,0,0,0-9,8.91,8.94,8.94,0,0,0,2.61,6.33,8.89,8.89,0,0,0,6.32,2.64m0-14.62v0a5.68,5.68,0,0,1,5.28,3.52,5.7,5.7,0,0,1-1.25,6.22A5.71,5.71,0,0,1-210,1258a5.7,5.7,0,0,1-3.48-5.31,5.7,5.7,0,0,1,5.68-5.65"/></clipPath><clipPath id="clip-path-36"><path class="cls-2" d="M-221.58,1268.52a21.73,21.73,0,0,0-5.59,9.44l-.72,3.11a28,28,0,0,0-.6,4.83,1.59,1.59,0,0,0,1.61,1.57h38.11a1.59,1.59,0,0,0,1.61-1.57,29.09,29.09,0,0,0-.65-4.73s-2-10.21-8.65-14.51a20.28,20.28,0,0,0-4.74-2.33,1.64,1.64,0,0,0-1.6.33l-.14.14a7.82,7.82,0,0,1-9.93,0l-.14-.15a1.63,1.63,0,0,0-1.61-.35,14.49,14.49,0,0,0-4.56,2.11c-.63.48-2.4,2.11-2.4,2.11m7.2-.88a11.22,11.22,0,0,0,13.09,0,14.32,14.32,0,0,1,4.06,2.52,19.7,19.7,0,0,1,5.84,9.77,30.17,30.17,0,0,1,.87,4.41l-34.64,0a28.22,28.22,0,0,1,.88-4.72,21.47,21.47,0,0,1,5.87-9.65,14.31,14.31,0,0,1,4-2.31"/></clipPath><clipPath id="clip-path-37"><circle class="cls-1" cx="-208.74" cy="1037.5" r="102.5"/></clipPath><clipPath id="clip-path-38"><rect class="cls-1" x="-198.44" y="1018.46" width="40.65" height="68.64"/></clipPath><clipPath id="clip-path-39"><rect class="cls-1" x="-257.85" y="1018.45" width="40.65" height="68.64"/></clipPath><clipPath id="clip-path-40"><path class="cls-2" d="M-239.09,1027.82v-6.25a31.27,31.27,0,0,1,31.27-31.19,31.26,31.26,0,0,1,31.27,31.19v12.48h3.13v-14.4h-.06a34.4,34.4,0,0,0-34.34-32.39,34.4,34.4,0,0,0-34.34,32.39h-.06v14.4h3.13Z"/></clipPath><clipPath id="clip-path-41"><path class="cls-2" d="M-207.76,1017.54a9,9,0,0,0,9-9,9,9,0,0,0-9-9,9,9,0,0,0-9,9,8.94,8.94,0,0,0,2.62,6.36,9,9,0,0,0,6.37,2.65m0-14.69v0a5.74,5.74,0,0,1,5.32,3.53,5.74,5.74,0,0,1-1.27,6.26,5.74,5.74,0,0,1-6.27,1.2,5.7,5.7,0,0,1-3.5-5.33,5.72,5.72,0,0,1,5.72-5.68"/></clipPath><clipPath id="clip-path-42"><path class="cls-2" d="M-221.68,1024.46a21.81,21.81,0,0,0-5.62,9.49l-.73,3.11a27.48,27.48,0,0,0-.6,4.86,1.6,1.6,0,0,0,1.62,1.58h38.39a1.6,1.6,0,0,0,1.61-1.58,29.31,29.31,0,0,0-.64-4.75s-2-10.26-8.72-14.58a20.32,20.32,0,0,0-4.77-2.34,1.65,1.65,0,0,0-1.62.33l-.14.14a7.9,7.9,0,0,1-10,0l-.14-.16a1.65,1.65,0,0,0-1.62-.34,14.45,14.45,0,0,0-4.59,2.12c-.65.48-2.43,2.12-2.43,2.12m7.26-.89a11.32,11.32,0,0,0,13.18,0,14.36,14.36,0,0,1,4.09,2.53,19.91,19.91,0,0,1,5.89,9.82,30.69,30.69,0,0,1,.87,4.43h-34.89a28.4,28.4,0,0,1,.89-4.75,21.62,21.62,0,0,1,5.91-9.7,14.75,14.75,0,0,1,4.06-2.32"/></clipPath><clipPath id="clip-path-43"><circle class="cls-1" cx="-208.74" cy="797.5" r="102.5"/></clipPath><clipPath id="clip-path-44"><rect class="cls-1" x="-198.44" y="778.46" width="40.65" height="68.64"/></clipPath><clipPath id="clip-path-45"><rect class="cls-1" x="-257.85" y="778.45" width="40.65" height="68.64"/></clipPath><clipPath id="clip-path-46"><path class="cls-2" d="M-239.09,787.82v-6.25a31.27,31.27,0,0,1,31.27-31.19,31.26,31.26,0,0,1,31.27,31.19v12.48h3.13v-14.4h-.06a34.4,34.4,0,0,0-34.34-32.39,34.4,34.4,0,0,0-34.34,32.39h-.06v14.4h3.13Z"/></clipPath><clipPath id="clip-path-47"><path class="cls-2" d="M-207.76,777.54a9,9,0,0,0,9-9,9,9,0,0,0-9-9,9,9,0,0,0-9,9,8.94,8.94,0,0,0,2.62,6.36,9,9,0,0,0,6.37,2.65m0-14.69v0a5.74,5.74,0,0,1,5.32,3.53,5.74,5.74,0,0,1-1.27,6.26,5.74,5.74,0,0,1-6.27,1.2,5.7,5.7,0,0,1-3.5-5.33,5.72,5.72,0,0,1,5.72-5.68"/></clipPath><clipPath id="clip-path-48"><path class="cls-2" d="M-221.68,784.46A21.81,21.81,0,0,0-227.3,794l-.73,3.11a27.48,27.48,0,0,0-.6,4.86A1.6,1.6,0,0,0-227,803.5h38.39a1.6,1.6,0,0,0,1.61-1.58,29.31,29.31,0,0,0-.64-4.75s-2-10.26-8.72-14.58a20.32,20.32,0,0,0-4.77-2.34,1.65,1.65,0,0,0-1.62.33l-.14.14a7.9,7.9,0,0,1-10,0l-.14-.16a1.65,1.65,0,0,0-1.62-.34,14.45,14.45,0,0,0-4.59,2.12c-.65.48-2.43,2.12-2.43,2.12m7.26-.89a11.32,11.32,0,0,0,13.18,0,14.36,14.36,0,0,1,4.09,2.53,19.91,19.91,0,0,1,5.89,9.82,30.69,30.69,0,0,1,.87,4.43h-34.89a28.4,28.4,0,0,1,.89-4.75,21.62,21.62,0,0,1,5.91-9.7,14.75,14.75,0,0,1,4.06-2.32"/></clipPath><clipPath id="clip-path-49"><circle class="cls-1" cx="-208.74" cy="563.5" r="102.5"/></clipPath><clipPath id="clip-path-50"><rect class="cls-1" x="-198.44" y="544.46" width="40.65" height="68.64"/></clipPath><clipPath id="clip-path-51"><rect class="cls-1" x="-257.85" y="544.45" width="40.65" height="68.64"/></clipPath><clipPath id="clip-path-52"><path class="cls-2" d="M-239.09,553.82v-6.25a31.27,31.27,0,0,1,31.27-31.19,31.26,31.26,0,0,1,31.27,31.19v12.48h3.13v-14.4h-.06a34.4,34.4,0,0,0-34.34-32.39,34.4,34.4,0,0,0-34.34,32.39h-.06v14.4h3.13Z"/></clipPath><clipPath id="clip-path-53"><path class="cls-2" d="M-207.76,543.54a9,9,0,0,0,9-9,9,9,0,0,0-9-9,9,9,0,0,0-9,9,8.94,8.94,0,0,0,2.62,6.36,9,9,0,0,0,6.37,2.65m0-14.69v0a5.74,5.74,0,0,1,5.32,3.53,5.74,5.74,0,0,1-1.27,6.26,5.74,5.74,0,0,1-6.27,1.2,5.7,5.7,0,0,1-3.5-5.33,5.72,5.72,0,0,1,5.72-5.68"/></clipPath><clipPath id="clip-path-54"><path class="cls-2" d="M-221.68,550.46A21.81,21.81,0,0,0-227.3,560l-.73,3.11a27.48,27.48,0,0,0-.6,4.86A1.6,1.6,0,0,0-227,569.5h38.39a1.6,1.6,0,0,0,1.61-1.58,29.31,29.31,0,0,0-.64-4.75s-2-10.26-8.72-14.58a20.32,20.32,0,0,0-4.77-2.34,1.65,1.65,0,0,0-1.62.33l-.14.14a7.9,7.9,0,0,1-10,0l-.14-.16a1.65,1.65,0,0,0-1.62-.34,14.45,14.45,0,0,0-4.59,2.12c-.65.48-2.43,2.12-2.43,2.12m7.26-.89a11.32,11.32,0,0,0,13.18,0,14.36,14.36,0,0,1,4.09,2.53,19.91,19.91,0,0,1,5.89,9.82,30.69,30.69,0,0,1,.87,4.43h-34.89a28.4,28.4,0,0,1,.89-4.75,21.62,21.62,0,0,1,5.91-9.7,14.75,14.75,0,0,1,4.06-2.32"/></clipPath><clipPath id="clip-path-55"><circle class="cls-1" cx="-208.74" cy="332.5" r="102.5"/></clipPath><clipPath id="clip-path-56"><rect class="cls-1" x="-198.44" y="313.46" width="40.65" height="68.64"/></clipPath><clipPath id="clip-path-57"><rect class="cls-1" x="-257.85" y="313.45" width="40.65" height="68.64"/></clipPath><clipPath id="clip-path-58"><path class="cls-2" d="M-239.09,322.82v-6.25a31.27,31.27,0,0,1,31.27-31.19,31.26,31.26,0,0,1,31.27,31.19v12.48h3.13v-14.4h-.06a34.4,34.4,0,0,0-34.34-32.39,34.4,34.4,0,0,0-34.34,32.39h-.06v14.4h3.13Z"/></clipPath><clipPath id="clip-path-59"><path class="cls-2" d="M-207.76,312.54a9,9,0,0,0,9-9,9,9,0,0,0-9-9,9,9,0,0,0-9,9,8.94,8.94,0,0,0,2.62,6.36,9,9,0,0,0,6.37,2.65m0-14.69v0a5.74,5.74,0,0,1,5.32,3.53,5.74,5.74,0,0,1-1.27,6.26,5.74,5.74,0,0,1-6.27,1.2,5.7,5.7,0,0,1-3.5-5.33,5.72,5.72,0,0,1,5.72-5.68"/></clipPath><clipPath id="clip-path-60"><path class="cls-2" d="M-221.68,319.46A21.81,21.81,0,0,0-227.3,329l-.73,3.11a27.48,27.48,0,0,0-.6,4.86A1.6,1.6,0,0,0-227,338.5h38.39a1.6,1.6,0,0,0,1.61-1.58,29.31,29.31,0,0,0-.64-4.75s-2-10.26-8.72-14.58a20.32,20.32,0,0,0-4.77-2.34,1.65,1.65,0,0,0-1.62.33l-.14.14a7.9,7.9,0,0,1-10,0l-.14-.16a1.65,1.65,0,0,0-1.62-.34,14.45,14.45,0,0,0-4.59,2.12c-.65.48-2.43,2.12-2.43,2.12m7.26-.89a11.32,11.32,0,0,0,13.18,0,14.36,14.36,0,0,1,4.09,2.53,19.91,19.91,0,0,1,5.89,9.82,30.69,30.69,0,0,1,.87,4.43h-34.89a28.4,28.4,0,0,1,.89-4.75,21.62,21.62,0,0,1,5.91-9.7,14.75,14.75,0,0,1,4.06-2.32"/></clipPath><clipPath id="clip-path-61"><circle class="cls-1" cx="-208.74" cy="102.5" r="102.5"/></clipPath><clipPath id="clip-path-62"><rect class="cls-1" x="-198.44" y="83.46" width="40.65" height="68.64"/></clipPath><clipPath id="clip-path-63"><rect class="cls-1" x="-257.85" y="83.45" width="40.65" height="68.64"/></clipPath><clipPath id="clip-path-64"><path class="cls-2" d="M-239.09,92.82V86.57a31.27,31.27,0,0,1,31.27-31.19,31.26,31.26,0,0,1,31.27,31.19V99.05h3.13V84.65h-.06a34.4,34.4,0,0,0-34.34-32.39,34.4,34.4,0,0,0-34.34,32.39h-.06v14.4h3.13Z"/></clipPath><clipPath id="clip-path-65"><path class="cls-2" d="M-207.76,82.54a9,9,0,0,0,9-9,9,9,0,0,0-9-9,9,9,0,0,0-9,9,8.94,8.94,0,0,0,2.62,6.36,9,9,0,0,0,6.37,2.65m0-14.69v0a5.74,5.74,0,0,1,5.32,3.53,5.74,5.74,0,0,1-1.27,6.26,5.74,5.74,0,0,1-6.27,1.2,5.7,5.7,0,0,1-3.5-5.33,5.72,5.72,0,0,1,5.72-5.68"/></clipPath><clipPath id="clip-path-66"><path class="cls-2" d="M-221.68,89.46A21.81,21.81,0,0,0-227.3,99l-.73,3.11a27.48,27.48,0,0,0-.6,4.86A1.6,1.6,0,0,0-227,108.5h38.39a1.6,1.6,0,0,0,1.61-1.58,29.31,29.31,0,0,0-.64-4.75s-2-10.26-8.72-14.58a20.32,20.32,0,0,0-4.77-2.34,1.65,1.65,0,0,0-1.62.33l-.14.14a7.9,7.9,0,0,1-10,0l-.14-.16a1.65,1.65,0,0,0-1.62-.34,14.45,14.45,0,0,0-4.59,2.12c-.65.48-2.43,2.12-2.43,2.12m7.26-.89a11.32,11.32,0,0,0,13.18,0,14.36,14.36,0,0,1,4.09,2.53,19.91,19.91,0,0,1,5.89,9.82,30.69,30.69,0,0,1,.87,4.43h-34.89a28.4,28.4,0,0,1,.89-4.75,21.62,21.62,0,0,1,5.91-9.7,14.75,14.75,0,0,1,4.06-2.32"/></clipPath><clipPath id="clip-path-67"><path class="cls-1" d="M88,1251a5.74,5.74,0,0,1,3.4-3.4,6.26,6.26,0,0,1,2.27-.42,5.89,5.89,0,0,1,5.3,3l1.12,2.31a2,2,0,0,0,3.56,0l1.11-2.31a6.11,6.11,0,0,1,7.6-2.62,5.77,5.77,0,0,1,3.4,3.4,3.15,3.15,0,0,1-.32,2.78,125.8,125.8,0,0,1-13.54,15,125,125,0,0,1-13.55-15A3.19,3.19,0,0,1,88,1251Zm11.5,21a3.39,3.39,0,0,0,4.75,0,139.83,139.83,0,0,0,14.45-16,6.94,6.94,0,0,0,.77-6.07,9.6,9.6,0,0,0-5.69-5.83,10.18,10.18,0,0,0-11.92,3.42,10.17,10.17,0,0,0-11.9-3.42,9.58,9.58,0,0,0-5.71,5.83,7,7,0,0,0,.78,6.07A141.9,141.9,0,0,0,99.45,1272Z"/></clipPath><clipPath id="clip-path-68"><path class="cls-1" d="M88,1007a5.74,5.74,0,0,1,3.4-3.4,6.26,6.26,0,0,1,2.27-.42,5.89,5.89,0,0,1,5.3,3l1.12,2.31a2,2,0,0,0,3.56,0l1.11-2.31a6.11,6.11,0,0,1,7.6-2.62,5.77,5.77,0,0,1,3.4,3.4,3.15,3.15,0,0,1-.32,2.78,125.8,125.8,0,0,1-13.54,15,125,125,0,0,1-13.55-15A3.19,3.19,0,0,1,88,1007Zm11.5,21a3.39,3.39,0,0,0,4.75,0,139.83,139.83,0,0,0,14.45-16,6.94,6.94,0,0,0,.77-6.07,9.6,9.6,0,0,0-5.69-5.83,10.18,10.18,0,0,0-11.92,3.42,10.17,10.17,0,0,0-11.9-3.42,9.58,9.58,0,0,0-5.71,5.83,7,7,0,0,0,.78,6.07A141.9,141.9,0,0,0,99.45,1028Z"/></clipPath><clipPath id="clip-path-69"><path class="cls-1" d="M88,767a5.74,5.74,0,0,1,3.4-3.4,6.26,6.26,0,0,1,2.27-.42,5.89,5.89,0,0,1,5.3,3l1.12,2.31a2,2,0,0,0,3.56,0l1.11-2.31a6.11,6.11,0,0,1,7.6-2.62,5.77,5.77,0,0,1,3.4,3.4,3.15,3.15,0,0,1-.32,2.78,125.8,125.8,0,0,1-13.54,15,125,125,0,0,1-13.55-15A3.19,3.19,0,0,1,88,767Zm11.5,21a3.39,3.39,0,0,0,4.75,0,139.83,139.83,0,0,0,14.45-16,6.94,6.94,0,0,0,.77-6.07,9.6,9.6,0,0,0-5.69-5.83,10.18,10.18,0,0,0-11.92,3.42A10.17,10.17,0,0,0,89.91,760a9.58,9.58,0,0,0-5.71,5.83,7,7,0,0,0,.78,6.07A141.9,141.9,0,0,0,99.45,788Z"/></clipPath><clipPath id="clip-path-70"><path class="cls-1" d="M88,533a5.74,5.74,0,0,1,3.4-3.4,6.26,6.26,0,0,1,2.27-.42,5.89,5.89,0,0,1,5.3,3l1.12,2.31a2,2,0,0,0,3.56,0l1.11-2.31a6.11,6.11,0,0,1,7.6-2.62,5.77,5.77,0,0,1,3.4,3.4,3.15,3.15,0,0,1-.32,2.78,125.8,125.8,0,0,1-13.54,15,125,125,0,0,1-13.55-15A3.19,3.19,0,0,1,88,533Zm11.5,21a3.39,3.39,0,0,0,4.75,0,139.83,139.83,0,0,0,14.45-16,6.94,6.94,0,0,0,.77-6.07,9.6,9.6,0,0,0-5.69-5.83,10.18,10.18,0,0,0-11.92,3.42A10.17,10.17,0,0,0,89.91,526a9.58,9.58,0,0,0-5.71,5.83,7,7,0,0,0,.78,6.07A141.9,141.9,0,0,0,99.45,554Z"/></clipPath><clipPath id="clip-path-71"><path class="cls-1" d="M88,302a5.74,5.74,0,0,1,3.4-3.4,6.26,6.26,0,0,1,2.27-.42,5.89,5.89,0,0,1,5.3,3l1.12,2.31a2,2,0,0,0,3.56,0l1.11-2.31a6.11,6.11,0,0,1,7.6-2.62,5.77,5.77,0,0,1,3.4,3.4,3.15,3.15,0,0,1-.32,2.78,125.8,125.8,0,0,1-13.54,15,125,125,0,0,1-13.55-15A3.19,3.19,0,0,1,88,302ZM99.45,323a3.39,3.39,0,0,0,4.75,0,139.83,139.83,0,0,0,14.45-16,6.94,6.94,0,0,0,.77-6.07,9.6,9.6,0,0,0-5.69-5.83,10.18,10.18,0,0,0-11.92,3.42A10.17,10.17,0,0,0,89.91,295a9.58,9.58,0,0,0-5.71,5.83,7,7,0,0,0,.78,6.07A141.9,141.9,0,0,0,99.45,323Z"/></clipPath><clipPath id="clip-path-72"><path class="cls-1" d="M151.64,115.09a251.27,251.27,0,0,1-25,17.44c-7.82,4.73-15.17,5.91-21.84,3.76a62.56,62.56,0,0,0-22.44-4,14.24,14.24,0,0,0-9.44,3.09v-18c1.95-1.67,8.21-6.77,15.64-6.77a41.14,41.14,0,0,1,15.19,3.54,27.55,27.55,0,0,0,5.86,1.86,132.33,132.33,0,0,0,14.08.51,2.32,2.32,0,0,1,1.8,1.36,1.62,1.62,0,0,1,.16.61c0,2,0,2-2,2H104.09a2,2,0,0,0,0,3.94h19.55c4.73,0,5.65-2.6,5.87-4.61,7.13-3.15,17.3-7.21,19.55-7.21a2.68,2.68,0,0,1,2.6,1.51A1,1,0,0,1,151.64,115.09Zm-82.7,28.39c0,1.38-1.53,2.56-3.33,2.56H62.5c-1.8,0-3.32-1.16-3.32-2.56V113.14c0-1.38,1.52-2.56,3.32-2.56h3.11c1.8,0,3.33,1.16,3.33,2.56Zm86.41-30.91a6.59,6.59,0,0,0-6.22-3.94c-3.51,0-15.13,4.9-20.29,7.17a6.11,6.11,0,0,0-5.16-3.25,125.09,125.09,0,0,1-13.69-.48,25,25,0,0,1-5-1.61,44.94,44.94,0,0,0-16.52-3.82,27.4,27.4,0,0,0-15.64,5.73,7,7,0,0,0-7.24-5.73H62.5a6.89,6.89,0,0,0-7.23,6.5v30.34A6.89,6.89,0,0,0,62.5,150h3.11a6.9,6.9,0,0,0,7.24-6.5V142.3c.19-.91,1.66-6.11,9.44-6.11A58.47,58.47,0,0,1,103.5,140c7.82,2.62,16.23,1.25,25.09-4.11a244.46,244.46,0,0,0,25.78-18A4.8,4.8,0,0,0,155.35,112.57Z"/></clipPath><clipPath id="clip-path-73"><path class="cls-1" d="M88,72a5.74,5.74,0,0,1,3.4-3.4,6.26,6.26,0,0,1,2.27-.42,5.89,5.89,0,0,1,5.3,3L100,73.54a2,2,0,0,0,3.56,0l1.11-2.31a6.11,6.11,0,0,1,7.6-2.62,5.77,5.77,0,0,1,3.4,3.4,3.15,3.15,0,0,1-.32,2.78,125.8,125.8,0,0,1-13.54,15,125,125,0,0,1-13.55-15A3.19,3.19,0,0,1,88,72ZM99.45,93a3.39,3.39,0,0,0,4.75,0,139.83,139.83,0,0,0,14.45-16,6.94,6.94,0,0,0,.77-6.07A9.6,9.6,0,0,0,113.73,65a10.18,10.18,0,0,0-11.92,3.42A10.17,10.17,0,0,0,89.91,65a9.58,9.58,0,0,0-5.71,5.83A7,7,0,0,0,85,76.92,141.9,141.9,0,0,0,99.45,93Z"/></clipPath><clipPath id="clip-path-74"><rect class="cls-1" x="-1312.4" y="-4356.25" width="2572.55" height="6744.9"/></clipPath></defs><title>Pictos Ronds</title><circle class="cls-74" cx="102.5" cy="102.5" r="102.5"/><g class="cls-75"><rect class="cls-76" x="50.25" y="101.6" width="110.54" height="53.42"/></g><g class="cls-77"><g class="cls-78"><rect class="cls-76" x="78.81" y="59.29" width="46.01" height="39.67"/></g></g></svg>