<svg id="Calque_1" data-name="Calque 1" xmlns="http://www.w3.org/2000/svg" xmlns:xlink="http://www.w3.org/1999/xlink" viewBox="0 0 205 205"><defs><style>.cls-1,.cls-2{fill:none;}.cls-2{clip-rule:evenodd;}.cls-3{clip-path:url(#clip-path);}.cls-4{clip-path:url(#clip-path-2);}.cls-5{clip-path:url(#clip-path-3);}.cls-6{clip-path:url(#clip-path-4);}.cls-7{clip-path:url(#clip-path-5);}.cls-8{clip-path:url(#clip-path-6);}.cls-9{clip-path:url(#clip-path-7);}.cls-10{clip-path:url(#clip-path-8);}.cls-11{clip-path:url(#clip-path-9);}.cls-12{clip-path:url(#clip-path-10);}.cls-13{clip-path:url(#clip-path-11);}.cls-14{clip-path:url(#clip-path-12);}.cls-15{clip-path:url(#clip-path-13);}.cls-16{clip-path:url(#clip-path-14);}.cls-17{clip-path:url(#clip-path-15);}.cls-18{clip-path:url(#clip-path-16);}.cls-19{clip-path:url(#clip-path-17);}.cls-20{clip-path:url(#clip-path-18);}.cls-21{clip-path:url(#clip-path-19);}.cls-22{clip-path:url(#clip-path-20);}.cls-23{clip-path:url(#clip-path-21);}.cls-24{clip-path:url(#clip-path-22);}.cls-25{clip-path:url(#clip-path-23);}.cls-26{clip-path:url(#clip-path-24);}.cls-27{clip-path:url(#clip-path-25);}.cls-28{clip-path:url(#clip-path-26);}.cls-29{clip-path:url(#clip-path-27);}.cls-30{clip-path:url(#clip-path-28);}.cls-31{clip-path:url(#clip-path-29);}.cls-32{clip-path:url(#clip-path-30);}.cls-33{clip-path:url(#clip-path-31);}.cls-34{clip-path:url(#clip-path-32);}.cls-35{clip-path:url(#clip-path-33);}.cls-36{clip-path:url(#clip-path-34);}.cls-37{clip-path:url(#clip-path-35);}.cls-38{clip-path:url(#clip-path-36);}.cls-39{clip-path:url(#clip-path-37);}.cls-40{clip-path:url(#clip-path-38);}.cls-41{clip-path:url(#clip-path-39);}.cls-42{clip-path:url(#clip-path-40);}.cls-43{clip-path:url(#clip-path-41);}.cls-44{clip-path:url(#clip-path-42);}.cls-45{clip-path:url(#clip-path-43);}.cls-46{clip-path:url(#clip-path-44);}.cls-47{clip-path:url(#clip-path-45);}.cls-48{clip-path:url(#clip-path-46);}.cls-49{clip-path:url(#clip-path-47);}.cls-50{clip-path:url(#clip-path-48);}.cls-51{clip-path:url(#clip-path-49);}.cls-52{clip-path:url(#clip-path-50);}.cls-53{clip-path:url(#clip-path-51);}.cls-54{clip-path:url(#clip-path-52);}.cls-55{clip-path:url(#clip-path-53);}.cls-56{clip-path:url(#clip-path-54);}.cls-57{clip-path:url(#clip-path-55);}.cls-58{clip-path:url(#clip-path-56);}.cls-59{fill:#777;}.cls-60{clip-path:url(#clip-path-57);}.cls-61{isolation:isolate;}.cls-62{clip-path:url(#clip-path-59);}.cls-63{clip-path:url(#clip-path-60);}.cls-64{fill:#fff;}.cls-65{clip-path:url(#clip-path-62);}.cls-66{clip-path:url(#clip-path-64);}.cls-67{clip-path:url(#clip-path-65);}.cls-68{clip-path:url(#clip-path-67);}.cls-69{clip-path:url(#clip-path-69);}.cls-70{clip-path:url(#clip-path-71);}.cls-71{clip-path:url(#clip-path-73);}.cls-72{clip-path:url(#clip-path-74);}.cls-73{clip-path:url(#clip-path-75);}.cls-74{clip-path:url(#clip-path-76);}.cls-75{clip-path:url(#clip-path-77);}.cls-76{clip-path:url(#clip-path-78);}.cls-77{clip-path:url(#clip-path-79);}.cls-78{clip-path:url(#clip-path-80);}.cls-79{clip-path:url(#clip-path-81);}.cls-80{clip-path:url(#clip-path-82);}.cls-81{clip-path:url(#clip-path-83);}.cls-82{clip-path:url(#clip-path-84);}</style><clipPath id="clip-path"><ellipse class="cls-1" cx="-203.74" cy="1051.5" rx="102.26" ry="102.5"/></clipPath><clipPath id="clip-path-2"><path class="cls-1" d="M-203.47,1028a7.28,7.28,0,0,1,6.74,4.49,7.27,7.27,0,0,1-1.6,7.94,7.26,7.26,0,0,1-7.95,1.53,7.27,7.27,0,0,1-4.44-6.77,7.27,7.27,0,0,1,7.25-7.21Zm0,18.64A11.41,11.41,0,0,0-192,1035.22a11.39,11.39,0,0,0-11.37-11.43,11.41,11.41,0,0,0-11.45,11.37,11.37,11.37,0,0,0,3.32,8.08A11.43,11.43,0,0,0-203.47,1046.61Z"/></clipPath><clipPath id="clip-path-3"><path class="cls-1" d="M-179.06,1067.38a29.07,29.07,0,0,0-6.84-11.65,13.34,13.34,0,0,1,5-3.42,11.37,11.37,0,0,0,12.82,0c7.28,3,9.27,11.19,9.82,15Zm-46.61,8.18a35.22,35.22,0,0,1,1.13-6,27.41,27.41,0,0,1,7.5-12.32,18.24,18.24,0,0,1,5.14-3,14.29,14.29,0,0,0,16.7,0,18.15,18.15,0,0,1,5.18,3.22,25.24,25.24,0,0,1,7.46,12.47,38.65,38.65,0,0,1,1.11,5.63Zm-22.93-7.94c.56-3.88,2.57-12,9.82-15a11.37,11.37,0,0,0,12.8,0,13.39,13.39,0,0,1,4.88,2.78,27.78,27.78,0,0,0-7.13,12Zm80.73-19.53a2.08,2.08,0,0,0-2,.45l-.12.12a7,7,0,0,1-8.85,0l-.23-.22a2.08,2.08,0,0,0-2-.47,17.44,17.44,0,0,0-7.87,5,22.37,22.37,0,0,0-6-3,2.12,2.12,0,0,0-2,.42l-.18.19a10,10,0,0,1-12.66,0l-.19-.21a2.1,2.1,0,0,0-2.05-.44,23.33,23.33,0,0,0-5.82,2.69,18,18,0,0,0-7.86-4.39,2,2,0,0,0-2.05.44l-.19.18a7.06,7.06,0,0,1-8.91,0l-.12-.14a2.05,2.05,0,0,0-2.05-.44c-13.2,4.35-13.69,20.61-13.69,21.19a2,2,0,0,0,2.05,2l21.7-.14a34.58,34.58,0,0,0-.76,6.17,2,2,0,0,0,2,2h48.64a2,2,0,0,0,2.05-2,37.05,37.05,0,0,0-.82-6H-156a2,2,0,0,0,2.05-2C-154,1068.63-154.49,1052.37-167.87,1048.09Z"/></clipPath><clipPath id="clip-path-4"><path class="cls-1" d="M-179.55,1034.41a4.86,4.86,0,0,1,4.49,3,4.87,4.87,0,0,1-1.06,5.3,4.89,4.89,0,0,1-5.3,1,4.86,4.86,0,0,1-3-4.51A4.86,4.86,0,0,1-179.55,1034.41Zm0,13.74a8.88,8.88,0,0,0,8.88-8.87,8.88,8.88,0,0,0-8.87-8.88,8.87,8.87,0,0,0-8.89,8.85,8.88,8.88,0,0,0,2.6,6.29A8.85,8.85,0,0,0-179.55,1048.15Z"/></clipPath><clipPath id="clip-path-5"><path class="cls-1" d="M-232.63,1031.61a4.85,4.85,0,0,1,4.5,3,4.85,4.85,0,0,1-1,5.3,4.86,4.86,0,0,1-5.3,1.07,4.88,4.88,0,0,1-3-4.5A4.85,4.85,0,0,1-232.63,1031.61Zm0,13.73a8.87,8.87,0,0,0,8.21-5.46,8.87,8.87,0,0,0-1.91-9.68,8.86,8.86,0,0,0-9.67-1.94,8.89,8.89,0,0,0-5.49,8.2A8.87,8.87,0,0,0-232.63,1045.34Z"/></clipPath><clipPath id="clip-path-6"><circle class="cls-1" cx="-203.74" cy="807.5" r="102.5"/></clipPath><clipPath id="clip-path-7"><path class="cls-1" d="M-203.47,784a7.3,7.3,0,0,1,6.76,4.49,7.28,7.28,0,0,1-1.61,7.94,7.29,7.29,0,0,1-8,1.53,7.26,7.26,0,0,1-4.44-6.77,7.27,7.27,0,0,1,7.26-7.21Zm0,18.64A11.43,11.43,0,0,0-192,791.22a11.41,11.41,0,0,0-11.4-11.43,11.43,11.43,0,0,0-11.48,11.37,11.38,11.38,0,0,0,3.33,8.08A11.46,11.46,0,0,0-203.47,802.61Z"/></clipPath><clipPath id="clip-path-8"><path class="cls-1" d="M-179,823.38a29.11,29.11,0,0,0-6.86-11.65,13.38,13.38,0,0,1,5-3.42,11.43,11.43,0,0,0,12.86,0c7.29,3,9.28,11.19,9.83,15.05Zm-46.72,8.18a35.22,35.22,0,0,1,1.13-6,27.45,27.45,0,0,1,7.52-12.32,18.29,18.29,0,0,1,5.15-3,14.36,14.36,0,0,0,16.74,0,18.21,18.21,0,0,1,5.19,3.22A25.2,25.2,0,0,1-182.51,826a38.65,38.65,0,0,1,1.11,5.63Zm-23-7.94c.55-3.88,2.57-12,9.84-15a11.42,11.42,0,0,0,12.83,0,13.44,13.44,0,0,1,4.89,2.78,27.72,27.72,0,0,0-7.15,12.05Zm80.91-19.53a2.08,2.08,0,0,0-2.05.45l-.12.12a7.07,7.07,0,0,1-8.88,0l-.22-.22a2.1,2.1,0,0,0-2.06-.47,17.41,17.41,0,0,0-7.88,5,22.64,22.64,0,0,0-6.06-3,2.12,2.12,0,0,0-2.05.42l-.19.19a10,10,0,0,1-12.69,0l-.18-.21a2.11,2.11,0,0,0-2.06-.44,23.56,23.56,0,0,0-5.83,2.69,18.07,18.07,0,0,0-7.89-4.39,2.05,2.05,0,0,0-2.05.44l-.18.18a7.1,7.1,0,0,1-8.94,0l-.12-.14a2.05,2.05,0,0,0-2-.44C-252.52,808.69-253,825-253,825.53a2,2,0,0,0,2,2l21.75-.14a34.58,34.58,0,0,0-.76,6.17,2,2,0,0,0,2.05,2h48.76a2,2,0,0,0,2-2,37.05,37.05,0,0,0-.82-6h22a2,2,0,0,0,2.06-2C-153.88,824.63-154.38,808.37-167.79,804.09Z"/></clipPath><clipPath id="clip-path-9"><path class="cls-1" d="M-179.67,790.5a4.84,4.84,0,0,1,4.47,3,4.82,4.82,0,0,1-1.06,5.27,4.82,4.82,0,0,1-5.27,1,4.82,4.82,0,0,1-3-4.48A4.83,4.83,0,0,1-179.67,790.5Zm0,13.66a8.82,8.82,0,0,0,8.83-8.82,8.82,8.82,0,0,0-8.81-8.84,8.83,8.83,0,0,0-8.85,8.81,8.8,8.8,0,0,0,2.58,6.26A8.84,8.84,0,0,0-179.67,804.16Z"/></clipPath><clipPath id="clip-path-10"><path class="cls-1" d="M-232.7,787.61a4.88,4.88,0,0,1,4.52,3,4.85,4.85,0,0,1-1,5.3,4.87,4.87,0,0,1-5.31,1.07,4.87,4.87,0,0,1-3-4.5A4.86,4.86,0,0,1-232.7,787.61Zm0,13.73a8.89,8.89,0,0,0,8.23-5.46,8.85,8.85,0,0,0-1.91-9.68,8.91,8.91,0,0,0-9.7-1.94,8.87,8.87,0,0,0-5.49,8.2A8.88,8.88,0,0,0-232.7,801.34Z"/></clipPath><clipPath id="clip-path-11"><circle class="cls-1" cx="-203.74" cy="567.5" r="102.5"/></clipPath><clipPath id="clip-path-12"><path class="cls-1" d="M-203.47,544a7.3,7.3,0,0,1,6.76,4.49,7.28,7.28,0,0,1-1.61,7.94,7.29,7.29,0,0,1-8,1.53,7.26,7.26,0,0,1-4.44-6.77,7.27,7.27,0,0,1,7.26-7.21Zm0,18.64A11.43,11.43,0,0,0-192,551.22a11.41,11.41,0,0,0-11.4-11.43,11.43,11.43,0,0,0-11.48,11.37,11.38,11.38,0,0,0,3.33,8.08A11.46,11.46,0,0,0-203.47,562.61Z"/></clipPath><clipPath id="clip-path-13"><path class="cls-1" d="M-179,583.38a29.11,29.11,0,0,0-6.86-11.65,13.38,13.38,0,0,1,5-3.42,11.43,11.43,0,0,0,12.86,0c7.29,3,9.28,11.19,9.83,15.05Zm-46.72,8.18a35.22,35.22,0,0,1,1.13-6,27.45,27.45,0,0,1,7.52-12.32,18.29,18.29,0,0,1,5.15-3,14.36,14.36,0,0,0,16.74,0,18.21,18.21,0,0,1,5.19,3.22A25.2,25.2,0,0,1-182.51,586a38.65,38.65,0,0,1,1.11,5.63Zm-23-7.94c.55-3.88,2.57-12,9.84-15a11.42,11.42,0,0,0,12.83,0,13.44,13.44,0,0,1,4.89,2.78,27.72,27.72,0,0,0-7.15,12.05Zm80.91-19.53a2.08,2.08,0,0,0-2.05.45l-.12.12a7.07,7.07,0,0,1-8.88,0l-.22-.22a2.1,2.1,0,0,0-2.06-.47,17.41,17.41,0,0,0-7.88,5,22.64,22.64,0,0,0-6.06-3,2.12,2.12,0,0,0-2.05.42l-.19.19a10,10,0,0,1-12.69,0l-.18-.21a2.11,2.11,0,0,0-2.06-.44,23.56,23.56,0,0,0-5.83,2.69,18.07,18.07,0,0,0-7.89-4.39,2.05,2.05,0,0,0-2.05.44l-.18.18a7.1,7.1,0,0,1-8.94,0l-.12-.14a2.05,2.05,0,0,0-2-.44C-252.52,568.69-253,585-253,585.53a2,2,0,0,0,2,2l21.75-.14a34.58,34.58,0,0,0-.76,6.17,2,2,0,0,0,2.05,2h48.76a2,2,0,0,0,2-2,37.05,37.05,0,0,0-.82-6h22a2,2,0,0,0,2.06-2C-153.88,584.63-154.38,568.37-167.79,564.09Z"/></clipPath><clipPath id="clip-path-14"><path class="cls-1" d="M-179.49,550.41a4.87,4.87,0,0,1,4.5,3,4.86,4.86,0,0,1-1.07,5.3,4.9,4.9,0,0,1-5.31,1,4.86,4.86,0,0,1-3-4.51A4.86,4.86,0,0,1-179.49,550.41Zm0,13.74a8.88,8.88,0,0,0,8.89-8.87,8.87,8.87,0,0,0-8.88-8.88,8.88,8.88,0,0,0-8.91,8.85,8.84,8.84,0,0,0,2.6,6.29A8.9,8.9,0,0,0-179.49,564.15Z"/></clipPath><clipPath id="clip-path-15"><path class="cls-1" d="M-232.7,547.61a4.88,4.88,0,0,1,4.52,3,4.85,4.85,0,0,1-1,5.3,4.87,4.87,0,0,1-5.31,1.07,4.87,4.87,0,0,1-3-4.5A4.86,4.86,0,0,1-232.7,547.61Zm0,13.73a8.89,8.89,0,0,0,8.23-5.46,8.85,8.85,0,0,0-1.91-9.68,8.91,8.91,0,0,0-9.7-1.94,8.87,8.87,0,0,0-5.49,8.2A8.88,8.88,0,0,0-232.7,561.34Z"/></clipPath><clipPath id="clip-path-16"><circle class="cls-1" cx="-203.74" cy="333.5" r="102.5"/></clipPath><clipPath id="clip-path-17"><path class="cls-1" d="M-203.47,310a7.3,7.3,0,0,1,6.76,4.49,7.28,7.28,0,0,1-1.61,7.94,7.29,7.29,0,0,1-8,1.53,7.26,7.26,0,0,1-4.44-6.77,7.27,7.27,0,0,1,7.26-7.21Zm0,18.64A11.43,11.43,0,0,0-192,317.22a11.41,11.41,0,0,0-11.4-11.43,11.43,11.43,0,0,0-11.48,11.37,11.38,11.38,0,0,0,3.33,8.08A11.46,11.46,0,0,0-203.47,328.61Z"/></clipPath><clipPath id="clip-path-18"><path class="cls-1" d="M-179,349.38a29.11,29.11,0,0,0-6.86-11.65,13.38,13.38,0,0,1,5-3.42,11.43,11.43,0,0,0,12.86,0c7.29,3,9.28,11.19,9.83,15.05Zm-46.72,8.18a35.22,35.22,0,0,1,1.13-6,27.45,27.45,0,0,1,7.52-12.32,18.29,18.29,0,0,1,5.15-2.95,14.36,14.36,0,0,0,16.74,0,18.21,18.21,0,0,1,5.19,3.22A25.2,25.2,0,0,1-182.51,352a38.65,38.65,0,0,1,1.11,5.63Zm-23-7.94c.55-3.88,2.57-12.05,9.84-15a11.42,11.42,0,0,0,12.83,0,13.44,13.44,0,0,1,4.89,2.78,27.72,27.72,0,0,0-7.15,12.05Zm80.91-19.53a2.08,2.08,0,0,0-2.05.45l-.12.12a7.07,7.07,0,0,1-8.88,0l-.22-.22a2.1,2.1,0,0,0-2.06-.47,17.41,17.41,0,0,0-7.88,5,22.64,22.64,0,0,0-6.06-3,2.12,2.12,0,0,0-2.05.42l-.19.19a10,10,0,0,1-12.69,0l-.18-.21a2.11,2.11,0,0,0-2.06-.44,23.56,23.56,0,0,0-5.83,2.69,18.07,18.07,0,0,0-7.89-4.39,2.05,2.05,0,0,0-2.05.44l-.18.18a7.1,7.1,0,0,1-8.94,0l-.12-.14a2.05,2.05,0,0,0-2-.44C-252.52,334.69-253,351-253,351.53a2,2,0,0,0,2,2l21.75-.14a34.58,34.58,0,0,0-.76,6.17,2,2,0,0,0,2.05,2h48.76a2,2,0,0,0,2-2,37.05,37.05,0,0,0-.82-6h22a2,2,0,0,0,2.06-2C-153.88,350.63-154.38,334.37-167.79,330.09Z"/></clipPath><clipPath id="clip-path-19"><path class="cls-1" d="M-179.49,316.41a4.87,4.87,0,0,1,4.5,3,4.86,4.86,0,0,1-1.07,5.3,4.9,4.9,0,0,1-5.31,1,4.86,4.86,0,0,1-3-4.51A4.86,4.86,0,0,1-179.49,316.41Zm0,13.74a8.88,8.88,0,0,0,8.89-8.87,8.87,8.87,0,0,0-8.88-8.88,8.88,8.88,0,0,0-8.91,8.85,8.84,8.84,0,0,0,2.6,6.29A8.9,8.9,0,0,0-179.49,330.15Z"/></clipPath><clipPath id="clip-path-20"><path class="cls-1" d="M-232.7,313.61a4.88,4.88,0,0,1,4.52,3,4.85,4.85,0,0,1-1,5.3,4.87,4.87,0,0,1-5.31,1.07,4.87,4.87,0,0,1-3-4.5A4.86,4.86,0,0,1-232.7,313.61Zm0,13.73a8.89,8.89,0,0,0,8.23-5.46,8.85,8.85,0,0,0-1.91-9.68,8.91,8.91,0,0,0-9.7-1.94,8.87,8.87,0,0,0-5.49,8.2A8.88,8.88,0,0,0-232.7,327.34Z"/></clipPath><clipPath id="clip-path-21"><circle class="cls-1" cx="-203.74" cy="102.5" r="102.5"/></clipPath><clipPath id="clip-path-22"><path class="cls-1" d="M-203.47,79a7.3,7.3,0,0,1,6.76,4.49,7.28,7.28,0,0,1-1.61,7.94,7.29,7.29,0,0,1-8,1.53,7.26,7.26,0,0,1-4.44-6.77A7.27,7.27,0,0,1-203.47,79Zm0,18.64A11.43,11.43,0,0,0-192,86.22a11.41,11.41,0,0,0-11.4-11.43,11.43,11.43,0,0,0-11.48,11.37,11.38,11.38,0,0,0,3.33,8.08A11.46,11.46,0,0,0-203.47,97.61Z"/></clipPath><clipPath id="clip-path-23"><path class="cls-1" d="M-179,118.38a29.11,29.11,0,0,0-6.86-11.65,13.38,13.38,0,0,1,5-3.42,11.43,11.43,0,0,0,12.86,0c7.29,3,9.28,11.19,9.83,15Zm-46.72,8.18a35.22,35.22,0,0,1,1.13-6,27.45,27.45,0,0,1,7.52-12.32,18.29,18.29,0,0,1,5.15-2.95,14.36,14.36,0,0,0,16.74,0,18.21,18.21,0,0,1,5.19,3.22A25.2,25.2,0,0,1-182.51,121a38.65,38.65,0,0,1,1.11,5.63Zm-23-7.94c.55-3.88,2.57-12.05,9.84-15a11.42,11.42,0,0,0,12.83,0,13.44,13.44,0,0,1,4.89,2.78,27.72,27.72,0,0,0-7.15,12Zm80.91-19.53a2.08,2.08,0,0,0-2.05.45l-.12.12a7.07,7.07,0,0,1-8.88,0l-.22-.22a2.1,2.1,0,0,0-2.06-.47,17.41,17.41,0,0,0-7.88,5,22.64,22.64,0,0,0-6.06-3,2.12,2.12,0,0,0-2.05.42l-.19.19a10,10,0,0,1-12.69,0l-.18-.21a2.11,2.11,0,0,0-2.06-.44,23.56,23.56,0,0,0-5.83,2.69,18.07,18.07,0,0,0-7.89-4.39,2.05,2.05,0,0,0-2.05.44l-.18.18a7.1,7.1,0,0,1-8.94,0l-.12-.14a2.05,2.05,0,0,0-2-.44C-252.52,103.69-253,120-253,120.53a2,2,0,0,0,2,2l21.75-.14a34.58,34.58,0,0,0-.76,6.17,2,2,0,0,0,2.05,2h48.76a2,2,0,0,0,2-2,37.05,37.05,0,0,0-.82-6h22a2,2,0,0,0,2.06-2C-153.88,119.63-154.38,103.37-167.79,99.09Z"/></clipPath><clipPath id="clip-path-24"><path class="cls-1" d="M-179.49,85.41a4.87,4.87,0,0,1,4.5,3,4.86,4.86,0,0,1-1.07,5.3,4.9,4.9,0,0,1-5.31,1,4.86,4.86,0,0,1-3-4.51A4.86,4.86,0,0,1-179.49,85.41Zm0,13.74a8.88,8.88,0,0,0,8.89-8.87,8.87,8.87,0,0,0-8.88-8.88,8.88,8.88,0,0,0-8.91,8.85,8.84,8.84,0,0,0,2.6,6.29A8.9,8.9,0,0,0-179.49,99.15Z"/></clipPath><clipPath id="clip-path-25"><path class="cls-1" d="M-232.7,82.61a4.88,4.88,0,0,1,4.52,3,4.85,4.85,0,0,1-1,5.3A4.87,4.87,0,0,1-234.54,92a4.87,4.87,0,0,1-3-4.5A4.86,4.86,0,0,1-232.7,82.61Zm0,13.73a8.89,8.89,0,0,0,8.23-5.46,8.85,8.85,0,0,0-1.91-9.68,8.91,8.91,0,0,0-9.7-1.94,8.87,8.87,0,0,0-5.49,8.2A8.88,8.88,0,0,0-232.7,96.34Z"/></clipPath><clipPath id="clip-path-26"><circle class="cls-1" cx="-203.74" cy="-127.5" r="102.5"/></clipPath><clipPath id="clip-path-27"><path class="cls-1" d="M-203.47-151a7.3,7.3,0,0,1,6.76,4.49,7.28,7.28,0,0,1-1.61,7.94,7.29,7.29,0,0,1-8,1.53,7.26,7.26,0,0,1-4.44-6.77,7.27,7.27,0,0,1,7.26-7.21Zm0,18.64A11.43,11.43,0,0,0-192-143.78a11.41,11.41,0,0,0-11.4-11.43,11.43,11.43,0,0,0-11.48,11.37,11.38,11.38,0,0,0,3.33,8.08A11.46,11.46,0,0,0-203.47-132.39Z"/></clipPath><clipPath id="clip-path-28"><path class="cls-1" d="M-179-111.62a29.11,29.11,0,0,0-6.86-11.65,13.38,13.38,0,0,1,5-3.42,11.43,11.43,0,0,0,12.86,0c7.29,3,9.28,11.19,9.83,15Zm-46.72,8.18a35.22,35.22,0,0,1,1.13-6,27.45,27.45,0,0,1,7.52-12.32,18.29,18.29,0,0,1,5.15-2.95,14.36,14.36,0,0,0,16.74,0,18.21,18.21,0,0,1,5.19,3.22A25.2,25.2,0,0,1-182.51-109a38.65,38.65,0,0,1,1.11,5.63Zm-23-7.94c.55-3.88,2.57-12.05,9.84-15a11.42,11.42,0,0,0,12.83,0,13.44,13.44,0,0,1,4.89,2.78,27.72,27.72,0,0,0-7.15,12Zm80.91-19.53a2.08,2.08,0,0,0-2.05.45l-.12.12a7.07,7.07,0,0,1-8.88,0l-.22-.22a2.1,2.1,0,0,0-2.06-.47,17.41,17.41,0,0,0-7.88,5,22.64,22.64,0,0,0-6.06-3,2.12,2.12,0,0,0-2.05.42l-.19.19a10,10,0,0,1-12.69,0l-.18-.21a2.11,2.11,0,0,0-2.06-.44,23.56,23.56,0,0,0-5.83,2.69,18.07,18.07,0,0,0-7.89-4.39,2.05,2.05,0,0,0-2.05.44l-.18.18a7.1,7.1,0,0,1-8.94,0l-.12-.14a2.05,2.05,0,0,0-2-.44C-252.52-126.31-253-110-253-109.47a2,2,0,0,0,2,2l21.75-.14a34.58,34.58,0,0,0-.76,6.17,2,2,0,0,0,2.05,2h48.76a2,2,0,0,0,2-2,37.05,37.05,0,0,0-.82-6h22a2,2,0,0,0,2.06-2C-153.88-110.37-154.38-126.63-167.79-130.91Z"/></clipPath><clipPath id="clip-path-29"><path class="cls-1" d="M-179.49-144.59a4.87,4.87,0,0,1,4.5,3,4.86,4.86,0,0,1-1.07,5.3,4.9,4.9,0,0,1-5.31,1,4.86,4.86,0,0,1-3-4.51A4.86,4.86,0,0,1-179.49-144.59Zm0,13.74a8.88,8.88,0,0,0,8.89-8.87,8.87,8.87,0,0,0-8.88-8.88,8.88,8.88,0,0,0-8.91,8.85,8.84,8.84,0,0,0,2.6,6.29A8.9,8.9,0,0,0-179.49-130.85Z"/></clipPath><clipPath id="clip-path-30"><path class="cls-1" d="M-232.7-147.39a4.88,4.88,0,0,1,4.52,3,4.85,4.85,0,0,1-1,5.3,4.87,4.87,0,0,1-5.31,1.07,4.87,4.87,0,0,1-3-4.5A4.86,4.86,0,0,1-232.7-147.39Zm0,13.73a8.89,8.89,0,0,0,8.23-5.46,8.85,8.85,0,0,0-1.91-9.68,8.91,8.91,0,0,0-9.7-1.94,8.87,8.87,0,0,0-5.49,8.2A8.88,8.88,0,0,0-232.7-133.66Z"/></clipPath><clipPath id="clip-path-31"><circle class="cls-1" cx="102.26" cy="1051.5" r="102.5"/></clipPath><clipPath id="clip-path-32"><rect class="cls-1" x="112.49" y="1032.55" width="40.36" height="68.3"/></clipPath><clipPath id="clip-path-33"><rect class="cls-1" x="53.5" y="1032.55" width="40.36" height="68.3"/></clipPath><clipPath id="clip-path-34"><path class="cls-2" d="M72.13,1041.86v-6.21a31,31,0,0,1,62.09,0v12.42h3.11v-14.33h-.06a34.15,34.15,0,0,0-68.19,0H69v14.33h3.11Z"/></clipPath><clipPath id="clip-path-35"><path class="cls-2" d="M103.23,1031.64a9,9,0,1,0-6.32-2.64,8.94,8.94,0,0,0,6.32,2.64m0-14.62v0a5.69,5.69,0,1,1-5.68,5.63,5.68,5.68,0,0,1,5.68-5.63"/></clipPath><clipPath id="clip-path-36"><path class="cls-2" d="M89.42,1038.52a21.73,21.73,0,0,0-5.59,9.44l-.72,3.11a28,28,0,0,0-.6,4.83,1.59,1.59,0,0,0,1.61,1.57h38.11a1.59,1.59,0,0,0,1.61-1.57,29.09,29.09,0,0,0-.65-4.73s-2-10.21-8.65-14.51a20.28,20.28,0,0,0-4.74-2.33,1.64,1.64,0,0,0-1.6.33l-.14.14a7.82,7.82,0,0,1-9.93,0l-.14-.15a1.63,1.63,0,0,0-1.61-.35,14.49,14.49,0,0,0-4.56,2.11c-.63.48-2.4,2.11-2.4,2.11m7.2-.88a11.22,11.22,0,0,0,13.09,0,14.32,14.32,0,0,1,4.06,2.52,19.7,19.7,0,0,1,5.84,9.77,30.17,30.17,0,0,1,.87,4.41l-34.64,0a28.22,28.22,0,0,1,.88-4.72,21.47,21.47,0,0,1,5.87-9.65,14.31,14.31,0,0,1,4-2.31"/></clipPath><clipPath id="clip-path-37"><circle class="cls-1" cx="102.26" cy="807.5" r="102.5"/></clipPath><clipPath id="clip-path-38"><rect class="cls-1" x="112.56" y="788.46" width="40.65" height="68.64"/></clipPath><clipPath id="clip-path-39"><rect class="cls-1" x="53.15" y="788.45" width="40.65" height="68.64"/></clipPath><clipPath id="clip-path-40"><path class="cls-2" d="M71.91,797.82v-6.25a31.27,31.27,0,0,1,62.54,0v12.48h3.13v-14.4h-.06a34.4,34.4,0,0,0-68.68,0h-.06v14.4h3.13Z"/></clipPath><clipPath id="clip-path-41"><path class="cls-2" d="M103.24,787.54a9,9,0,1,0-6.37-2.65,9,9,0,0,0,6.37,2.65m0-14.69v0a5.72,5.72,0,1,1-5.72,5.66,5.74,5.74,0,0,1,5.72-5.66"/></clipPath><clipPath id="clip-path-42"><path class="cls-2" d="M89.32,794.46A21.81,21.81,0,0,0,83.7,804L83,807.06a27.48,27.48,0,0,0-.6,4.86A1.6,1.6,0,0,0,84,813.5h38.39a1.6,1.6,0,0,0,1.61-1.58,29.31,29.31,0,0,0-.64-4.75s-2-10.26-8.72-14.58a20.32,20.32,0,0,0-4.77-2.34,1.65,1.65,0,0,0-1.62.33l-.14.14a7.9,7.9,0,0,1-10,0l-.14-.16a1.65,1.65,0,0,0-1.62-.34,14.45,14.45,0,0,0-4.59,2.12c-.65.48-2.43,2.12-2.43,2.12m7.26-.89a11.32,11.32,0,0,0,13.18,0,14.36,14.36,0,0,1,4.09,2.53,19.91,19.91,0,0,1,5.89,9.82,30.69,30.69,0,0,1,.87,4.43H85.72a28.4,28.4,0,0,1,.89-4.75,21.62,21.62,0,0,1,5.91-9.7,14.75,14.75,0,0,1,4.06-2.32"/></clipPath><clipPath id="clip-path-43"><circle class="cls-1" cx="102.26" cy="567.5" r="102.5"/></clipPath><clipPath id="clip-path-44"><rect class="cls-1" x="112.56" y="548.46" width="40.65" height="68.64"/></clipPath><clipPath id="clip-path-45"><rect class="cls-1" x="53.15" y="548.45" width="40.65" height="68.64"/></clipPath><clipPath id="clip-path-46"><path class="cls-2" d="M71.91,557.82v-6.25a31.27,31.27,0,0,1,62.54,0v12.48h3.13v-14.4h-.06a34.4,34.4,0,0,0-68.68,0h-.06v14.4h3.13Z"/></clipPath><clipPath id="clip-path-47"><path class="cls-2" d="M103.24,547.54a9,9,0,1,0-6.37-2.65,9,9,0,0,0,6.37,2.65m0-14.69v0a5.72,5.72,0,1,1-5.72,5.66,5.74,5.74,0,0,1,5.72-5.66"/></clipPath><clipPath id="clip-path-48"><path class="cls-2" d="M89.32,554.46A21.81,21.81,0,0,0,83.7,564L83,567.06a27.48,27.48,0,0,0-.6,4.86A1.6,1.6,0,0,0,84,573.5h38.39a1.6,1.6,0,0,0,1.61-1.58,29.31,29.31,0,0,0-.64-4.75s-2-10.26-8.72-14.58a20.32,20.32,0,0,0-4.77-2.34,1.65,1.65,0,0,0-1.62.33l-.14.14a7.9,7.9,0,0,1-10,0l-.14-.16a1.65,1.65,0,0,0-1.62-.34,14.45,14.45,0,0,0-4.59,2.12c-.65.48-2.43,2.12-2.43,2.12m7.26-.89a11.32,11.32,0,0,0,13.18,0,14.36,14.36,0,0,1,4.09,2.53,19.91,19.91,0,0,1,5.89,9.82,30.69,30.69,0,0,1,.87,4.43H85.72a28.4,28.4,0,0,1,.89-4.75,21.62,21.62,0,0,1,5.91-9.7,14.75,14.75,0,0,1,4.06-2.32"/></clipPath><clipPath id="clip-path-49"><circle class="cls-1" cx="102.26" cy="333.5" r="102.5"/></clipPath><clipPath id="clip-path-50"><rect class="cls-1" x="112.56" y="314.46" width="40.65" height="68.64"/></clipPath><clipPath id="clip-path-51"><rect class="cls-1" x="53.15" y="314.45" width="40.65" height="68.64"/></clipPath><clipPath id="clip-path-52"><path class="cls-2" d="M71.91,323.82v-6.25a31.27,31.27,0,0,1,62.54,0v12.48h3.13v-14.4h-.06a34.4,34.4,0,0,0-68.68,0h-.06v14.4h3.13Z"/></clipPath><clipPath id="clip-path-53"><path class="cls-2" d="M103.24,313.54a9,9,0,1,0-6.37-2.65,9,9,0,0,0,6.37,2.65m0-14.69v0a5.72,5.72,0,1,1-5.72,5.66,5.74,5.74,0,0,1,5.72-5.66"/></clipPath><clipPath id="clip-path-54"><path class="cls-2" d="M89.32,320.46A21.81,21.81,0,0,0,83.7,330L83,333.06a27.48,27.48,0,0,0-.6,4.86A1.6,1.6,0,0,0,84,339.5h38.39a1.6,1.6,0,0,0,1.61-1.58,29.31,29.31,0,0,0-.64-4.75s-2-10.26-8.72-14.58a20.32,20.32,0,0,0-4.77-2.34,1.65,1.65,0,0,0-1.62.33l-.14.14a7.9,7.9,0,0,1-10,0l-.14-.16a1.65,1.65,0,0,0-1.62-.34,14.45,14.45,0,0,0-4.59,2.12c-.65.48-2.43,2.12-2.43,2.12m7.26-.89a11.32,11.32,0,0,0,13.18,0,14.36,14.36,0,0,1,4.09,2.53,19.91,19.91,0,0,1,5.89,9.82,30.69,30.69,0,0,1,.87,4.43H85.72a28.4,28.4,0,0,1,.89-4.75,21.62,21.62,0,0,1,5.91-9.7,14.75,14.75,0,0,1,4.06-2.32"/></clipPath><clipPath id="clip-path-55"><circle class="cls-1" cx="102.26" cy="102.5" r="102.5"/></clipPath><clipPath id="clip-path-56"><rect class="cls-1" x="-1592.67" y="-2505.22" width="2578.52" height="6744.9"/></clipPath><clipPath id="clip-path-57"><rect class="cls-1" x="112.56" y="83.46" width="40.65" height="68.64"/></clipPath><clipPath id="clip-path-59"><rect class="cls-1" x="111.57" y="83.41" width="42.3" height="69.34"/></clipPath><clipPath id="clip-path-60"><path class="cls-2" d="M147,83.46a6.24,6.24,0,0,0-6.25,6.23v12.48h3.12V89.69a3.13,3.13,0,0,1,6.26,0v25a8.2,8.2,0,0,1-2.67,5.15l-10.95,10.92a11.22,11.22,0,0,0-3.58,7.34v1.56H118.82V128.69a10.51,10.51,0,0,1,2.67-6.69l15.17-15.15h.92a3.13,3.13,0,0,1,3.13,3.12v.92l-10.49,10.46,2.21,2.21,11.41-11.38V110a6.26,6.26,0,0,0-6.26-6.24h-2.21l-16.09,16.06a13.68,13.68,0,0,0-3.59,8.9v10.92a3.13,3.13,0,0,0-3.13,3.12v9.36h3.13v-9.36H136v9.36h3.12v-9.36a3.12,3.12,0,0,0-3.12-3.12h0v-1.54a8.24,8.24,0,0,1,2.67-5.15L149.63,122a11.22,11.22,0,0,0,3.58-7.35v-25A6.24,6.24,0,0,0,147,83.46"/></clipPath><clipPath id="clip-path-62"><rect class="cls-1" x="53.15" y="83.45" width="40.65" height="68.64"/></clipPath><clipPath id="clip-path-64"><rect class="cls-1" x="53.15" y="83.41" width="41.3" height="69.34"/></clipPath><clipPath id="clip-path-65"><path class="cls-2" d="M90.67,139.61V128.69a13.71,13.71,0,0,0-3.58-8.9L71,103.73H68.78A6.25,6.25,0,0,0,62.53,110v2.21l11.4,11.38,2.21-2.21L65.66,110.89V110a3.12,3.12,0,0,1,3.12-3.12h.92L84.88,122a10.63,10.63,0,0,1,2.66,6.69v10.92H73.47v-1.56a11.22,11.22,0,0,0-3.58-7.34l-11-10.92a8.28,8.28,0,0,1-2.67-5.14v-25a3.13,3.13,0,0,1,6.26,0v12.48h3.13V89.69a6.26,6.26,0,0,0-12.51,0v25A11.22,11.22,0,0,0,56.73,122l11,10.92a8.26,8.26,0,0,1,2.67,5.13v1.56a3.13,3.13,0,0,0-3.13,3.12v9.36h3.13v-9.36H90.67v9.36H93.8v-9.36a3.13,3.13,0,0,0-3.13-3.12"/></clipPath><clipPath id="clip-path-67"><path class="cls-2" d="M71.91,92.82V86.57a31.27,31.27,0,0,1,62.54,0V99.05h3.13V84.65h-.06a34.4,34.4,0,0,0-68.68,0h-.06v14.4h3.13Z"/></clipPath><clipPath id="clip-path-69"><path class="cls-2" d="M103.24,82.54a9,9,0,1,0-6.37-2.65,9,9,0,0,0,6.37,2.65m0-14.69v0a5.72,5.72,0,1,1-5.72,5.66,5.74,5.74,0,0,1,5.72-5.66"/></clipPath><clipPath id="clip-path-71"><path class="cls-2" d="M89.32,89.46A21.81,21.81,0,0,0,83.7,99L83,102.06a27.48,27.48,0,0,0-.6,4.86A1.6,1.6,0,0,0,84,108.5h38.39a1.6,1.6,0,0,0,1.61-1.58,29.31,29.31,0,0,0-.64-4.75s-2-10.26-8.72-14.58a20.32,20.32,0,0,0-4.77-2.34,1.65,1.65,0,0,0-1.62.33l-.14.14a7.9,7.9,0,0,1-10,0L98,85.56a1.65,1.65,0,0,0-1.62-.34,14.45,14.45,0,0,0-4.59,2.12c-.65.48-2.43,2.12-2.43,2.12m7.26-.89a11.32,11.32,0,0,0,13.18,0,14.36,14.36,0,0,1,4.09,2.53,19.91,19.91,0,0,1,5.89,9.82,30.69,30.69,0,0,1,.87,4.43H85.72a28.4,28.4,0,0,1,.89-4.75,21.62,21.62,0,0,1,5.91-9.7,14.75,14.75,0,0,1,4.06-2.32"/></clipPath><clipPath id="clip-path-73"><circle class="cls-1" cx="102.26" cy="-127.5" r="102.5"/></clipPath><clipPath id="clip-path-74"><rect class="cls-1" x="112.56" y="-146.54" width="40.65" height="68.64"/></clipPath><clipPath id="clip-path-75"><rect class="cls-1" x="53.15" y="-146.55" width="40.65" height="68.64"/></clipPath><clipPath id="clip-path-76"><path class="cls-2" d="M71.91-137.18v-6.25a31.27,31.27,0,0,1,31.27-31.19,31.26,31.26,0,0,1,31.27,31.19v12.48h3.13v-14.4h-.06a34.4,34.4,0,0,0-34.34-32.39,34.4,34.4,0,0,0-34.34,32.39h-.06v14.4h3.13Z"/></clipPath><clipPath id="clip-path-77"><path class="cls-2" d="M103.24-147.46a9,9,0,0,0,9-9,9,9,0,0,0-9-9,9,9,0,0,0-9,9,8.94,8.94,0,0,0,2.62,6.36,9,9,0,0,0,6.37,2.65m0-14.69v0a5.74,5.74,0,0,1,5.32,3.53,5.74,5.74,0,0,1-1.27,6.26,5.74,5.74,0,0,1-6.27,1.2,5.7,5.7,0,0,1-3.5-5.33,5.72,5.72,0,0,1,5.72-5.68"/></clipPath><clipPath id="clip-path-78"><path class="cls-2" d="M89.32-140.54A21.81,21.81,0,0,0,83.7-131L83-127.94a27.48,27.48,0,0,0-.6,4.86A1.6,1.6,0,0,0,84-121.5h38.39a1.6,1.6,0,0,0,1.61-1.58,29.31,29.31,0,0,0-.64-4.75s-2-10.26-8.72-14.58a20.32,20.32,0,0,0-4.77-2.34,1.65,1.65,0,0,0-1.62.33l-.14.14a7.9,7.9,0,0,1-10,0l-.14-.16a1.65,1.65,0,0,0-1.62-.34,14.45,14.45,0,0,0-4.59,2.12c-.65.48-2.43,2.12-2.43,2.12m7.26-.89a11.32,11.32,0,0,0,13.18,0,14.36,14.36,0,0,1,4.09,2.53,19.91,19.91,0,0,1,5.89,9.82,30.69,30.69,0,0,1,.87,4.43H85.72a28.4,28.4,0,0,1,.89-4.75,21.62,21.62,0,0,1,5.91-9.7,14.75,14.75,0,0,1,4.06-2.32"/></clipPath><clipPath id="clip-path-79"><path class="cls-1" d="M399,1021a5.74,5.74,0,0,1,3.4-3.4,6.26,6.26,0,0,1,2.27-.42,5.89,5.89,0,0,1,5.3,3l1.12,2.31a2,2,0,0,0,3.56,0l1.11-2.31a6.11,6.11,0,0,1,7.6-2.62,5.77,5.77,0,0,1,3.4,3.4,3.15,3.15,0,0,1-.32,2.78,125.8,125.8,0,0,1-13.54,15,125,125,0,0,1-13.55-15A3.19,3.19,0,0,1,399,1021Zm11.5,21a3.39,3.39,0,0,0,4.75,0,139.83,139.83,0,0,0,14.45-16,6.94,6.94,0,0,0,.77-6.07,9.6,9.6,0,0,0-5.69-5.83,10.18,10.18,0,0,0-11.92,3.42,10.17,10.17,0,0,0-11.9-3.42,9.58,9.58,0,0,0-5.71,5.83,7,7,0,0,0,.78,6.07A141.9,141.9,0,0,0,410.45,1042Z"/></clipPath><clipPath id="clip-path-80"><path class="cls-1" d="M399,777a5.74,5.74,0,0,1,3.4-3.4,6.26,6.26,0,0,1,2.27-.42,5.89,5.89,0,0,1,5.3,3l1.12,2.31a2,2,0,0,0,3.56,0l1.11-2.31a6.11,6.11,0,0,1,7.6-2.62,5.77,5.77,0,0,1,3.4,3.4,3.15,3.15,0,0,1-.32,2.78,125.8,125.8,0,0,1-13.54,15,125,125,0,0,1-13.55-15A3.19,3.19,0,0,1,399,777Zm11.5,21a3.39,3.39,0,0,0,4.75,0,139.83,139.83,0,0,0,14.45-16,6.94,6.94,0,0,0,.77-6.07,9.6,9.6,0,0,0-5.69-5.83,10.18,10.18,0,0,0-11.92,3.42,10.17,10.17,0,0,0-11.9-3.42,9.58,9.58,0,0,0-5.71,5.83,7,7,0,0,0,.78,6.07A141.9,141.9,0,0,0,410.45,798Z"/></clipPath><clipPath id="clip-path-81"><path class="cls-1" d="M399,537a5.74,5.74,0,0,1,3.4-3.4,6.26,6.26,0,0,1,2.27-.42,5.89,5.89,0,0,1,5.3,3l1.12,2.31a2,2,0,0,0,3.56,0l1.11-2.31a6.11,6.11,0,0,1,7.6-2.62,5.77,5.77,0,0,1,3.4,3.4,3.15,3.15,0,0,1-.32,2.78,125.8,125.8,0,0,1-13.54,15,125,125,0,0,1-13.55-15A3.19,3.19,0,0,1,399,537Zm11.5,21a3.39,3.39,0,0,0,4.75,0,139.83,139.83,0,0,0,14.45-16,6.94,6.94,0,0,0,.77-6.07,9.6,9.6,0,0,0-5.69-5.83,10.18,10.18,0,0,0-11.92,3.42,10.17,10.17,0,0,0-11.9-3.42,9.58,9.58,0,0,0-5.71,5.83,7,7,0,0,0,.78,6.07A141.9,141.9,0,0,0,410.45,558Z"/></clipPath><clipPath id="clip-path-82"><path class="cls-1" d="M399,303a5.74,5.74,0,0,1,3.4-3.4,6.26,6.26,0,0,1,2.27-.42,5.89,5.89,0,0,1,5.3,3l1.12,2.31a2,2,0,0,0,3.56,0l1.11-2.31a6.11,6.11,0,0,1,7.6-2.62,5.77,5.77,0,0,1,3.4,3.4,3.15,3.15,0,0,1-.32,2.78,125.8,125.8,0,0,1-13.54,15,125,125,0,0,1-13.55-15A3.19,3.19,0,0,1,399,303ZM410.45,324a3.39,3.39,0,0,0,4.75,0,139.83,139.83,0,0,0,14.45-16,6.94,6.94,0,0,0,.77-6.07,9.6,9.6,0,0,0-5.69-5.83,10.18,10.18,0,0,0-11.92,3.42,10.17,10.17,0,0,0-11.9-3.42,9.58,9.58,0,0,0-5.71,5.83,7,7,0,0,0,.78,6.07A141.9,141.9,0,0,0,410.45,324Z"/></clipPath><clipPath id="clip-path-83"><path class="cls-1" d="M399,72a5.74,5.74,0,0,1,3.4-3.4,6.26,6.26,0,0,1,2.27-.42,5.89,5.89,0,0,1,5.3,3L411,73.54a2,2,0,0,0,3.56,0l1.11-2.31a6.11,6.11,0,0,1,7.6-2.62,5.77,5.77,0,0,1,3.4,3.4,3.15,3.15,0,0,1-.32,2.78,125.8,125.8,0,0,1-13.54,15,125,125,0,0,1-13.55-15A3.19,3.19,0,0,1,399,72ZM410.45,93a3.39,3.39,0,0,0,4.75,0,139.83,139.83,0,0,0,14.45-16,6.94,6.94,0,0,0,.77-6.07A9.6,9.6,0,0,0,424.73,65a10.18,10.18,0,0,0-11.92,3.42A10.17,10.17,0,0,0,400.91,65a9.58,9.58,0,0,0-5.71,5.83,7,7,0,0,0,.78,6.07A141.9,141.9,0,0,0,410.45,93Z"/></clipPath><clipPath id="clip-path-84"><path class="cls-1" d="M399-158a5.74,5.74,0,0,1,3.4-3.4,6.26,6.26,0,0,1,2.27-.42,5.89,5.89,0,0,1,5.3,3l1.12,2.31a2,2,0,0,0,1.78,1.12,2,2,0,0,0,1.78-1.12l1.11-2.31a6.11,6.11,0,0,1,7.6-2.62,5.77,5.77,0,0,1,3.4,3.4,3.15,3.15,0,0,1-.32,2.78,125.8,125.8,0,0,1-13.54,15,125,125,0,0,1-13.55-15A3.19,3.19,0,0,1,399-158Zm11.5,21a3.4,3.4,0,0,0,2.38,1,3.38,3.38,0,0,0,2.37-1,139.83,139.83,0,0,0,14.45-16,6.94,6.94,0,0,0,.77-6.07,9.6,9.6,0,0,0-5.69-5.83,10.18,10.18,0,0,0-11.92,3.42,10.17,10.17,0,0,0-11.9-3.42,9.58,9.58,0,0,0-5.71,5.83,7,7,0,0,0,.78,6.07A141.9,141.9,0,0,0,410.45-137Z"/></clipPath></defs><title>Pictos Ronds</title><g class="cls-57"><g class="cls-58"><rect class="cls-59" x="-5.27" y="-5.02" width="215.07" height="215.05"/></g></g><g class="cls-60"><g class="cls-58"><g class="cls-61"><g class="cls-62"><g class="cls-63"><g class="cls-62"><rect class="cls-64" x="107.53" y="78.43" width="50.72" height="78.69"/></g></g></g></g></g></g><g class="cls-65"><g class="cls-58"><g class="cls-61"><g class="cls-66"><g class="cls-67"><g class="cls-66"><rect class="cls-64" x="48.11" y="78.43" width="50.73" height="78.69"/></g></g></g></g></g></g><g class="cls-68"><g class="cls-58"><rect class="cls-64" x="63.75" y="47.23" width="78.87" height="56.85"/></g></g><g class="cls-69"><g class="cls-58"><rect class="cls-64" x="89.21" y="59.55" width="28.09" height="28.02"/></g></g><g class="cls-70"><g class="cls-58"><rect class="cls-64" x="77.33" y="80.11" width="51.7" height="33.41"/></g></g></svg>