<svg id="Calque_1" data-name="Calque 1" xmlns="http://www.w3.org/2000/svg" viewBox="0 0 100 100"><defs><style>.cls-1,.cls-6{fill:#04646c;}.cls-2,.cls-5{fill:#027d8e;}.cls-3,.cls-9{fill:#8db424;}.cls-3,.cls-4,.cls-5,.cls-6,.cls-7,.cls-8{fill-rule:evenodd;}.cls-10,.cls-4{fill:#98c11d;}.cls-7{fill:#ebeff0;}.cls-13,.cls-8{fill:#fff;}.cls-11{fill:#556180;}.cls-12{fill:#007d8f;}.cls-14{fill:#99cc01;}</style></defs><title>Planche-Pictox3-28-06-2108</title><path class="cls-1" d="M11.46,92.86l.41,3.48h.42l-.41-3.48Zm0,0"/><path class="cls-2" d="M13.55,92.85H13.3l0,3.48h.25Zm0,0"/><path class="cls-1" d="M13.13,92.85l0,3.48h.16l0-3.48Zm0,0"/><path class="cls-2" d="M14.8,92.84l-.36,3.48h.41l.37-3.48Zm0,0"/><path class="cls-3" d="M13.14,67a11,11,0,0,0-2.28-.32c-2.81-.29-6.08,2.52-7.26,4.83a12.1,12.1,0,0,0-.35,9.27c2.3,6.75,8.06,11.6,10.05,11.61L13.19,67l0,0Zm0,0"/><path class="cls-4" d="M22.7,71.28c-1.22-2.18-4.88-5.13-7.59-4.62a9.65,9.65,0,0,0-1.92.36l.11,25.41h0c2,0,7.71-4.93,9.92-11.73a12,12,0,0,0-.54-9.42Zm0,0"/><path class="cls-5" d="M15.13,96.18H13.32V98.5h.94a2.42,2.42,0,0,0,.88-2,1.83,1.83,0,0,0,0-.33Zm0,0"/><path class="cls-6" d="M11.71,96.2c0,.11,0,.22,0,.33a2.45,2.45,0,0,0,.9,2h.74V96.19Zm0,0"/><path class="cls-7" d="M13.18,67a8.49,8.49,0,0,0-1.4-.22c-1.9-.32-3.58.95-4.85,2.21C4.26,71.64,3.6,76.33,4.87,80.81c1.93,6.75,6.76,11.6,8.43,11.62L13.18,67Zm0,0"/><path class="cls-8" d="M19.31,68.81c-1.09-1-3.07-2.44-4.83-2.13a3.75,3.75,0,0,0-1.3.3l.12,25.45h0c1.65,0,6.45-4.92,8.3-11.72,1.24-4.55.48-9.27-2.31-11.9Zm0,0"/><path class="cls-4" d="M18,69.41c-.87-1.45-2.81-3.21-4.45-2.68a1.66,1.66,0,0,0-.33.16l.12,25.54h0c1.17,0,4.55-4.91,5.85-11.71.8-4.19.41-8.62-1.21-11.31Zm0,0"/><path class="cls-3" d="M13.15,66.91a1.8,1.8,0,0,0-.4-.15c-1.6-.35-3.36,1.09-4.29,2.62-1.64,2.71-2,7.18-1.13,11.41,1.37,6.75,4.79,11.6,6,11.64l-.12-25.54,0,0Zm0,0"/><path class="cls-7" d="M12,67.32c-1.45,1.77-1.87,7.79-1.35,13.45.61,6.72,2.09,11.56,2.61,11.65L13.18,66.7a1.46,1.46,0,0,0-1.14.62Zm0,0"/><path class="cls-8" d="M15.81,80.74c.45-5.66-.06-11.57-1.51-13.43a1.4,1.4,0,0,0-1.12-.61l.12,25.72h0c.5,0,1.95-4.9,2.49-11.69Zm0,0"/><path class="cls-6" d="M7.5,88.19l3.77,4.75h2l0-4.78Zm0,0"/><path class="cls-5" d="M19.08,88.12l-5.8,0,0,4.78h2.07Zm0,0"/><path class="cls-9" d="M98.29,83.55a.49.49,0,0,1,.58.51v2.42c0,.7-.28,2.33-2.91,2.33H95.1A1.86,1.86,0,0,0,93.16,87a1.62,1.62,0,0,0-1.72,1.8H76S75.84,87,74.23,87s-1.47,1.8-1.47,1.8H70.47a2.38,2.38,0,0,1-2.38-2.38V84.18c0-1.29.07-2.11,2.21-2.11H96.69S98.29,82.09,98.29,83.55Z"/><path class="cls-10" d="M98.87,84.06a.49.49,0,0,0-.58-.51c0-1.46-1.6-1.48-1.6-1.48H92.53c-1.22-1.32-2.92-3-4.35-4.31a2.93,2.93,0,0,0-2-.8H78.65a2.92,2.92,0,0,0-1.89.69l-4.11,4.42H70.3c-2.14,0-2.21.82-2.21,2.11v.14H98.87ZM78.15,79.22a.9.9,0,0,1,.5-.16H82v2.71a.29.29,0,0,1-.3.3H76.55a.44.44,0,0,1-.33-.75Zm6,2.55V79.06h2a.82.82,0,0,1,.56.22c.5.48,1.42,1.34,2.36,2.28a.3.3,0,0,1-.21.51H84.42A.29.29,0,0,1,84.12,81.77Z"/><path class="cls-11" d="M74.18,91.33a2.87,2.87,0,1,1,2.87-2.87A2.88,2.88,0,0,1,74.18,91.33Zm0-4a1.14,1.14,0,1,0,1.14,1.14A1.14,1.14,0,0,0,74.18,87.32Z"/><path class="cls-11" d="M93.17,91.33A2.87,2.87,0,1,1,96,88.46,2.88,2.88,0,0,1,93.17,91.33Zm0-4a1.14,1.14,0,1,0,1.14,1.14A1.14,1.14,0,0,0,93.17,87.32Z"/><rect class="cls-2" x="95.38" y="84.82" width="1.64" height="2.19" rx="0.78" ry="0.78"/><rect class="cls-2" x="66.97" y="84.73" width="4.11" height="2.39" rx="1.14" ry="1.14"/><polygon class="cls-12" points="61.24 91.38 39.63 91.38 34.49 78.26 56.1 78.26 61.24 91.38"/><polygon class="cls-12" points="30.37 91.38 29.34 91.38 34.49 78.26 35.51 78.26 30.37 91.38"/><rect class="cls-13" x="47.44" y="82.89" width="4.77" height="4.77"/><polygon class="cls-14" points="47.44 87.67 47.44 82.89 45.13 82.89 47.44 87.67"/><rect class="cls-12" x="49.66" y="82.82" width="0.33" height="4.89"/><rect class="cls-12" x="49.66" y="82.89" width="0.33" height="4.78" transform="translate(135.1 35.46) rotate(90)"/><polygon class="cls-13" points="39.63 91.38 35 79.57 30.37 91.38 39.63 91.38"/></svg>