<svg xmlns="http://www.w3.org/2000/svg" viewBox="0 0 100 100"><defs><style>.cls-1{isolation:isolate;}.cls-2{fill:#006675;}.cls-3{fill:#027d8e;}.cls-12,.cls-4{fill:#d7d8d8;}.cls-5,.cls-7{opacity:0.6;}.cls-6,.cls-7{fill:#fff;}.cls-8{fill:#e8e7e7;}.cls-9{fill:#98c11d;}.cls-10,.cls-11{fill:none;stroke-linecap:round;stroke-miterlimit:10;}.cls-10{stroke:#98c11d;stroke-width:5px;}.cls-11{stroke:#027d8e;stroke-width:3px;}.cls-12{mix-blend-mode:multiply;}.cls-13{fill:#e9e9e9;}</style></defs><title>Planche-Pictox3-28-06-2108</title><g class="cls-1"><g id="Calque_1" data-name="Calque 1"><rect class="cls-2" x="2.1" y="80.12" width="16.4" height="16.88"/><polygon class="cls-3" points="18.5 80.16 2.1 80.16 3.82 76.89 16.78 76.89 18.5 80.16"/><rect class="cls-4" x="7.23" y="92.9" width="2.72" height="4.08"/><rect class="cls-4" x="10.64" y="92.9" width="2.72" height="4.08"/><g class="cls-5"><polygon class="cls-6" points="10.64 92.9 13.36 92.9 13.36 96.98 10.64 92.9"/><polygon class="cls-6" points="7.23 92.9 9.95 92.9 9.95 96.98 7.23 92.9"/></g><rect class="cls-4" x="3.54" y="87.6" width="2.65" height="3.2"/><polygon class="cls-7" points="6.23 90.76 3.55 87.57 6.23 87.57 6.23 90.76"/><rect class="cls-4" x="7.19" y="87.6" width="2.65" height="3.2"/><polygon class="cls-7" points="9.88 90.76 7.2 87.57 9.88 87.57 9.88 90.76"/><rect class="cls-4" x="10.84" y="87.6" width="2.65" height="3.2"/><polygon class="cls-7" points="13.53 90.76 10.86 87.57 13.53 87.57 13.53 90.76"/><rect class="cls-4" x="14.5" y="87.6" width="2.65" height="3.2"/><polygon class="cls-7" points="17.19 90.76 14.51 87.57 17.19 87.57 17.19 90.76"/><rect class="cls-4" x="3.54" y="82.68" width="2.65" height="3.2"/><polygon class="cls-7" points="6.23 85.84 3.55 82.65 6.23 82.65 6.23 85.84"/><rect class="cls-4" x="7.19" y="82.68" width="2.65" height="3.2"/><polygon class="cls-7" points="9.88 85.84 7.2 82.65 9.88 82.65 9.88 85.84"/><rect class="cls-4" x="10.84" y="82.68" width="2.65" height="3.2"/><polygon class="cls-7" points="13.53 85.84 10.86 82.65 13.53 82.65 13.53 85.84"/><rect class="cls-4" x="14.5" y="82.68" width="2.65" height="3.2"/><polygon class="cls-7" points="17.19 85.84 14.51 82.65 17.19 82.65 17.19 85.84"/><polygon class="cls-2" points="15.51 77.97 5.25 77.97 4.87 79.08 15.89 79.08 15.51 77.97"/><path class="cls-8" d="M7.89,69.17A6,6,0,0,0,5,77l10.8-5A6,6,0,0,0,7.89,69.17Z"/><path class="cls-4" d="M15.81,72.05l0-.06L5,77a.14.14,0,0,1,0,.06,6,6,0,0,0,1.51,2h7.8A6,6,0,0,0,15.81,72.05Z"/><path class="cls-9" d="M9.53,74.81s0,0,0,0l0-.1h0l1.71-.8a.38.38,0,1,0-.32-.68l-1.4.65a1.75,1.75,0,0,1,1-1.22,1.78,1.78,0,0,1,1.16-.12.38.38,0,1,0,.18-.73,2.52,2.52,0,0,0-3.12,2.44h0L8,74.53a.37.37,0,0,0-.18.5.39.39,0,0,0,.5.19L8.79,75s0,0,0,0l.08.21.69-.32Z"/><path class="cls-9" d="M9,75.52l0,0-.05,0-.47.22a.38.38,0,1,0,.32.68l.7-.32h0a2.51,2.51,0,0,0,2.68.35,2.57,2.57,0,0,0,1.2-1.17.38.38,0,0,0-.17-.5.37.37,0,0,0-.51.17,1.74,1.74,0,0,1-.84.81,1.77,1.77,0,0,1-1.57,0l1.41-.66a.38.38,0,1,0-.32-.68l-1.71.79h0l-.05-.09,0,0L9.59,75a.14.14,0,0,1,0-.06l-.69.32,0,.06C9,75.35,9,75.44,9,75.52Z"/><path class="cls-2" d="M6.51,79.07h7.8a4.39,4.39,0,0,0,.57-.57h-9A4.46,4.46,0,0,0,6.51,79.07Z"/><line class="cls-10" x1="44.56" y1="68.61" x2="48.36" y2="97"/><line class="cls-10" x1="40.58" y1="68.61" x2="36.79" y2="97"/><polygon class="cls-8" points="52.15 90.43 33.46 90.43 34.18 70.73 51.42 70.73 52.15 90.43"/><circle class="cls-11" cx="40.33" cy="85.96" r="1.57"/><path class="cls-11" d="M40.33,84.1v-2s.21-2.14,2.14-2.14H45"/><polyline class="cls-11" points="44.15 78.47 45.59 79.91 44.15 81.35"/><polyline class="cls-11" points="45.98 84.76 47.23 86.01 45.98 87.26"/><polyline class="cls-11" points="48.48 87.26 47.23 86.01 48.48 84.76"/><polyline class="cls-11" points="37.42 74.51 38.67 75.76 37.42 77.01"/><polyline class="cls-11" points="39.92 77.01 38.67 75.76 39.92 74.51"/><path class="cls-3" d="M94.43,93.18H73.31c-1.38,0-2.51,1.38-2.51,0L72,78.56a2.5,2.5,0,0,1,2.5-2.5h19A2.51,2.51,0,0,1,96,78.56l.91,14.62C96.94,94.56,95.81,93.18,94.43,93.18Z"/><rect class="cls-2" x="69.67" y="91.56" width="28.39" height="4.26" rx="2.13" ry="2.13"/><rect class="cls-9" x="75.97" y="78.62" width="15.81" height="4.07" rx="2.03" ry="2.03"/><path class="cls-12" d="M91.77,80.66h0a2,2,0,0,1-2,2H78a2,2,0,0,1-2-2h15.8Z"/><rect class="cls-9" x="82.17" y="92.73" width="3.4" height="1.87" rx="0.93" ry="0.93"/><rect class="cls-13" x="76.01" y="85.1" width="2.07" height="1.11" rx="0.55" ry="0.55"/><rect class="cls-13" x="80.68" y="85.1" width="2.07" height="1.11" rx="0.55" ry="0.55"/><rect class="cls-13" x="85.34" y="85.1" width="2.07" height="1.11" rx="0.55" ry="0.55"/><rect class="cls-13" x="90.01" y="85.1" width="2.07" height="1.11" rx="0.55" ry="0.55"/><rect class="cls-13" x="76.01" y="87.1" width="2.07" height="1.11" rx="0.55" ry="0.55"/><rect class="cls-13" x="80.68" y="87.1" width="2.07" height="1.11" rx="0.55" ry="0.55"/><rect class="cls-13" x="85.34" y="87.1" width="2.07" height="1.11" rx="0.55" ry="0.55"/><rect class="cls-13" x="90.01" y="87.1" width="2.07" height="1.11" rx="0.55" ry="0.55"/><rect class="cls-13" x="76.01" y="89.1" width="2.07" height="1.11" rx="0.55" ry="0.55"/><rect class="cls-13" x="80.68" y="89.1" width="2.07" height="1.11" rx="0.55" ry="0.55"/><rect class="cls-13" x="85.34" y="89.1" width="2.07" height="1.11" rx="0.55" ry="0.55"/><rect class="cls-13" x="90.01" y="89.1" width="2.07" height="1.11" rx="0.55" ry="0.55"/><rect class="cls-9" x="86.82" y="70.76" width="6.76" height="3.71" rx="1.42" ry="1.42"/><rect class="cls-9" x="89.3" y="74.47" width="1.78" height="1.59"/></g></g></svg>