<svg xmlns="http://www.w3.org/2000/svg" viewBox="0 0 100 100"><defs><style>.cls-1{isolation:isolate;}.cls-16,.cls-2{fill:#d7d8d8;}.cls-12,.cls-3{fill:#fff;}.cls-13,.cls-3{opacity:0.6;}.cls-4{fill:#888;}.cls-11,.cls-5,.cls-6{fill:#677689;}.cls-5,.cls-9{opacity:0.3;}.cls-16,.cls-17,.cls-5,.cls-9{mix-blend-mode:multiply;}.cls-17,.cls-6{opacity:0.4;}.cls-7{fill:#c3293e;}.cls-8{fill:#777778;}.cls-10{fill:#b94391;}.cls-14{fill:#e8e7e7;}.cls-15{fill:#a3202e;}.cls-16{opacity:0.2;}.cls-17{fill:#4d5970;}</style></defs><title>Planche-Pictox3-28-06-2108</title><g class="cls-1"><g id="Calque_1" data-name="Calque 1"><path class="cls-2" d="M13.23,73.84A12.23,12.23,0,1,0,25.47,86.07,12.24,12.24,0,0,0,13.23,73.84Z"/><path class="cls-3" d="M13.23,98.29V73.82a12.24,12.24,0,1,1,0,24.47Z"/><path class="cls-4" d="M13.23,75.21a2.61,2.61,0,1,1,2.61-2.6A2.61,2.61,0,0,1,13.23,75.21Zm0-3.92a1.32,1.32,0,1,0,1.32,1.32A1.32,1.32,0,0,0,13.23,71.29Z"/><path class="cls-5" d="M13.23,75.21a2.61,2.61,0,0,1,0-5.21v1.29a1.32,1.32,0,0,0,0,2.63Z"/><path class="cls-4" d="M13.23,73.84A12.23,12.23,0,1,0,25.47,86.07,12.24,12.24,0,0,0,13.23,73.84Zm7.55,19.24-.59-.6a.38.38,0,0,0-.54,0,.39.39,0,0,0,0,.55l.59.59a10.23,10.23,0,0,1-6.62,2.75v-.85a.39.39,0,0,0-.77,0v.85a10.28,10.28,0,0,1-6.63-2.75l.6-.59a.39.39,0,0,0,0-.55.38.38,0,0,0-.54,0l-.6.6a10.28,10.28,0,0,1-2.75-6.63h.85a.38.38,0,1,0,0-.76H2.93a10.28,10.28,0,0,1,2.75-6.63l.6.6a.39.39,0,0,0,.27.11.4.4,0,0,0,.27-.11.39.39,0,0,0,0-.55l-.6-.59a10.28,10.28,0,0,1,6.63-2.75v.85a.39.39,0,0,0,.77,0v-.85a10.23,10.23,0,0,1,6.62,2.75l-.59.59a.39.39,0,0,0,0,.55.39.39,0,0,0,.27.11.4.4,0,0,0,.27-.11l.6-.6a10.27,10.27,0,0,1,2.74,6.63h-.84a.38.38,0,1,0,0,.76h.84A10.23,10.23,0,0,1,20.78,93.08Z"/><path class="cls-5" d="M13.23,95.16a.38.38,0,0,0-.38.38v.85a10.33,10.33,0,0,1-6.63-2.75l.6-.6a.38.38,0,0,0-.54-.54l-.6.59a10.28,10.28,0,0,1-2.75-6.62h.85a.39.39,0,0,0,0-.77H2.93a10.28,10.28,0,0,1,2.75-6.62l.6.59a.36.36,0,0,0,.27.12.37.37,0,0,0,.27-.12.38.38,0,0,0,0-.54l-.6-.6a10.32,10.32,0,0,1,6.63-2.74v.84a.39.39,0,0,0,.38.39V73.85a12.24,12.24,0,0,0,0,24.47Z"/><polygon class="cls-6" points="16.84 87.43 21.28 85.93 16.84 84.43 18.92 80.23 14.72 82.31 13.22 77.87 11.72 82.31 7.53 80.22 9.6 84.43 5.16 85.92 9.6 87.42 7.52 91.62 11.72 89.55 13.21 93.99 14.72 89.55 18.91 91.63 16.84 87.43"/><polygon class="cls-7" points="19.16 80.16 15.23 88.08 13.24 86.08 11.24 84.09 19.16 80.16"/><polygon class="cls-8" points="7.31 92.01 15.23 88.08 13.23 86.08 11.24 84.09 7.31 92.01"/><g class="cls-9"><polygon class="cls-10" points="13.24 86.08 11.24 84.09 19.16 80.16 13.24 86.08"/><polygon class="cls-11" points="7.31 92.01 11.24 84.09 13.23 86.08 7.31 92.01"/></g><circle class="cls-12" cx="13.23" cy="86.09" r="0.95"/><rect class="cls-8" x="43.14" y="81.48" width="16.35" height="16.84"/><polygon class="cls-4" points="59.49 81.52 43.14 81.52 44.85 78.26 57.78 78.26 59.49 81.52"/><rect class="cls-2" x="48.26" y="94.23" width="2.71" height="4.07"/><rect class="cls-2" x="51.66" y="94.23" width="2.71" height="4.07"/><g class="cls-13"><polygon class="cls-12" points="51.66 94.23 54.37 94.23 54.37 98.3 51.66 94.23"/><polygon class="cls-12" points="48.26 94.23 50.97 94.23 50.97 98.3 48.26 94.23"/></g><rect class="cls-2" x="44.57" y="88.95" width="2.65" height="3.19"/><polygon class="cls-3" points="47.25 92.1 44.58 88.91 47.25 88.91 47.25 92.1"/><rect class="cls-2" x="48.21" y="88.95" width="2.65" height="3.19"/><polygon class="cls-3" points="50.9 92.1 48.23 88.91 50.9 88.91 50.9 92.1"/><rect class="cls-2" x="51.86" y="88.95" width="2.65" height="3.19"/><polygon class="cls-3" points="54.54 92.1 51.87 88.91 54.54 88.91 54.54 92.1"/><rect class="cls-2" x="55.5" y="88.95" width="2.65" height="3.19"/><polygon class="cls-3" points="58.18 92.1 55.52 88.91 58.18 88.91 58.18 92.1"/><rect class="cls-2" x="44.57" y="84.04" width="2.65" height="3.19"/><polygon class="cls-3" points="47.25 87.19 44.58 84 47.25 84 47.25 87.19"/><rect class="cls-2" x="48.21" y="84.04" width="2.65" height="3.19"/><polygon class="cls-3" points="50.9 87.19 48.23 84 50.9 84 50.9 87.19"/><rect class="cls-2" x="51.86" y="84.04" width="2.65" height="3.19"/><polygon class="cls-3" points="54.54 87.19 51.87 84 54.54 84 54.54 87.19"/><rect class="cls-2" x="55.5" y="84.04" width="2.65" height="3.19"/><polygon class="cls-3" points="58.18 87.19 55.52 84 58.18 84 58.18 87.19"/><polygon class="cls-8" points="56.51 79.34 46.28 79.34 45.9 80.44 56.9 80.44 56.51 79.34"/><path class="cls-14" d="M48.91,70.56A5.93,5.93,0,0,0,46,78.4l10.77-5A5.94,5.94,0,0,0,48.91,70.56Z"/><path class="cls-2" d="M56.81,73.43l0-.05L46,78.4s0,0,0,.06a6.07,6.07,0,0,0,1.5,2h7.78A6,6,0,0,0,56.81,73.43Z"/><path class="cls-7" d="M50.55,76.18a.06.06,0,0,1,0,0,.42.42,0,0,1,0-.1h0l1.7-.8a.38.38,0,0,0-.32-.68l-1.4.65a1.79,1.79,0,0,1,1-1.22,1.72,1.72,0,0,1,1.16-.11.38.38,0,0,0,.18-.74,2.57,2.57,0,0,0-1.66.17,2.51,2.51,0,0,0-1.45,2.27h0l-.7.33a.38.38,0,1,0,.32.68l.52-.24s0,0,0,0,0,.14.08.2l.68-.32Z"/><path class="cls-15" d="M50.06,76.89l0,0,0,0-.47.21a.38.38,0,0,0-.18.51.38.38,0,0,0,.5.18l.7-.33h0a2.51,2.51,0,0,0,3.86-.81.37.37,0,0,0-.17-.51.38.38,0,0,0-.5.17,1.72,1.72,0,0,1-.84.82,1.75,1.75,0,0,1-1.56,0l1.4-.65a.38.38,0,1,0-.32-.68l-1.7.79h0l-.06-.09a.08.08,0,0,0,0,0,.83.83,0,0,1-.07-.13l0-.07-.68.32,0,.06A2,2,0,0,0,50.06,76.89Z"/><path class="cls-8" d="M47.53,80.44h7.78a6.25,6.25,0,0,0,.58-.57H47A6.13,6.13,0,0,0,47.53,80.44Z"/><path class="cls-7" d="M98.92,92.77H77.14V96.3a.18.18,0,0,0,.18.18l10.09.23,9.08-.53h0L99,92.91A.09.09,0,0,0,98.92,92.77Z"/><path class="cls-8" d="M75.79,98.32c-1.17,0-1.51-.91-1.2-2.07S75.87,92,75.87,92h1.29v4.73C77.16,97,77,98.32,75.79,98.32Z"/><path class="cls-8" d="M93.5,92.77V70.68a.43.43,0,1,1,.85,0V92.77Z"/><path class="cls-2" d="M94.51,76.38s-8-6.45-8.29-6.38-4,6-4,6L78,90.77l16.54.15Z"/><polygon class="cls-16" points="77.96 90.77 88.91 90.92 94.51 90.92 94.51 83.93 79.9 83.93 77.96 90.77"/><path class="cls-16" d="M94.51,76.38s-8-6.45-8.3-6.38-4,6-4,6l-.29,1H94.51Z"/><polygon class="cls-7" points="90.5 72.04 93.54 72.95 93.54 71.13 90.5 72.04"/><path class="cls-17" d="M77.32,96.48l10.09.23,9.07-.53s0,0,0,0l.9-1.17H77.14v1.3A.18.18,0,0,0,77.32,96.48Z"/></g></g></svg>