<svg xmlns="http://www.w3.org/2000/svg" viewBox="0 0 100 100"><defs><style>.cls-1{isolation:isolate;}.cls-10,.cls-13,.cls-14,.cls-19,.cls-2,.cls-20,.cls-23,.cls-24,.cls-6,.cls-7,.cls-9{fill:none;}.cls-2,.cls-6,.cls-7,.cls-9{stroke:#066775;}.cls-2,.cls-23,.cls-24,.cls-6,.cls-7{stroke-linejoin:round;}.cls-2{stroke-width:5px;}.cls-12,.cls-3{fill:#d7d8d8;}.cls-4{fill:#066775;}.cls-5{fill:#027d8e;}.cls-10,.cls-23,.cls-24,.cls-6,.cls-7{stroke-linecap:round;}.cls-10,.cls-6,.cls-9{stroke-width:3px;}.cls-19,.cls-20,.cls-23,.cls-24,.cls-7{stroke-width:2px;}.cls-8{fill:#98c11d;}.cls-10,.cls-19,.cls-20,.cls-9{stroke-miterlimit:10;}.cls-10,.cls-23{stroke:#ebeff0;}.cls-11{fill:#646463;}.cls-12,.cls-14,.cls-18,.cls-20{mix-blend-mode:multiply;}.cls-15{fill:#006675;}.cls-16{fill:#e8e7e7;}.cls-17,.cls-22{fill:#8db424;}.cls-18{fill:#4d5970;}.cls-18,.cls-21{opacity:0.2;}.cls-19,.cls-20,.cls-24{stroke:#d7d8d8;}.cls-20{opacity:0.6;}.cls-21,.cls-25{fill:#8b8c8d;}.cls-22,.cls-23{opacity:0.7;}</style></defs><title>Planche-Pictox3-28-06-2108</title><g class="cls-1"><g id="Calque_1" data-name="Calque 1"><line class="cls-2" x1="56.77" y1="82.68" x2="56.77" y2="88.53"/><polygon class="cls-3" points="51.56 90.17 41.59 89.83 43.22 80.64 49.87 80.64 51.56 90.17"/><rect class="cls-4" x="57.68" y="87.67" width="2.46" height="2.15" rx="1.08" ry="1.08"/><rect class="cls-4" x="58.69" y="85.64" width="1.01" height="6.32" rx="0.51" ry="0.51"/><polygon class="cls-5" points="59.18 91.96 47.67 91.96 50.8 85.64 59.18 85.64 59.18 91.96"/><polyline class="cls-6" points="51.02 86.32 50.04 80.64 43.22 80.64 41.35 91.01"/><line class="cls-7" x1="55.2" y1="90.17" x2="55.2" y2="87.44"/><line class="cls-7" x1="56.56" y1="90.17" x2="56.56" y2="87.44"/><line class="cls-7" x1="57.93" y1="90.17" x2="57.93" y2="87.44"/><path class="cls-8" d="M55.88,98.69a3.81,3.81,0,1,1,3.8-3.81A3.82,3.82,0,0,1,55.88,98.69Zm0-5.32a1.51,1.51,0,1,0,1.51,1.51A1.52,1.52,0,0,0,55.88,93.37Z"/><path class="cls-8" d="M44.26,99a6,6,0,1,1,6-6A6,6,0,0,1,44.26,99Zm0-8.4A2.39,2.39,0,1,0,46.65,93,2.4,2.4,0,0,0,44.26,90.6Z"/><path class="cls-9" d="M39.19,89.75A6,6,0,0,1,50.28,93"/><line class="cls-10" x1="46.31" y1="82.66" x2="48.04" y2="84.51"/><line class="cls-10" x1="46.13" y1="84.63" x2="46.97" y2="85.58"/><path class="cls-3" d="M59.71,77.44a1.92,1.92,0,0,0-1.92-1.92l-.18,0a1,1,0,0,0-.86-.49,1,1,0,0,0-.76.35,1.58,1.58,0,0,0-2.34,2,1.21,1.21,0,0,0-1.06,1.2,1.18,1.18,0,0,0,.44.92s0,.06,0,.09a1.42,1.42,0,0,0,2.63.76,1.54,1.54,0,0,0,.74.2A1.6,1.6,0,0,0,58,79.34,1.92,1.92,0,0,0,59.71,77.44ZM55,78.23s0,.07-.05.1h0l0-.11H55Z"/><path class="cls-3" d="M53.51,72.77a.83.83,0,0,0-1-.29,1,1,0,0,0,.06-.35,1.13,1.13,0,1,0-2.25,0,.28.28,0,0,0,0,.09,1.09,1.09,0,0,0-.48-.11,1.06,1.06,0,0,0,0,2.11h.08a.9.9,0,0,0,1.41.31.91.91,0,0,0,1.46-.43.9.9,0,0,0,.52-.15A.85.85,0,0,0,53.51,72.77Z"/><path class="cls-11" d="M71.22,91.72a.34.34,0,0,1-.33-.34c0-1.46.25-1.83,2.14-1.83a.34.34,0,0,1,.34.33.33.33,0,0,1-.34.33c-1.48,0-1.48.05-1.48,1.17A.34.34,0,0,1,71.22,91.72Z"/><path class="cls-3" d="M84.42,99a1.67,1.67,0,0,1-1.67-1.67V91.74a1.67,1.67,0,0,1,3.34,0v5.54A1.67,1.67,0,0,1,84.42,99Z"/><path class="cls-12" d="M84.42,99a1.67,1.67,0,0,1-1.67-1.67V91.74a1.67,1.67,0,0,1,3.34,0v5.54A1.67,1.67,0,0,1,84.42,99Z"/><path class="cls-3" d="M82.05,99a1.67,1.67,0,0,1-1.67-1.67V91.74a1.67,1.67,0,0,1,3.34,0v5.54A1.67,1.67,0,0,1,82.05,99Z"/><path class="cls-3" d="M76,99a1.67,1.67,0,0,1-1.67-1.67V91.74a1.67,1.67,0,0,1,3.34,0v5.54A1.67,1.67,0,0,1,76,99Z"/><path class="cls-12" d="M76,99a1.67,1.67,0,0,1-1.67-1.67V91.74a1.67,1.67,0,0,1,3.34,0v5.54A1.67,1.67,0,0,1,76,99Z"/><path class="cls-3" d="M73.61,99a1.67,1.67,0,0,1-1.67-1.67V91.74a1.67,1.67,0,0,1,3.34,0v5.54A1.67,1.67,0,0,1,73.61,99Z"/><path class="cls-3" d="M86.07,93v3.14H71.94V91.29a4.19,4.19,0,0,1,4.43-3.86h5.27a4.19,4.19,0,0,1,4.43,3.86Z"/><circle class="cls-11" cx="76.95" cy="92.11" r="1.49"/><path class="cls-11" d="M77.39,87.91a1.28,1.28,0,0,1,.09-.48H80a1.28,1.28,0,0,1,.09.48,1.35,1.35,0,0,1-2.7,0Z"/><circle class="cls-11" cx="74.72" cy="89.8" r="0.61"/><circle class="cls-11" cx="82.05" cy="90.23" r="1.35"/><circle class="cls-11" cx="80.22" cy="94.29" r="0.82"/><circle class="cls-11" cx="73.04" cy="93.17" r="0.73"/><path class="cls-11" d="M82.83,87.1c-1.83,0-2.16-.13-2.16-1.8a.34.34,0,0,1,.67,0c0,1.13,0,1.13,1.49,1.13a.34.34,0,0,1,0,.67Z"/><path class="cls-11" d="M87.48,87.1a.34.34,0,0,1,0-.67c1.49,0,1.49,0,1.49-1.13a.34.34,0,0,1,.67,0C89.64,87,89.32,87.1,87.48,87.1Z"/><rect class="cls-3" x="82.83" y="85.61" width="4.97" height="6.54" rx="1.42" ry="1.42"/><rect class="cls-3" x="82.83" y="89.95" width="7.65" height="5.14" rx="1.15" ry="1.15"/><rect class="cls-13" x="82.83" y="89.95" width="7.65" height="5.14" rx="1.15" ry="1.15"/><rect class="cls-14" x="82.83" y="89.95" width="7.65" height="5.14" rx="1.15" ry="1.15"/><rect class="cls-12" x="82.86" y="89.95" width="7.65" height="5.14" rx="1.15" ry="1.15"/><circle class="cls-11" cx="84.98" cy="91.64" r="0.98"/><circle class="cls-11" cx="88.4" cy="91.65" r="0.94"/><path class="cls-3" d="M91.89,84.08a.31.31,0,0,1-.31-.31V81.7a.31.31,0,0,1,.62,0v2.07A.31.31,0,0,1,91.89,84.08Z"/><path class="cls-3" d="M93.06,84.08a.31.31,0,0,1-.31-.31V81.7a.31.31,0,1,1,.62,0v2.07A.31.31,0,0,1,93.06,84.08Z"/><path class="cls-15" d="M98.28,75.68a.82.82,0,0,1,.61.22s-.19.37-.49.42a3.41,3.41,0,0,1-1-.16A3.33,3.33,0,0,1,98.28,75.68Z"/><path class="cls-15" d="M97.69,75.19a.81.81,0,0,1,.59-.25.83.83,0,0,1-.06.64,3.51,3.51,0,0,1-.83.58A3.36,3.36,0,0,1,97.69,75.19Z"/><path class="cls-15" d="M96.93,75.25a.84.84,0,0,1,.25-.59.83.83,0,0,1,.4.5,3.4,3.4,0,0,1-.19,1A3.19,3.19,0,0,1,96.93,75.25Z"/><rect class="cls-8" x="89.93" y="70.99" width="0.63" height="1.94" rx="0.32" ry="0.32" transform="translate(36.75 -30.32) rotate(23.82)"/><rect class="cls-8" x="90.4" y="71.33" width="0.63" height="1.94" rx="0.32" ry="0.32" transform="translate(77.7 -42.97) rotate(45)"/><rect class="cls-8" x="90.66" y="71.82" width="0.63" height="1.94" rx="0.32" ry="0.32" transform="translate(123.13 -39.2) rotate(67.36)"/><rect class="cls-5" x="89.05" y="72.2" width="2.08" height="5.76" rx="1.04" ry="1.04"/><path class="cls-5" d="M93.29,82.56h0a4.26,4.26,0,0,1-4.24-4.24V76h8.47v2.37A4.25,4.25,0,0,1,93.29,82.56Z"/><path class="cls-8" d="M88.74,75.58h0a.3.3,0,0,1-.3-.31V74.12c0-.16.61-.16.61,0v1.15A.31.31,0,0,1,88.74,75.58Z"/><polygon class="cls-3" points="87.94 73.95 88.49 74.12 89.05 74.3 89.05 73.95 89.05 73.59 88.49 73.77 87.94 73.95"/><circle class="cls-3" cx="89.8" cy="73.44" r="0.15"/><path class="cls-15" d="M93.15,79.92h0A1.94,1.94,0,0,1,91.22,78V76.91h3.85V78A1.93,1.93,0,0,1,93.15,79.92Z"/><path class="cls-16" d="M75.88,71.66a5.4,5.4,0,0,0-2.64,7.13L83,74.22A5.4,5.4,0,0,0,75.88,71.66Z"/><path class="cls-3" d="M80.41,81.36a5.42,5.42,0,0,0,2.64-7.14l-9.8,4.57A5.41,5.41,0,0,0,80.41,81.36Z"/><path class="cls-8" d="M77.38,76.77l0,0,0-.09h0l1.55-.72a.34.34,0,0,0,.16-.46.34.34,0,0,0-.45-.16l-1.28.59a1.62,1.62,0,0,1,2-1.22.34.34,0,0,0,.42-.25.34.34,0,0,0-.26-.41,2.22,2.22,0,0,0-1.5.15,2.3,2.3,0,0,0-1.33,2.07h0l-.64.3a.35.35,0,0,0-.17.46.35.35,0,0,0,.46.16l.47-.22s0,0,0,0,.05.13.07.19l.63-.29S77.38,76.8,77.38,76.77Z"/><path class="cls-17" d="M76.93,77.42a0,0,0,0,0,0,0l0,0-.43.2a.34.34,0,0,0-.16.45.34.34,0,0,0,.45.17l.64-.3h0a2.27,2.27,0,0,0,2.43.32,2.29,2.29,0,0,0,1.09-1.06.34.34,0,0,0-.62-.3,1.56,1.56,0,0,1-.76.74,1.64,1.64,0,0,1-1.42,0l1.27-.6a.34.34,0,1,0-.29-.62l-1.55.72h0a.22.22,0,0,1,0-.08l0,0-.06-.13a.17.17,0,0,1,0-.05l-.63.29,0,0A1.27,1.27,0,0,0,76.93,77.42Z"/><path class="cls-5" d="M7.84,85.62c5.16-2,5.25-7,8-6.52,2.14.38,1.43,4.79-2.72,13.16s-8.79,5.33-9.87,4.12C1.33,94.27-1,89,7.84,85.62Z"/><path class="cls-18" d="M8.32,91.1C13.49,89.12,17,79.86,17,81c0,2.07-1.2,5.84-3.9,11.28C9,100.63,4.31,97.59,3.23,96.38a6.47,6.47,0,0,1-1.76-4.62C1.64,89.68,3.69,92.88,8.32,91.1Z"/><path class="cls-19" d="M19.37,79.24s-2-7.74,4.05-7.74,4,7.74,4,7.74"/><path class="cls-20" d="M19.37,79.24s-2-7.74,4.05-7.74,4,7.74,4,7.74"/><rect class="cls-3" x="20.31" y="75.14" width="6.24" height="7.57" rx="2.83" ry="2.83"/><rect class="cls-21" x="20.31" y="75.14" width="6.24" height="7.57" rx="2.83" ry="2.83"/><rect class="cls-3" x="19.08" y="79.34" width="8.7" height="17.88"/><rect class="cls-3" x="20.31" y="76.05" width="6.24" height="7.57"/><polygon class="cls-3" points="27.78 79.34 19.08 79.34 20.26 77.49 26.6 77.49 27.78 79.34"/><path class="cls-4" d="M18.7,86.63a2.47,2.47,0,0,1-.6,1.66,2.48,2.48,0,0,1-1.69.5,2.4,2.4,0,0,1,.6-1.66A2.42,2.42,0,0,1,18.7,86.63Z"/><path class="cls-8" d="M20.52,89.75c1.38,1.89.32,5.87-2.28,7.09a5.21,5.21,0,0,1-6.92-2.53c-1.21-2.6-1-5.74,1.85-6.68,1.81-.61,2.33.69,3.36.82C16.85,88.49,19.62,88.52,20.52,89.75Z"/><path class="cls-22" d="M20.52,89.75c1.38,1.89.32,5.87-2.28,7.09a5.22,5.22,0,0,1-2.61.47s3.29-2.74,3.18-5.5a5.29,5.29,0,0,0-1-3.25C18.71,88.77,20,89,20.52,89.75Z"/><polygon class="cls-21" points="27.78 79.34 19.08 79.34 20.26 77.49 26.6 77.49 27.78 79.34"/><rect class="cls-3" x="21.69" y="71.07" width="3.95" height="1.33" rx="0.67" ry="0.67"/><path class="cls-23" d="M5.34,88.25a1.3,1.3,0,0,0-1.06,1.5"/><path class="cls-23" d="M13.78,88.47a1.32,1.32,0,0,0-1.51,1"/><path class="cls-3" d="M14.29,79.51a1.79,1.79,0,0,1,1.53-.41q1,.16,1.14,1.41a2,2,0,0,1-.3.87l-.28-.79-.87.64-.21-1.08-1,.58.14-.71-.69.19A2.75,2.75,0,0,1,14.29,79.51Z"/><path class="cls-24" d="M15.38,79.85c.88-.3,1.07-.78.78-1.45"/><rect class="cls-25" x="1.06" y="89.31" width="2.26" height="0.74"/><rect class="cls-25" x="26.77" y="89.31" width="2.26" height="0.74"/><rect class="cls-25" x="1.02" y="89.31" width="1.78" height="9.62"/><rect class="cls-25" x="27.24" y="89.31" width="1.78" height="9.62" transform="translate(56.27 188.24) rotate(-180)"/><rect class="cls-25" x="14.37" y="91.9" width="1.78" height="7.03"/><rect class="cls-3" x="1.02" y="96.04" width="28" height="2.87"/><rect class="cls-3" x="1.02" y="91.92" width="28" height="2.87"/><path class="cls-21" d="M14.37,98.91H29V89.3H26.77v.75h.47v1.85H16.15v0H14.37v7Zm0-4.12V96m12.87,0H16.15V94.79H27.24Z"/></g></g></svg>