<svg xmlns="http://www.w3.org/2000/svg" viewBox="0 0 100 100"><defs><style>.cls-1{isolation:isolate;}.cls-2{fill:#0063b2;}.cls-3{fill:#00c95f;}.cls-4{fill:#fff;}.cls-13,.cls-5{fill:#ebeff0;}.cls-5,.cls-7{mix-blend-mode:multiply;}.cls-6{fill:#00589e;}.cls-7{fill:#d7d8d8;}.cls-8{fill:#e9e9e9;}.cls-9{fill:#98c11d;}.cls-10{fill:#3a4256;}.cls-11{fill:#556180;}.cls-12{fill:#8db424;}.cls-14{fill:none;stroke:#0063b2;stroke-linecap:round;stroke-miterlimit:10;stroke-width:3.5px;}</style></defs><title>Planche-Pictox3-28-06-2108</title><g class="cls-1"><g id="Calque_1" data-name="Calque 1"><path class="cls-2" d="M26.48,93.85a.78.78,0,1,0-1.48.52,2.28,2.28,0,0,1-.1,1.72,2.25,2.25,0,0,1-3,1,2.15,2.15,0,0,1-1-1c-.07-.22-8.49-23.7-8.49-23.7L10.88,73l8.41,23.48a3.84,3.84,0,0,0,3.58,2.47,3.68,3.68,0,0,0,1.26-.22,3.81,3.81,0,0,0,2.35-4.87Z"/><path class="cls-3" d="M28.91,77.53A15.41,15.41,0,0,0,1,87.51Z"/><path class="cls-4" d="M23.3,79.53c-3.21-5.67-8.14-8.9-12.1-7.49s-5.71,7-4.59,13.47Z"/><path class="cls-3" d="M17.66,81.55c-2.51-5.93-5.18-10-6.47-9.5s-.8,5.28,1,11.45Z"/><path class="cls-5" d="M14.68,82.62,10.93,72.14A15.42,15.42,0,0,0,1,87.51Z"/><rect class="cls-6" x="14.55" y="82.42" width="1.61" height="1.34" transform="translate(-27.02 9.98) rotate(-19.63)"/><path class="cls-2" d="M60.59,94.76H39.83c-1.35,0-2.46,1.35-2.46,0l1.19-14.38A2.46,2.46,0,0,1,41,77.93H59.7a2.46,2.46,0,0,1,2.46,2.45l.89,14.38C63.05,96.11,62,94.76,60.59,94.76Z"/><rect class="cls-6" x="36.26" y="93.16" width="27.91" height="4.19" rx="1.75" ry="1.75"/><rect class="cls-3" x="42.44" y="80.45" width="15.54" height="4" rx="1.67" ry="1.67"/><path class="cls-7" d="M58,82.45h0a2,2,0,0,1-2,2H44.44a2,2,0,0,1-2-2H58Z"/><rect class="cls-3" x="48.54" y="94.31" width="3.34" height="1.84" rx="0.77" ry="0.77"/><rect class="cls-8" x="42.49" y="86.82" width="2.04" height="1.09" rx="0.45" ry="0.45"/><rect class="cls-8" x="47.08" y="86.82" width="2.04" height="1.09" rx="0.45" ry="0.45"/><rect class="cls-8" x="51.66" y="86.82" width="2.04" height="1.09" rx="0.45" ry="0.45"/><rect class="cls-8" x="56.24" y="86.82" width="2.04" height="1.09" rx="0.45" ry="0.45"/><rect class="cls-8" x="42.49" y="88.78" width="2.04" height="1.09" rx="0.45" ry="0.45"/><rect class="cls-8" x="47.08" y="88.78" width="2.04" height="1.09" rx="0.45" ry="0.45"/><rect class="cls-8" x="51.66" y="88.78" width="2.04" height="1.09" rx="0.45" ry="0.45"/><rect class="cls-8" x="56.24" y="88.78" width="2.04" height="1.09" rx="0.45" ry="0.45"/><rect class="cls-8" x="42.49" y="90.75" width="2.04" height="1.09" rx="0.45" ry="0.45"/><rect class="cls-8" x="47.08" y="90.75" width="2.04" height="1.09" rx="0.45" ry="0.45"/><rect class="cls-8" x="51.66" y="90.75" width="2.04" height="1.09" rx="0.45" ry="0.45"/><rect class="cls-8" x="56.25" y="90.75" width="2.04" height="1.09" rx="0.45" ry="0.45"/><rect class="cls-3" x="53.11" y="72.72" width="6.64" height="3.65" rx="1.42" ry="1.42"/><rect class="cls-3" x="55.55" y="76.37" width="1.75" height="1.56"/><path class="cls-9" d="M94.14,80.48,91.59,79c.66-1.12,2.22-1.5,2.72-1,.21.23-.07.66-.15,1.19A5.73,5.73,0,0,0,94.14,80.48Z"/><path class="cls-3" d="M97.79,81.06c-4,0-5.92-4.77-12-4.77a8.65,8.65,0,0,0-8.86,8.6,7.23,7.23,0,0,0,3.52,6.4,2.92,2.92,0,0,1-.13.46c-.23.52-.43,1-.6,1.28a.52.52,0,0,0,.47.75H82a.52.52,0,0,0,.47-.29c.15-.32.4-.83.56-1.12a11.18,11.18,0,0,0,2.74.33,16.89,16.89,0,0,0,2.51-.17l.48,1a.52.52,0,0,0,.47.29h1.83a.52.52,0,0,0,.47-.75c-.16-.31-.35-.71-.55-1.19,2.09-.77,4.4-3.87,6.78-3.87A1.13,1.13,0,0,0,99,86.76V82.27A1.07,1.07,0,0,0,97.79,81.06Z"/><path class="cls-10" d="M89.31,79.9a.48.48,0,0,1-.32-.11,4.64,4.64,0,0,0-3.09-1.15A4.33,4.33,0,0,0,83,79.76a.52.52,0,0,1-.7-.76,5.31,5.31,0,0,1,3.63-1.4A5.56,5.56,0,0,1,89.62,79a.52.52,0,0,1-.31.93Z"/><path class="cls-11" d="M83,79.08A4.25,4.25,0,0,1,85.91,78,4.59,4.59,0,0,1,89,79.11a.5.5,0,0,0,.31.1A.52.52,0,0,0,89.7,79a.46.46,0,0,0-.07-.07,5.58,5.58,0,0,0-3.72-1.36A5.35,5.35,0,0,0,82.28,79s0,0,0,0h0A.52.52,0,0,0,83,79.08Z"/><path class="cls-7" d="M76.94,85a7.28,7.28,0,0,0,3.52,6.27,2.81,2.81,0,0,1-.13.45c-.23.53-.43,1-.6,1.28a.52.52,0,0,0,.47.75H82a.52.52,0,0,0,.47-.29c.15-.32.4-.83.56-1.12a11.18,11.18,0,0,0,2.74.33,16.89,16.89,0,0,0,2.51-.17l.48,1a.52.52,0,0,0,.47.29h1.83a.52.52,0,0,0,.47-.75c-.16-.3-.35-.7-.55-1.18,2.09-.78,4.4-3.87,6.78-3.87A1.13,1.13,0,0,0,99,86.77V85c-2.23,1.85-7.69,3.19-11.63,3.19S78.81,86.75,76.94,85Z"/><path class="cls-4" d="M80.23,91.15l-.08-.06Z"/><path class="cls-7" d="M88.31,92.53l.48,1a.52.52,0,0,0,.47.29h1.83a.52.52,0,0,0,.47-.75c-.16-.31-.35-.71-.55-1.19A8.47,8.47,0,0,1,88.31,92.53Z"/><path class="cls-7" d="M80.46,91.29a2.92,2.92,0,0,1-.13.46c-.23.52-.43,1-.6,1.28a.52.52,0,0,0,.47.75H82a.52.52,0,0,0,.47-.29c.15-.32.4-.83.56-1.12l.07,0a9.32,9.32,0,0,1-2.9-1.24Z"/><path class="cls-11" d="M95.29,81.85c.09.4,0,.77-.26.82s-.33-.28-.41-.68-.12-.74.11-.79S95.21,81.45,95.29,81.85Z"/><path class="cls-12" d="M94.19,79.11c0-.22.11-.43.16-.61a2.56,2.56,0,0,0-1.49,1.11.63.63,0,0,0,.39.85,1.17,1.17,0,0,0,.93-.14A5,5,0,0,1,94.19,79.11Z"/><path class="cls-3" d="M75.69,84.27a2.5,2.5,0,0,1-.66-.09,2,2,0,0,1-1-.67,1.88,1.88,0,0,1-1.17,0,2.61,2.61,0,0,1-1.64-3.28.39.39,0,0,1,.48-.27.4.4,0,0,1,.27.49,1.81,1.81,0,0,0,1.11,2.31,1,1,0,0,0,.57,0,4.64,4.64,0,0,1-.12-1.91,2.75,2.75,0,0,1,1-1.9,1.08,1.08,0,0,1,1-.15,1,1,0,0,1,.67.6,2.92,2.92,0,0,1-.33,2.24A4.71,4.71,0,0,1,74.7,83.1a1.15,1.15,0,0,0,.55.33,1.61,1.61,0,0,0,1.31-.19,2,2,0,0,0,.87-1.16.4.4,0,0,1,.49-.27.4.4,0,0,1,.26.49A2.79,2.79,0,0,1,77,83.91,2.45,2.45,0,0,1,75.69,84.27Zm-.56-4.7a.39.39,0,0,0-.2.06A2.13,2.13,0,0,0,74.29,81a4,4,0,0,0,0,1.41,4.3,4.3,0,0,0,.76-1.08,2.26,2.26,0,0,0,.31-1.57.26.26,0,0,0-.18-.16Z"/><circle class="cls-4" cx="85.99" cy="85.28" r="4.91"/><path class="cls-13" d="M81.08,85.24s0,.07,0,.11a4.92,4.92,0,1,0,9.83,0v-.11Z"/><polyline class="cls-14" points="86.1 82.75 86.1 85.56 87.97 85.56"/></g></g></svg>