<svg xmlns="http://www.w3.org/2000/svg" viewBox="0 0 100 100"><defs><style>.cls-1{isolation:isolate;}.cls-2{fill:#027d8e;}.cls-13,.cls-3{fill:#006675;}.cls-4{fill:#98c11d;}.cls-10,.cls-18,.cls-5{fill:#d7d8d8;}.cls-10,.cls-13,.cls-17,.cls-5{mix-blend-mode:multiply;}.cls-6{fill:#e9e9e9;}.cls-19,.cls-7{fill:none;stroke-linecap:round;}.cls-7{stroke:#98c11d;stroke-miterlimit:10;stroke-width:3px;}.cls-8{fill:#4d5970;}.cls-9{fill:#fff;}.cls-10{opacity:0.5;}.cls-11{fill:#414c5f;}.cls-12{fill:#68b1b7;}.cls-14{fill:#066775;}.cls-15{fill:#e8e7e7;}.cls-16{fill:#b94391;}.cls-17{fill:#46ae5d;}.cls-19{stroke:#fff;stroke-linejoin:round;}.cls-20{fill:#a72676;}.cls-21{fill:#8db424;}</style></defs><title>Planche-Pictox3-28-06-2108</title><g class="cls-1"><g id="Calque_1" data-name="Calque 1"><path class="cls-2" d="M60.58,93.94H39.83c-1.35,0-2.46,1.36-2.46,0l1.2-14.36A2.46,2.46,0,0,1,41,77.12H59.69a2.47,2.47,0,0,1,2.46,2.46L63,93.94C63,95.3,61.94,93.94,60.58,93.94Z"/><rect class="cls-3" x="36.26" y="92.35" width="27.89" height="4.19" rx="1.53" ry="1.53"/><rect class="cls-4" x="42.44" y="79.64" width="15.53" height="4" rx="1.46" ry="1.46"/><path class="cls-5" d="M58,81.64h0a2,2,0,0,1-2,2H44.44a2,2,0,0,1-2-2H58Z"/><rect class="cls-4" x="48.54" y="93.5" width="3.34" height="1.84" rx="0.67" ry="0.67"/><rect class="cls-6" x="42.49" y="86.01" width="2.03" height="1.09" rx="0.4" ry="0.4"/><rect class="cls-6" x="47.07" y="86.01" width="2.03" height="1.09" rx="0.4" ry="0.4"/><rect class="cls-6" x="51.66" y="86.01" width="2.03" height="1.09" rx="0.4" ry="0.4"/><rect class="cls-6" x="56.24" y="86.01" width="2.03" height="1.09" rx="0.4" ry="0.4"/><rect class="cls-6" x="42.49" y="87.97" width="2.03" height="1.09" rx="0.4" ry="0.4"/><rect class="cls-6" x="47.07" y="87.97" width="2.03" height="1.09" rx="0.4" ry="0.4"/><rect class="cls-6" x="51.66" y="87.97" width="2.03" height="1.09" rx="0.4" ry="0.4"/><rect class="cls-6" x="56.24" y="87.97" width="2.03" height="1.09" rx="0.4" ry="0.4"/><rect class="cls-6" x="42.49" y="89.94" width="2.03" height="1.09" rx="0.4" ry="0.4"/><rect class="cls-6" x="47.07" y="89.94" width="2.03" height="1.09" rx="0.4" ry="0.4"/><rect class="cls-6" x="51.66" y="89.94" width="2.03" height="1.09" rx="0.4" ry="0.4"/><rect class="cls-6" x="56.24" y="89.94" width="2.03" height="1.09" rx="0.4" ry="0.4"/><rect class="cls-4" x="53.1" y="71.92" width="6.64" height="3.65" rx="1.33" ry="1.33"/><rect class="cls-4" x="55.55" y="75.56" width="1.75" height="1.56"/><path class="cls-7" d="M8.59,91.37h3.1"/><path class="cls-7" d="M12.8,97.61v-2.8"/><path class="cls-8" d="M14.3,83.35,10,71.32l-1.19.43,4.31,12"/><path class="cls-4" d="M23,75.33A12.15,12.15,0,0,0,1,83.2Z"/><path class="cls-9" d="M18.59,76.91c-2.53-4.48-6.42-7-9.54-5.91S4.54,76.56,5.43,81.63Z"/><path class="cls-4" d="M14.14,78.51c-2-4.68-4.09-7.87-5.1-7.5s-.63,4.16.81,9Z"/><path class="cls-10" d="M11.8,79.35l-3-8.27A12.17,12.17,0,0,0,1,83.2Z"/><rect class="cls-11" x="11.69" y="79.19" width="1.27" height="1.06" transform="translate(-26.06 8.77) rotate(-19.63)"/><path class="cls-3" d="M17.26,82v3.82a1.55,1.55,0,0,0,0-.37,2.27,2.27,0,0,0,4.54,0s0,0,0,0V82Z"/><path class="cls-3" d="M9.91,82l-1.7,3.42v0a2.27,2.27,0,0,0,4.54,0V82Z"/><polygon class="cls-2" points="26.39 85.44 26.39 85.44 26.39 85.44 26.39 85.44"/><rect class="cls-12" x="12.76" y="82.02" width="4.5"/><path class="cls-2" d="M12.76,82v3.5a2.27,2.27,0,0,0,4.5.32V82Z"/><path class="cls-2" d="M24.11,87.72a2.28,2.28,0,0,0,2.28-2.28h0L24.7,82H21.85v3.51A2.27,2.27,0,0,0,24.11,87.72Z"/><path class="cls-13" d="M21.84,85.45H8.21a2.27,2.27,0,0,0,4.54,0,2.27,2.27,0,0,0,4.54,0,2.27,2.27,0,0,0,4.54,0,2.28,2.28,0,0,0,4.55,0Z"/><polygon class="cls-4" points="23.07 95.04 21.06 95.04 19.15 93.78 17.49 95.04 11.63 95.04 10.95 90.05 23.75 90.05 23.07 95.04"/><path class="cls-2" d="M20.19,98a2.67,2.67,0,1,1,1.43-3.5A2.68,2.68,0,0,1,20.19,98Zm-1.45-3.45a1.06,1.06,0,1,0,1.39.57A1.07,1.07,0,0,0,18.74,94.52Z"/><path class="cls-14" d="M88.35,72.41a7.34,7.34,0,0,0-10,2.81l-7.24,12.9,12.81,7.19L91.16,82.4A7.34,7.34,0,0,0,88.35,72.41Zm-6,6.41a4.67,4.67,0,0,1-2.21-1.56,1.9,1.9,0,0,1,.21-2.47A6.56,6.56,0,0,1,88,73.85h0a.88.88,0,0,1,.46.84,4.67,4.67,0,0,1-6.14,4.12Z"/><path class="cls-15" d="M80,88.67A4.6,4.6,0,0,0,86.2,87l-8-4.5A4.59,4.59,0,0,0,80,88.67Z"/><path class="cls-14" d="M83.91,95.31l1.31-5.52a.66.66,0,0,1,.62-.5l11.4-.38a.66.66,0,0,1,.66.5h0a.65.65,0,0,1-.41.77Z"/><path class="cls-2" d="M87.18,89.53l.16-.29,9.83-.36a.77.77,0,0,1,.77.58h0l-9.59,1.73A1.12,1.12,0,0,1,87.18,89.53Z"/><path class="cls-2" d="M88.35,72.41a7.34,7.34,0,0,0-10,2.81l-3.13,5.57L88,88l3.13-5.57A7.34,7.34,0,0,0,88.35,72.41Zm-.95,5a4.68,4.68,0,0,1-7.26-.14,1.9,1.9,0,0,1,.21-2.47A6.56,6.56,0,0,1,88,73.85h0a.88.88,0,0,1,.46.84A4.65,4.65,0,0,1,87.4,77.4Z"/><path class="cls-9" d="M84.42,80.76a4.59,4.59,0,0,0-6.23,1.71l8,4.5A4.59,4.59,0,0,0,84.42,80.76Z"/><path class="cls-16" d="M81.23,84.08l0,0,.06-.08h0l1.54.87a.36.36,0,1,0,.35-.62l-1.27-.71a1.65,1.65,0,0,1,1.48.07,1.74,1.74,0,0,1,.73.83.36.36,0,0,0,.46.2.37.37,0,0,0,.2-.47,2.54,2.54,0,0,0-1-1.18,2.4,2.4,0,0,0-2.55.14h0l-.64-.35a.35.35,0,0,0-.48.13.36.36,0,0,0,.13.49l.47.26s0,0,0,0l-.12.17.62.35Z"/><path class="cls-17" d="M80.42,84.09l0,0,0,0-.43-.24a.35.35,0,0,0-.48.13.36.36,0,0,0,.13.49l.64.36h0A2.38,2.38,0,0,0,83,87.36a.36.36,0,0,0,.29-.41.35.35,0,0,0-.41-.29,1.69,1.69,0,0,1-1.08-.19A1.71,1.71,0,0,1,81,85.25l1.27.71a.36.36,0,1,0,.35-.62L81,84.47h0l0-.09s0,0,0,0l.06-.13,0,0-.62-.35,0,0A2.56,2.56,0,0,0,80.42,84.09Z"/><path class="cls-18" d="M99,95.7a1.3,1.3,0,1,1-2.59,0,22.91,22.91,0,0,1,1.3-3.79A23,23,0,0,1,99,95.7Z"/><path class="cls-19" d="M98.39,95.59a.67.67,0,0,1-.57.74"/><path class="cls-20" d="M81.79,86.47A1.71,1.71,0,0,1,81,85.25l1.27.71a.36.36,0,1,0,.35-.62L81,84.47h0l0-.09s0,0,0,0l.06-.13,0,0-.62-.35,0,0a2.56,2.56,0,0,0-.11.24l0,0,0,0-.43-.24a.35.35,0,0,0-.48.13.36.36,0,0,0,.13.49l.64.36h0A2.38,2.38,0,0,0,83,87.36a.36.36,0,0,0,.29-.41.35.35,0,0,0-.41-.29"/><path class="cls-15" d="M80,88.67A4.6,4.6,0,0,0,86.2,87l-8-4.5A4.59,4.59,0,0,0,80,88.67Z"/><path class="cls-9" d="M84.42,80.76a4.59,4.59,0,0,0-6.23,1.71l8,4.5A4.59,4.59,0,0,0,84.42,80.76Z"/><path class="cls-4" d="M81.23,84.08l0,0,.06-.08h0l1.54.87a.36.36,0,1,0,.35-.62l-1.27-.71a1.65,1.65,0,0,1,1.48.07,1.74,1.74,0,0,1,.73.83.36.36,0,0,0,.46.2.37.37,0,0,0,.2-.47,2.54,2.54,0,0,0-1-1.18,2.4,2.4,0,0,0-2.55.14h0l-.64-.35a.35.35,0,0,0-.48.13.36.36,0,0,0,.13.49l.47.26s0,0,0,0l-.12.17.62.35Z"/><path class="cls-21" d="M81.79,86.47A1.71,1.71,0,0,1,81,85.25l1.27.71a.36.36,0,1,0,.35-.62L81,84.47h0l0-.09s0,0,0,0l.06-.13,0,0-.62-.35,0,0a2.56,2.56,0,0,0-.11.24l0,0,0,0-.43-.24a.35.35,0,0,0-.48.13.36.36,0,0,0,.13.49l.64.36h0A2.38,2.38,0,0,0,83,87.36a.36.36,0,0,0,.29-.41.35.35,0,0,0-.41-.29"/></g></g></svg>