<svg id="Calque_1" data-name="Calque 1" xmlns="http://www.w3.org/2000/svg" viewBox="0 0 100 100"><defs><style>.cls-1{fill:#e8e7e7;}.cls-2{fill:#d7d8d8;}.cls-10,.cls-3{fill:#a72676;}.cls-4{fill:#861e65;}.cls-12,.cls-5{fill:#414c5f;}.cls-6,.cls-8{opacity:0.6;}.cls-14,.cls-7,.cls-8{fill:#fff;}.cls-11,.cls-9{fill:#4d5970;}.cls-10,.cls-11,.cls-12,.cls-13,.cls-14{fill-rule:evenodd;}.cls-13{fill:#ebeff0;}.cls-15{fill:none;stroke:#861e65;stroke-miterlimit:10;}</style></defs><title>Planche-Pictox3-28-06-2108</title><path class="cls-1" d="M5,85.55a5.17,5.17,0,0,0-2.52,6.81L11.82,88A5.17,5.17,0,0,0,5,85.55Z"/><path class="cls-2" d="M9.3,94.81A5.16,5.16,0,0,0,11.82,88L2.46,92.36A5.17,5.17,0,0,0,9.3,94.81Z"/><path class="cls-3" d="M6.41,90.44s0,0,0,0a.29.29,0,0,1,0-.09h0l1.48-.69A.33.33,0,0,0,8,89.18.32.32,0,0,0,7.56,89l-1.21.57a1.55,1.55,0,0,1,.85-1.07,1.59,1.59,0,0,1,1-.1.31.31,0,0,0,.39-.24.32.32,0,0,0-.24-.39,2.17,2.17,0,0,0-1.44.14,2.19,2.19,0,0,0-1.26,2h0L5,90.2a.32.32,0,0,0,.27.59l.45-.21v0c0,.06.05.12.07.17l.59-.27A.25.25,0,0,1,6.41,90.44Z"/><path class="cls-4" d="M6,91.05v0l0,0-.41.19a.32.32,0,0,0-.15.43.31.31,0,0,0,.43.16l.61-.28h0a2.2,2.2,0,0,0,2.33.31,2.17,2.17,0,0,0,1-1,.32.32,0,0,0-.14-.43.33.33,0,0,0-.44.14,1.54,1.54,0,0,1-2.09.68l1.22-.57a.33.33,0,0,0,.16-.43.32.32,0,0,0-.44-.16L6.6,90.8h0a.56.56,0,0,1,0-.08l0,0a.67.67,0,0,1-.06-.12l0,0-.59.27s0,0,0,.06Z"/><polygon class="cls-5" points="29.43 95.34 11 95.34 11 71.24 13.92 71.24 13.92 77.44 13.74 77.44 19.09 74.68 19.08 77.44 24.41 74.68 24.41 77.44 29.43 74.68 29.43 95.34"/><rect class="cls-2" x="16.79" y="90.76" width="3.04" height="4.56"/><rect class="cls-2" x="20.6" y="90.76" width="3.04" height="4.56"/><g class="cls-6"><polygon class="cls-7" points="20.6 90.76 23.64 90.76 23.64 95.32 20.6 90.76"/><polygon class="cls-7" points="16.79 90.76 19.82 90.76 19.82 95.32 16.79 90.76"/></g><rect class="cls-2" x="13.77" y="86.11" width="2.51" height="3.02"/><polygon class="cls-8" points="16.3 89.1 13.78 86.08 16.3 86.08 16.3 89.1"/><rect class="cls-2" x="17.22" y="86.11" width="2.51" height="3.02"/><polygon class="cls-8" points="19.76 89.1 17.23 86.08 19.76 86.08 19.76 89.1"/><rect class="cls-2" x="20.67" y="86.11" width="2.51" height="3.02"/><polygon class="cls-8" points="23.21 89.1 20.68 86.08 23.21 86.08 23.21 89.1"/><rect class="cls-2" x="24.12" y="86.11" width="2.51" height="3.02"/><polygon class="cls-8" points="26.66 89.1 24.13 86.08 26.66 86.08 26.66 89.1"/><rect class="cls-2" x="13.77" y="81.79" width="2.51" height="3.02"/><polygon class="cls-8" points="16.3 84.77 13.78 81.75 16.3 81.75 16.3 84.77"/><rect class="cls-2" x="17.22" y="81.79" width="2.51" height="3.02"/><polygon class="cls-8" points="19.76 84.77 17.23 81.75 19.76 81.75 19.76 84.77"/><rect class="cls-2" x="20.67" y="81.79" width="2.51" height="3.02"/><polygon class="cls-8" points="23.21 84.77 20.68 81.75 23.21 81.75 23.21 84.77"/><rect class="cls-2" x="24.12" y="81.79" width="2.51" height="3.02"/><polygon class="cls-8" points="26.66 84.77 24.13 81.75 26.66 81.75 26.66 84.77"/><path class="cls-5" d="M48.33,92.15l.35,3H49l-.35-3Zm0,0"/><path class="cls-9" d="M50.12,92.14h-.21l0,3h.21Zm0,0"/><path class="cls-5" d="M49.77,92.15v3h.15l0-3Zm0,0"/><path class="cls-9" d="M51.2,92.14l-.31,3h.35l.32-3Zm0,0"/><path class="cls-10" d="M49.77,70a9.14,9.14,0,0,0-2-.27c-2.42-.25-5.23,2.16-6.25,4.15a10.44,10.44,0,0,0-.29,8c2,5.81,6.93,10,8.64,10l-.1-21.84Zm0,0"/><path class="cls-10" d="M58,73.6c-1.05-1.88-4.2-4.42-6.52-4a8.51,8.51,0,0,0-1.66.32l.1,21.84h0c1.7,0,6.63-4.24,8.54-10.09A10.3,10.3,0,0,0,58,73.6Zm0,0"/><path class="cls-11" d="M51.48,95H49.93v2h.82a2.08,2.08,0,0,0,.75-1.7,2.46,2.46,0,0,0,0-.28Zm0,0"/><path class="cls-12" d="M48.54,95c0,.1,0,.19,0,.28A2.11,2.11,0,0,0,49.3,97h.64V95Zm0,0"/><path class="cls-13" d="M49.8,69.9a7,7,0,0,0-1.2-.19c-1.63-.27-3.08.82-4.17,1.91-2.3,2.29-2.86,6.32-1.77,10.17,1.66,5.81,5.82,10,7.25,10l-.1-21.88Zm0,0"/><path class="cls-14" d="M55.08,71.48c-.94-.89-2.65-2.1-4.16-1.84a3.17,3.17,0,0,0-1.11.26l.1,21.88h0c1.43,0,5.55-4.23,7.14-10.08,1.07-3.91.42-8-2-10.22Zm0,0"/><path class="cls-10" d="M53.91,72c-.75-1.24-2.41-2.76-3.82-2.3a1.43,1.43,0,0,0-.28.13l.1,22h0c1,0,3.92-4.22,5-10.07.69-3.6.36-7.4-1-9.72Zm0,0"/><path class="cls-10" d="M49.78,69.84a1.66,1.66,0,0,0-.35-.13c-1.37-.3-2.89.94-3.68,2.26-1.41,2.32-1.71,6.17-1,9.81,1.17,5.8,4.11,10,5.13,10l-.1-22,0,0Zm0,0"/><path class="cls-13" d="M48.82,70.19c-1.24,1.52-1.6,6.7-1.16,11.57.53,5.78,1.8,9.94,2.25,10l-.1-22.12a1.3,1.3,0,0,0-1,.53Zm0,0"/><path class="cls-14" d="M52.07,81.73c.38-4.87,0-10-1.3-11.55a1.24,1.24,0,0,0-1-.52l.1,22.12h0c.44,0,1.68-4.21,2.15-10Zm0,0"/><path class="cls-12" d="M44.92,88.14l3.24,4.08h1.75l0-4.11Zm0,0"/><path class="cls-11" d="M54.88,88.08l-5,0,0,4.11h1.78Zm0,0"/><path class="cls-5" d="M87.09,95.85l-1.76-6.19a.75.75,0,0,1,.33-.84l11.06-6.7a.75.75,0,0,1,.93.12h0a.75.75,0,0,1,0,1Z"/><path class="cls-9" d="M87.11,88.32v-.38l9.53-5.81a.87.87,0,0,1,1.08.15h0l-8.53,7A1.27,1.27,0,0,1,87.11,88.32Z"/><path class="cls-5" d="M78.76,70.73a8.33,8.33,0,0,0-8.33,8.33V95.85H87.1V79.06A8.34,8.34,0,0,0,78.76,70.73ZM76.39,80.4a5.32,5.32,0,0,1-3.06-.31,2.15,2.15,0,0,1-1.15-2.56,7.4,7.4,0,0,1,7.07-5.19h0a1,1,0,0,1,.92.58,5.29,5.29,0,0,1-3.79,7.48Z"/><path class="cls-9" d="M78.76,70.73a8.33,8.33,0,0,0-8.33,8.33v7.25H87.1V79.06A8.34,8.34,0,0,0,78.76,70.73ZM80.6,76.2a5.33,5.33,0,0,1-7.27,3.89,2.15,2.15,0,0,1-1.15-2.56,7.4,7.4,0,0,1,7.07-5.19h0a1,1,0,0,1,.92.58A5.32,5.32,0,0,1,80.6,76.2Z"/><path class="cls-7" d="M79.58,81.16a5.22,5.22,0,0,0-5.21,5.16H84.79A5.22,5.22,0,0,0,79.58,81.16Z"/><path class="cls-1" d="M79.57,91.47a5.22,5.22,0,0,0,5.21-5.16H74.36A5.22,5.22,0,0,0,79.57,91.47Z"/><line class="cls-15" x1="77.72" y1="88.17" x2="77.72" y2="85.58"/><line class="cls-15" x1="78.96" y1="88.17" x2="78.96" y2="85.58"/><line class="cls-15" x1="80.18" y1="88.17" x2="80.18" y2="85.58"/><line class="cls-15" x1="81.4" y1="88.17" x2="81.4" y2="85.58"/><path class="cls-4" d="M77,89h5a.42.42,0,0,1,.42.42v0a0,0,0,0,1,0,0H76.63a0,0,0,0,1,0,0v0A.42.42,0,0,1,77,89Z"/><path class="cls-4" d="M79.53,82.56a.07.07,0,0,1,.09,0l3,2.13a.09.09,0,0,1,0,.17l-3,0-3,0a.09.09,0,0,1,0-.17Z"/><path class="cls-4" d="M79.78,82.94h0m-.2.15,1.85,1.32-1.85,0-1.86,0,1.86-1.32m0-.54h0l-3,2.13a.09.09,0,0,0,0,.17l3,0,3,0a.09.09,0,0,0,0-.17l-3-2.13Z"/></svg>