<svg xmlns="http://www.w3.org/2000/svg" width="110" height="110" viewBox="0 0 110 110"><g fill="none" fill-rule="evenodd"><rect width="110" height="110" fill="#FFF"/><circle cx="55" cy="55" r="54.31" stroke="#007D8F" stroke-width="1.38"/><path fill="#007D8F" d="M8.25122845,0 C8.92933083,0 9.4796748,0.577176471 9.4796748,1.29411765 L9.4796748,1.29411765 L9.4796748,7.32211765 C11.42062,7.89411765 12.8333333,9.75764706 12.8333333,11.9576471 L12.8333333,11.9576471 L12.8333333,12.0663529 L12.8308764,12.1310588 C12.7596266,14.2844706 11.3542839,16.0418824 9.4796748,16.5931765 L9.4796748,16.5931765 L9.4796748,42.7058824 C9.4796748,43.4202353 8.92933083,44 8.25122845,44 C7.57312606,44 7.0227821,43.4202353 7.0227821,42.7058824 L7.0227821,42.7058824 L7.0227821,16.6009412 C5.07937997,16.0315294 3.66666667,14.168 3.66666667,11.9654118 L3.66666667,11.9654118 L3.67158045,11.7971765 C3.66912356,11.7945882 3.67158045,11.792 3.67158045,11.792 L3.67158045,11.792 L3.67158045,11.7609412 C3.7575717,9.62047059 5.15800054,7.876 7.0227821,7.32729412 L7.0227821,7.32729412 L7.0227821,1.29411765 C7.0227821,0.577176471 7.57312606,0 8.25122845,0 Z M21.0857896,0 C21.7637103,0 22.3139068,0.577176471 22.3139068,1.29411765 L22.3139068,1.29411765 L22.3139068,27.5 C24.2543319,28.072 25.6666667,29.9329412 25.6666667,32.1355294 L25.6666667,32.1355294 L25.6666667,32.3089412 C25.5929796,34.4649412 24.1855573,36.2197647 22.3139068,36.7710588 L22.3139068,36.7710588 L22.3139068,42.7058824 C22.3139068,43.4202353 21.7637103,44 21.0857896,44 C20.4078689,44 19.8576724,43.4202353 19.8576724,42.7058824 L19.8576724,42.7058824 L19.8576724,36.7788235 C17.9123348,36.2094118 16.5,34.3432941 16.5,32.1381176 L16.5,32.1381176 L16.5049125,31.9724706 C16.5024562,31.9698824 16.5049125,31.9672941 16.5049125,31.9621176 L16.5049125,31.9621176 L16.5049125,31.9362353 C16.5957931,29.7957647 17.9933905,28.0538824 19.8576724,27.5051765 L19.8576724,27.5051765 L19.8576724,1.29411765 C19.8576724,0.577176471 20.4078689,0 21.0857896,0 Z M35.7524562,0 C36.4303769,0 36.9805734,0.579764706 36.9805734,1.29411765 L36.9805734,1.29411765 L36.9805734,17.3877647 C38.9209986,17.9597647 40.3333333,19.8207059 40.3333333,22.0232941 L40.3333333,22.0232941 L40.3333333,22.1501176 L40.3308771,22.1967059 C40.2596463,24.3501176 38.8546802,26.1075294 36.9805734,26.6588235 L36.9805734,26.6588235 L36.9805734,42.7058824 C36.9805734,43.4202353 36.4303769,44 35.7524562,44 C35.0745355,44 34.524339,43.4202353 34.524339,42.7058824 L34.524339,42.7058824 L34.524339,26.6665882 C32.5790014,26.0971765 31.1666667,24.2310588 31.1666667,22.0258824 L31.1666667,22.0258824 L31.1691229,21.8602353 C31.1691229,21.8576471 31.1715791,21.8550588 31.1715791,21.8498824 L31.1715791,21.8498824 L31.1715791,21.824 C31.2600036,19.6835294 32.6600572,17.9416471 34.524339,17.3929412 L34.524339,17.3929412 L34.524339,1.29411765 C34.524339,0.579764706 35.0745355,0 35.7524562,0 Z M21.1619328,29.7362353 L21.1594766,29.7388235 L21.1521079,29.8992941 L21.0833333,29.8967059 C19.9436406,29.8967059 18.9930779,30.8517647 18.9562344,32.0630588 L18.9562344,32.0630588 L18.9562344,32.1381176 C18.9562344,33.3416471 19.8625849,34.3407059 21.0096463,34.3821176 L21.0096463,34.3821176 L21.0857896,34.3821176 C22.2230261,34.3821176 23.1735888,33.4270588 23.2104373,32.2183529 L23.2104373,32.2183529 L23.2104373,32.1355294 C23.2128885,30.9371765 22.306538,29.9407059 21.1570204,29.8992941 L21.1570204,29.8992941 L21.1619328,29.7362353 Z M35.8310557,19.5903529 L35.8261433,19.5903529 L35.8187746,19.7870588 L35.75,19.7844706 C34.6103073,19.7844706 33.6622008,20.7395294 33.6253573,21.9508235 L33.6253573,21.9508235 L33.622901,21.9870588 L33.622901,22.0258824 C33.622901,23.2294118 34.5267953,24.2284706 35.676313,24.2698824 L35.676313,24.2698824 L35.7524562,24.2698824 C36.892149,24.2698824 37.8377992,23.3148235 37.877099,22.1061176 L37.877099,22.1061176 L37.8795552,22.0232941 C37.8795552,20.8249412 36.9732047,19.8284706 35.823687,19.7870588 L35.823687,19.7870588 L35.8310557,19.5903529 Z M8.32247833,9.70588235 L8.32002144,9.70588235 L8.31756455,9.72141176 L8.26105602,9.71882353 C8.25859912,9.71882353 8.25368534,9.72141176 8.25122845,9.72141176 L8.25122845,9.72141176 C7.10631645,9.72141176 6.16041276,10.6764706 6.12355937,11.8825882 L6.12355937,11.8825882 L6.12355937,11.9654118 C6.12355937,13.1637647 7.02769588,14.1628235 8.17752167,14.2042353 L8.17752167,14.2042353 L8.25368534,14.2042353 C9.39122666,14.2042353 10.3371303,13.2517647 10.3764406,12.0404706 L10.3764406,12.0404706 L10.3764406,11.9576471 C10.3764406,10.7567059 9.47476101,9.76282353 8.32247833,9.72141176 L8.32247833,9.72141176 L8.32247833,9.70588235 Z" transform="translate(33 33)"/></g></svg>